999
dxfrw 0.6.3
  0
SECTION
  2
HEADER
  9
$ACADVER
  1
AC1021
  9
$DWGCODEPAGE
  3
ANSI_1252
  9
$INSBASE
 10
0
 20
0
 30
0
  9
$EXTMIN
 10
-6.087500000000015
 20
-6.087500000000063
 30
0
  9
$EXTMAX
 10
358.5125
 20
129.9125000000001
 30
0
  9
$LIMMIN
 10
0
 20
0
  9
$LIMMAX
 10
420
 20
297
  9
$ORTHOMODE
 70
    0
  9
$REGENMODE
 70
    1
  9
$FILLMODE
 70
    1
  9
$QTEXTMODE
 70
    0
  9
$MIRRTEXT
 70
    1
  9
$LTSCALE
 40
1
  9
$ATTMODE
 70
    1
  9
$TEXTSIZE
 40
3.5
  9
$TRACEWID
 40
1
  9
$TEXTSTYLE
  7
Standard
  9
$CLAYER
  8
0
  9
$CELTYPE
  6
ByLayer
  9
$CECOLOR
 62
  256
  9
$CELTSCALE
 40
1
  9
$DISPSILH
 70
    0
  9
$DIMSCALE
 40
1
  9
$DIMASZ
 40
3.302
  9
$DIMEXO
 40
0
  9
$DIMDLI
 40
3.75
  9
$DIMRND
 40
0
  9
$DIMDLE
 40
0
  9
$DIMEXE
 40
1
  9
$DIMTP
 40
0
  9
$DIMTM
 40
0
  9
$DIMTXT
 40
3.5
  9
$DIMCEN
 40
2.5
  9
$DIMTSZ
 40
0
  9
$DIMTOL
 70
    0
  9
$DIMLIM
 70
    0
  9
$DIMTIH
 70
    1
  9
$DIMTOH
 70
    1
  9
$DIMSE1
 70
    0
  9
$DIMSE2
 70
    0
  9
$DIMTAD
 70
    1
  9
$DIMZIN
 70
    0
  9
$DIMBLK
  1

  9
$DIMASO
 70
    1
  9
$DIMSHO
 70
    1
  9
$DIMPOST
  1

  9
$DIMAPOST
  1

  9
$DIMALT
 70
    0
  9
$DIMALTD
 70
    3
  9
$DIMALTF
 40
0.0393700787
  9
$DIMLFAC
 40
1
  9
$DIMTOFL
 70
    1
  9
$DIMTVP
 40
0
  9
$DIMTIX
 70
    0
  9
$DIMSOXD
 70
    0
  9
$DIMSAH
 70
    0
  9
$DIMBLK1
  1

  9
$DIMBLK2
  1

  9
$DIMSTYLE
  2
ISO-25
  9
$DIMCLRD
 70
    0
  9
$DIMCLRE
 70
    0
  9
$DIMCLRT
 70
    0
  9
$DIMTFAC
 40
1
  9
$DIMGAP
 40
1.524
  9
$DIMJUST
 70
    0
  9
$DIMSD1
 70
    0
  9
$DIMSD2
 70
    0
  9
$DIMTOLJ
 70
    0
  9
$DIMTZIN
 70
    0
  9
$DIMALTZ
 70
    0
  9
$DIMALTTZ
 70
    0
  9
$DIMUPT
 70
    0
  9
$DIMDEC
 70
    2
  9
$DIMTDEC
 70
    3
  9
$DIMALTU
 70
    2
  9
$DIMALTTD
 70
    3
  9
$DIMTXSTY
  7
Standard
  9
$DIMAUNIT
 70
    0
  9
$DIMADEC
 70
    0
  9
$DIMALTRND
 40
0
  9
$DIMAZIN
 70
    0
  9
$DIMDSEP
 70
   44
  9
$DIMATFIT
 70
    3
  9
$DIMFRAC
 70
    0
  9
$DIMLDRBLK
  1

  9
$DIMLUNIT
 70
    2
  9
$DIMLWD
 70
   -2
  9
$DIMLWE
 70
   -2
  9
$DIMTMOVE
 70
    0
  9
$DIMFXL
 40
1
  9
$DIMFXLON
 70
    0
  9
$DIMJOGANG
 40
0.7854
  9
$DIMTFILL
 70
    0
  9
$DIMTFILLCLR
 70
    0
  9
$DIMARCSYM
 70
    0
  9
$DIMLTYPE
  6

  9
$DIMLTEX1
  6

  9
$DIMLTEX2
  6

  9
$LUNITS
 70
    2
  9
$LUPREC
 70
    2
  9
$SKETCHINC
 40
1
  9
$FILLETRAD
 40
10
  9
$AUNITS
 70
    0
  9
$AUPREC
 70
    2
  9
$MENU
  1
.
  9
$ELEVATION
 40
0
  9
$PELEVATION
 40
0
  9
$THICKNESS
 40
0
  9
$LIMCHECK
 70
    0
  9
$CHAMFERA
 40
0
  9
$CHAMFERB
 40
0
  9
$CHAMFERC
 40
0
  9
$CHAMFERD
 40
0
  9
$SKPOLY
 70
    0
  9
$USRTIMER
 70
    1
  9
$ANGBASE
 50
0
  9
$ANGDIR
 70
    0
  9
$PDMODE
 70
    0
  9
$PDSIZE
 40
-1
  9
$PLINEWID
 40
0
  9
$SPLFRAME
 70
    0
  9
$SPLINETYPE
 70
    6
  9
$SPLINESEGS
 70
    8
  9
$HANDSEED
  5
20000
  9
$SURFTAB1
 70
    6
  9
$SURFTAB2
 70
    6
  9
$SURFTYPE
 70
    6
  9
$SURFU
 70
    6
  9
$SURFV
 70
    6
  9
$UCSBASE
  2

  9
$UCSNAME
  2

  9
$UCSORG
 10
0
 20
0
 30
0
  9
$UCSXDIR
 10
1
 20
0
 30
0
  9
$UCSYDIR
 10
0
 20
1
 30
0
  9
$UCSORTHOREF
  2

  9
$UCSORTHOVIEW
 70
    0
  9
$UCSORGTOP
 10
0
 20
0
 30
0
  9
$UCSORGBOTTOM
 10
0
 20
0
 30
0
  9
$UCSORGLEFT
 10
0
 20
0
 30
0
  9
$UCSORGRIGHT
 10
0
 20
0
 30
0
  9
$UCSORGFRONT
 10
0
 20
0
 30
0
  9
$UCSORGBACK
 10
0
 20
0
 30
0
  9
$PUCSBASE
  2

  9
$PUCSNAME
  2

  9
$PUCSORG
 10
0
 20
0
 30
0
  9
$PUCSXDIR
 10
1
 20
0
 30
0
  9
$PUCSYDIR
 10
0
 20
1
 30
0
  9
$PUCSORTHOREF
  2

  9
$PUCSORTHOVIEW
 70
    0
  9
$PUCSORGTOP
 10
0
 20
0
 30
0
  9
$PUCSORGBOTTOM
 10
0
 20
0
 30
0
  9
$PUCSORGLEFT
 10
0
 20
0
 30
0
  9
$PUCSORGRIGHT
 10
0
 20
0
 30
0
  9
$PUCSORGFRONT
 10
0
 20
0
 30
0
  9
$PUCSORGBACK
 10
0
 20
0
 30
0
  9
$USERI1
 70
    0
  9
$USERI2
 70
    0
  9
$USERI3
 70
    0
  9
$USERI4
 70
    0
  9
$USERI5
 70
    0
  9
$USERR1
 40
0
  9
$USERR2
 40
0
  9
$USERR3
 40
0
  9
$USERR4
 40
0
  9
$USERR5
 40
0
  9
$WORLDVIEW
 70
    1
  9
$SHADEDGE
 70
    3
  9
$SHADEDIF
 70
   70
  9
$TILEMODE
 70
    1
  9
$MAXACTVP
 70
   64
  9
$PINSBASE
 10
0
 20
0
 30
0
  9
$PLIMCHECK
 70
    0
  9
$PEXTMIN
 10
1e+020
 20
1e+020
 30
1e+020
  9
$PEXTMAX
 10
-1e+020
 20
-1e+020
 30
-1e+020
  9
$GRIDMODE
 70
    1
  9
$SNAPSTYLE
 70
    0
  9
$PLIMMIN
 10
0
 20
0
  9
$PLIMMAX
 10
420
 20
297
  9
$UNITMODE
 70
    0
  9
$VISRETAIN
 70
    1
  9
$PLINEGEN
 70
    0
  9
$PSLTSCALE
 70
    1
  9
$TREEDEPTH
 70
 3020
  9
$CMLSTYLE
  2
Standard
  9
$CMLJUST
 70
    0
  9
$CMLSCALE
 40
20
  9
$PROXYGRAPHICS
 70
    1
  9
$MEASUREMENT
 70
    1
  9
$CELWEIGHT
370
   -1
  9
$ENDCAPS
280
    0
  9
$JOINSTYLE
280
    0
  9
$LWDISPLAY
290
    1
  9
$INSUNITS
 70
    4
  9
$HYPERLINKBASE
  1

  9
$STYLESHEET
  1

  9
$XEDIT
290
    1
  9
$CEPSNTYPE
380
    0
  9
$PSTYLEMODE
290
    1
  9
$EXTNAMES
290
    1
  9
$PSVPSCALE
 40
0
  9
$OLESTARTUP
290
    0
  9
$SORTENTS
280
  127
  9
$INDEXCTL
280
    0
  9
$HIDETEXT
280
    1
  9
$XCLIPFRAME
290
    0
  9
$HALOGAP
280
    0
  9
$OBSCOLOR
 70
  257
  9
$OBSLTYPE
280
    0
  9
$INTERSECTIONDISPLAY
280
    0
  9
$INTERSECTIONCOLOR
 70
  257
  9
$DIMASSOC
280
    1
  9
$PROJECTNAME
  1

  9
$CAMERADISPLAY
290
    0
  9
$LENSLENGTH
 40
50
  9
$CAMERAHEIGHT
 40
0
  9
$STEPSPERSEC
 40
2
  9
$STEPSIZE
 40
50
  9
$3DDWFPREC
 40
2
  9
$PSOLWIDTH
 40
5
  9
$PSOLHEIGHT
 40
80
  9
$LOFTANG1
 40
1.570796326794897
  9
$LOFTANG2
 40
1.570796326794897
  9
$LOFTMAG1
 40
0
  9
$LOFTMAG2
 40
0
  9
$LOFTPARAM
 70
    7
  9
$LOFTNORMALS
280
    1
  9
$LATITUDE
 40
1
  9
$LONGITUDE
 40
1
  9
$NORTHDIRECTION
 40
0
  9
$TIMEZONE
 70
-8000
  9
$LIGHTGLYPHDISPLAY
280
    1
  9
$TILEMODELIGHTSYNCH
280
    1
  9
$SOLIDHIST
280
    1
  9
$SHOWHIST
280
    1
  9
$DWFFRAME
280
    2
  9
$DGNFRAME
280
    0
  9
$REALWORLDSCALE
290
    1
  9
$INTERFERECOLOR
 62
    1
  9
$CSHADOW
280
    0
  9
$SHADOWPLANELOCATION
 40
0
  0
ENDSEC
  0
SECTION
  2
CLASSES
  0
ENDSEC
  0
SECTION
  2
TABLES
  0
TABLE
  2
VPORT
  5
8
330
0
100
AcDbSymbolTable
 70
    1
  0
VPORT
  5
31
330
2
100
AcDbSymbolTableRecord
100
AcDbViewportTableRecord
  2
*ACTIVE
 70
    0
 10
0
 20
0
 11
1
 21
1
 12
252.5763824145449
 22
133.1685671781432
 13
0
 23
0
 14
10
 24
10
 15
10
 25
10
 16
0
 26
0
 36
1
 17
0
 27
0
 37
0
 40
536.2254305039899
 41
1.855960264900662
 42
50
 43
0
 44
0
 50
0
 51
0
 71
    0
 72
  100
 73
    1
 74
    3
 75
    0
 76
    1
 77
    0
 78
    0
281
    0
 65
    1
110
0
120
0
130
0
111
1
121
0
131
0
112
0
122
1
132
0
 79
    0
146
0
348
10020
 60
    7
 61
    5
292
1
282
    1
141
0
142
0
 63
  250
421
3358443
  0
ENDTAB
  0
TABLE
  2
LTYPE
  5
5
330
0
100
AcDbSymbolTable
 70
    4
  0
LTYPE
  5
14
330
5
100
AcDbSymbolTableRecord
100
AcDbLinetypeTableRecord
  2
ByBlock
 70
    0
  3

 72
   65
 73
    0
 40
0
  0
LTYPE
  5
15
330
5
100
AcDbSymbolTableRecord
100
AcDbLinetypeTableRecord
  2
ByLayer
 70
    0
  3

 72
   65
 73
    0
 40
0
  0
LTYPE
  5
16
330
5
100
AcDbSymbolTableRecord
100
AcDbLinetypeTableRecord
  2
Continuous
 70
    0
  3
Solid line
 72
   65
 73
    0
 40
0
  0
LTYPE
  5
32
330
5
100
AcDbSymbolTableRecord
100
AcDbLinetypeTableRecord
  2
DOT
 70
    0
  3
Dot . . . . . . . . . . . . . . . . . . . . . .
 72
   65
 73
    2
 40
6.35
 49
0
 74
    0
 49
-6.35
 74
    0
  0
LTYPE
  5
33
330
5
100
AcDbSymbolTableRecord
100
AcDbLinetypeTableRecord
  2
DOTTINY
 70
    0
  3
Dot (.15x) .....................................
 72
   65
 73
    2
 40
0.9525
 49
0
 74
    0
 49
-0.9525
 74
    0
  0
LTYPE
  5
34
330
5
100
AcDbSymbolTableRecord
100
AcDbLinetypeTableRecord
  2
DOT2
 70
    0
  3
Dot (.5x) .....................................
 72
   65
 73
    2
 40
3.175
 49
0
 74
    0
 49
-3.175
 74
    0
  0
LTYPE
  5
35
330
5
100
AcDbSymbolTableRecord
100
AcDbLinetypeTableRecord
  2
DOTX2
 70
    0
  3
Dot (2x) .  .  .  .  .  .  .  .  .  .  .  .  .
 72
   65
 73
    2
 40
12.7
 49
0
 74
    0
 49
-12.7
 74
    0
  0
LTYPE
  5
36
330
5
100
AcDbSymbolTableRecord
100
AcDbLinetypeTableRecord
  2
DASHED
 70
    0
  3
Dashed _ _ _ _ _ _ _ _ _ _ _ _ _ _ _ _ _
 72
   65
 73
    2
 40
19.05
 49
12.7
 74
    0
 49
-6.35
 74
    0
  0
LTYPE
  5
37
330
5
100
AcDbSymbolTableRecord
100
AcDbLinetypeTableRecord
  2
DASHEDTINY
 70
    0
  3
Dashed (.15x) _ _ _ _ _ _ _ _ _ _ _ _ _ _ _ _ _
 72
   65
 73
    2
 40
2.8575
 49
1.905
 74
    0
 49
-0.9525
 74
    0
  0
LTYPE
  5
38
330
5
100
AcDbSymbolTableRecord
100
AcDbLinetypeTableRecord
  2
DASHED2
 70
    0
  3
Dashed (.5x) _ _ _ _ _ _ _ _ _ _ _ _ _ _ _ _ _
 72
   65
 73
    2
 40
9.524999999999999
 49
6.35
 74
    0
 49
-3.175
 74
    0
  0
LTYPE
  5
39
330
5
100
AcDbSymbolTableRecord
100
AcDbLinetypeTableRecord
  2
DASHEDX2
 70
    0
  3
Dashed (2x) ____  ____  ____  ____  ____  ___
 72
   65
 73
    2
 40
38.09999999999999
 49
25.4
 74
    0
 49
-12.7
 74
    0
  0
LTYPE
  5
3A
330
5
100
AcDbSymbolTableRecord
100
AcDbLinetypeTableRecord
  2
DASHDOT
 70
    0
  3
Dash dot __ . __ . __ . __ . __ . __ . __ . __
 72
   65
 73
    4
 40
25.4
 49
12.7
 74
    0
 49
-6.35
 74
    0
 49
0
 74
    0
 49
-6.35
 74
    0
  0
LTYPE
  5
3B
330
5
100
AcDbSymbolTableRecord
100
AcDbLinetypeTableRecord
  2
DASHDOTTINY
 70
    0
  3
Dash dot (.15x) _._._._._._._._._._._._._._._.
 72
   65
 73
    4
 40
3.81
 49
1.905
 74
    0
 49
-0.9525
 74
    0
 49
0
 74
    0
 49
-0.9525
 74
    0
  0
LTYPE
  5
3C
330
5
100
AcDbSymbolTableRecord
100
AcDbLinetypeTableRecord
  2
DASHDOT2
 70
    0
  3
Dash dot (.5x) _._._._._._._._._._._._._._._.
 72
   65
 73
    4
 40
12.7
 49
6.35
 74
    0
 49
-3.175
 74
    0
 49
0
 74
    0
 49
-3.175
 74
    0
  0
LTYPE
  5
3D
330
5
100
AcDbSymbolTableRecord
100
AcDbLinetypeTableRecord
  2
DASHDOTX2
 70
    0
  3
Dash dot (2x) ____  .  ____  .  ____  .  ___
 72
   65
 73
    4
 40
50.8
 49
25.4
 74
    0
 49
-12.7
 74
    0
 49
0
 74
    0
 49
-12.7
 74
    0
  0
LTYPE
  5
3E
330
5
100
AcDbSymbolTableRecord
100
AcDbLinetypeTableRecord
  2
DIVIDE
 70
    0
  3
Divide ____ . . ____ . . ____ . . ____ . . ____
 72
   65
 73
    6
 40
31.75
 49
12.7
 74
    0
 49
-6.35
 74
    0
 49
0
 74
    0
 49
-6.35
 74
    0
 49
0
 74
    0
 49
-6.35
 74
    0
  0
LTYPE
  5
3F
330
5
100
AcDbSymbolTableRecord
100
AcDbLinetypeTableRecord
  2
DIVIDETINY
 70
    0
  3
Divide (.15x) __..__..__..__..__..__..__..__.._
 72
   65
 73
    6
 40
4.7625
 49
1.905
 74
    0
 49
-0.9525
 74
    0
 49
0
 74
    0
 49
-0.9525
 74
    0
 49
0
 74
    0
 49
-0.9525
 74
    0
  0
LTYPE
  5
40
330
5
100
AcDbSymbolTableRecord
100
AcDbLinetypeTableRecord
  2
DIVIDE2
 70
    0
  3
Divide (.5x) __..__..__..__..__..__..__..__.._
 72
   65
 73
    6
 40
15.875
 49
6.35
 74
    0
 49
-3.175
 74
    0
 49
0
 74
    0
 49
-3.175
 74
    0
 49
0
 74
    0
 49
-3.175
 74
    0
  0
LTYPE
  5
41
330
5
100
AcDbSymbolTableRecord
100
AcDbLinetypeTableRecord
  2
DIVIDEX2
 70
    0
  3
Divide (2x) ________  .  .  ________  .  .  _
 72
   65
 73
    6
 40
63.5
 49
25.4
 74
    0
 49
-12.7
 74
    0
 49
0
 74
    0
 49
-12.7
 74
    0
 49
0
 74
    0
 49
-12.7
 74
    0
  0
LTYPE
  5
42
330
5
100
AcDbSymbolTableRecord
100
AcDbLinetypeTableRecord
  2
BORDER
 70
    0
  3
Border __ __ . __ __ . __ __ . __ __ . __ __ .
 72
   65
 73
    6
 40
44.45
 49
12.7
 74
    0
 49
-6.35
 74
    0
 49
12.7
 74
    0
 49
-6.35
 74
    0
 49
0
 74
    0
 49
-6.35
 74
    0
  0
LTYPE
  5
43
330
5
100
AcDbSymbolTableRecord
100
AcDbLinetypeTableRecord
  2
BORDERTINY
 70
    0
  3
Border (.15x) __.__.__.__.__.__.__.__.__.__.__.
 72
   65
 73
    6
 40
6.6675
 49
1.905
 74
    0
 49
-0.9525
 74
    0
 49
1.905
 74
    0
 49
-0.9525
 74
    0
 49
0
 74
    0
 49
-0.9525
 74
    0
  0
LTYPE
  5
44
330
5
100
AcDbSymbolTableRecord
100
AcDbLinetypeTableRecord
  2
BORDER2
 70
    0
  3
Border (.5x) __.__.__.__.__.__.__.__.__.__.__.
 72
   65
 73
    6
 40
22.225
 49
6.35
 74
    0
 49
-3.175
 74
    0
 49
6.35
 74
    0
 49
-3.175
 74
    0
 49
0
 74
    0
 49
-3.175
 74
    0
  0
LTYPE
  5
45
330
5
100
AcDbSymbolTableRecord
100
AcDbLinetypeTableRecord
  2
BORDERX2
 70
    0
  3
Border (2x) ____  ____  .  ____  ____  .  ___
 72
   65
 73
    6
 40
88.89999999999999
 49
25.4
 74
    0
 49
-12.7
 74
    0
 49
25.4
 74
    0
 49
-12.7
 74
    0
 49
0
 74
    0
 49
-12.7
 74
    0
  0
LTYPE
  5
46
330
5
100
AcDbSymbolTableRecord
100
AcDbLinetypeTableRecord
  2
CENTER
 70
    0
  3
Center ____ _ ____ _ ____ _ ____ _ ____ _ ____
 72
   65
 73
    4
 40
50.8
 49
31.75
 74
    0
 49
-6.35
 74
    0
 49
6.35
 74
    0
 49
-6.35
 74
    0
  0
LTYPE
  5
47
330
5
100
AcDbSymbolTableRecord
100
AcDbLinetypeTableRecord
  2
CENTERTINY
 70
    0
  3
Center (.15x) ___ _ ___ _ ___ _ ___ _ ___ _ ___
 72
   65
 73
    4
 40
7.62
 49
4.7625
 74
    0
 49
-0.9525
 74
    0
 49
0.9525
 74
    0
 49
-0.9525
 74
    0
  0
LTYPE
  5
48
330
5
100
AcDbSymbolTableRecord
100
AcDbLinetypeTableRecord
  2
CENTER2
 70
    0
  3
Center (.5x) ___ _ ___ _ ___ _ ___ _ ___ _ ___
 72
   65
 73
    4
 40
28.575
 49
19.05
 74
    0
 49
-3.175
 74
    0
 49
3.175
 74
    0
 49
-3.175
 74
    0
  0
LTYPE
  5
49
330
5
100
AcDbSymbolTableRecord
100
AcDbLinetypeTableRecord
  2
CENTERX2
 70
    0
  3
Center (2x) ________  __  ________  __  _____
 72
   65
 73
    4
 40
101.6
 49
63.5
 74
    0
 49
-12.7
 74
    0
 49
12.7
 74
    0
 49
-12.7
 74
    0
  0
ENDTAB
  0
TABLE
  2
LAYER
  5
2
330
0
100
AcDbSymbolTable
 70
    1
  0
LAYER
  5
10
330
2
100
AcDbSymbolTableRecord
100
AcDbLayerTableRecord
  2
0
 70
    0
 62
    7
  6
CONTINUOUS
370
   -3
390
F
  0
ENDTAB
  0
TABLE
  2
STYLE
  5
3
330
0
100
AcDbSymbolTable
 70
    3
  0
STYLE
  5
4A
330
2
100
AcDbSymbolTableRecord
100
AcDbTextStyleTableRecord
  2
Standard
 70
    0
 40
0
 41
1
 50
0
 71
    0
 42
1
  3
txt
  4

  0
ENDTAB
  0
TABLE
  2
VIEW
  5
6
330
0
100
AcDbSymbolTable
 70
    0
  0
ENDTAB
  0
TABLE
  2
UCS
  5
7
330
0
100
AcDbSymbolTable
 70
    0
  0
ENDTAB
  0
TABLE
  2
APPID
  5
9
330
0
100
AcDbSymbolTable
 70
    1
  0
APPID
  5
12
330
9
100
AcDbSymbolTableRecord
100
AcDbRegAppTableRecord
  2
ACAD
 70
    0
  0
APPID
  5
4B
330
9
100
AcDbSymbolTableRecord
100
AcDbRegAppTableRecord
  2
LibreCad
 70
    0
  0
ENDTAB
  0
TABLE
  2
DIMSTYLE
  5
A
330
0
100
AcDbSymbolTable
 70
    1
100
AcDbDimStyleTable
 71
    1
  0
DIMSTYLE
105
4C
330
A
100
AcDbSymbolTableRecord
100
AcDbDimStyleTableRecord
  2
Standard
 70
    0
 40
1
 41
3.302
 42
0
 43
0.38
 44
1
 45
0
 46
0
 47
0
 48
0
 49
1
140
3.5
141
0.09
142
0
143
25.4
144
1
145
0
146
1
147
1.524
148
0
 71
    0
 72
    0
 73
    1
 74
    1
 75
    0
 76
    0
 77
    0
 78
    0
 79
    0
170
    0
171
    2
172
    0
173
    0
174
    0
175
    0
176
    0
177
    0
178
    0
179
    0
271
    2
272
    4
273
    2
274
    2
275
    0
276
    0
277
    2
278
   44
279
    0
280
    0
281
    0
282
    0
283
    1
284
    0
285
    0
286
    0
288
    0
289
    3
340
Standard
341

371
   -2
372
   -2
  0
ENDTAB
  0
TABLE
  2
BLOCK_RECORD
  5
1
330
0
100
AcDbSymbolTable
 70
    2
  0
BLOCK_RECORD
  5
1F
330
1
100
AcDbSymbolTableRecord
100
AcDbBlockTableRecord
  2
*Model_Space
 70
    0
280
    1
281
    0
  0
BLOCK_RECORD
  5
1E
330
1
100
AcDbSymbolTableRecord
100
AcDbBlockTableRecord
  2
*Paper_Space
 70
    0
280
    1
281
    0
  0
ENDTAB
  0
ENDSEC
  0
SECTION
  2
BLOCKS
  0
BLOCK
  5
20
330
1F
100
AcDbEntity
  8
0
100
AcDbBlockBegin
  2
*Model_Space
 70
    0
 10
0
 20
0
 30
0
  3
*Model_Space
  1

  0
ENDBLK
  5
21
330
1F
100
AcDbEntity
  8
0
100
AcDbBlockEnd
  0
BLOCK
  5
1C
330
1B
100
AcDbEntity
  8
0
100
AcDbBlockBegin
  2
*Paper_Space
 70
    0
 10
0
 20
0
 30
0
  3
*Paper_Space
  1

  0
ENDBLK
  5
1D
330
1F
100
AcDbEntity
  8
0
100
AcDbBlockEnd
  0
ENDSEC
  0
SECTION
  2
ENTITIES
  0
CIRCLE
  5
4D
100
AcDbEntity
  8
0
  6
CONTINUOUS
 62
    7
370
   25
100
AcDbCircle
 10
192.405
 20
9.525
 40
2.200000000000006
  0
CIRCLE
  5
4E
100
AcDbEntity
  8
0
  6
CONTINUOUS
 62
    7
370
   25
100
AcDbCircle
 10
192.405
 20
9.525
 40
1.200000000000014
  0
CIRCLE
  5
4F
100
AcDbEntity
  8
0
  6
CONTINUOUS
 62
    7
370
   25
100
AcDbCircle
 10
259.55625
 20
9.525
 40
2.199999999999983
  0
CIRCLE
  5
50
100
AcDbEntity
  8
0
  6
CONTINUOUS
 62
    7
370
   25
100
AcDbCircle
 10
259.55625
 20
9.525
 40
1.199999999999971
  0
CIRCLE
  5
51
100
AcDbEntity
  8
0
  6
CONTINUOUS
 62
    7
370
   25
100
AcDbCircle
 10
4.7625
 20
100.0125
 40
2.199999999999974
  0
CIRCLE
  5
52
100
AcDbEntity
  8
0
  6
CONTINUOUS
 62
    7
370
   25
100
AcDbCircle
 10
4.7625
 20
100.0125
 40
1.199999999999974
  0
CIRCLE
  5
53
100
AcDbEntity
  8
0
  6
CONTINUOUS
 62
    7
370
   25
100
AcDbCircle
 10
347.6625
 20
28.575
 40
2.200000000000063
  0
CIRCLE
  5
54
100
AcDbEntity
  8
0
  6
CONTINUOUS
 62
    7
370
   25
100
AcDbCircle
 10
347.6625
 20
28.575
 40
1.199999999999907
  0
CIRCLE
  5
55
100
AcDbEntity
  8
0
  6
CONTINUOUS
 62
    7
370
   25
100
AcDbCircle
 10
190.5
 20
100.0125
 40
2.200000000000017
  0
CIRCLE
  5
56
100
AcDbEntity
  8
0
  6
CONTINUOUS
 62
    7
370
   25
100
AcDbCircle
 10
190.5
 20
100.0125
 40
1.200000000000017
  0
CIRCLE
  5
57
100
AcDbEntity
  8
0
  6
CONTINUOUS
 62
    7
370
   25
100
AcDbCircle
 10
259.556
 20
66.675
 40
2.200000000000074
  0
CIRCLE
  5
58
100
AcDbEntity
  8
0
  6
CONTINUOUS
 62
    7
370
   25
100
AcDbCircle
 10
259.556
 20
66.675
 40
1.199999999999918
  0
CIRCLE
  5
59
100
AcDbEntity
  8
0
  6
CONTINUOUS
 62
    7
370
   25
100
AcDbCircle
 10
95.25
 20
100.0125
 40
2.200000000000017
  0
CIRCLE
  5
5A
100
AcDbEntity
  8
0
  6
CONTINUOUS
 62
    7
370
   25
100
AcDbCircle
 10
95.25
 20
100.0125
 40
1.199999999999974
  0
CIRCLE
  5
5B
100
AcDbEntity
  8
0
  6
CONTINUOUS
 62
    7
370
   25
100
AcDbCircle
 10
347.6625
 20
100.0125
 40
2.20000000000006
  0
CIRCLE
  5
5C
100
AcDbEntity
  8
0
  6
CONTINUOUS
 62
    7
370
   25
100
AcDbCircle
 10
347.6625
 20
100.0125
 40
1.199999999999903
  0
CIRCLE
  5
5D
100
AcDbEntity
  8
0
  6
CONTINUOUS
 62
    7
370
   25
100
AcDbCircle
 10
26.194
 20
66.675
 40
2.199999999999989
  0
CIRCLE
  5
5E
100
AcDbEntity
  8
0
  6
CONTINUOUS
 62
    7
370
   25
100
AcDbCircle
 10
26.194
 20
66.675
 40
1.199999999999989
  0
CIRCLE
  5
5F
100
AcDbEntity
  8
0
  6
CONTINUOUS
 62
    7
370
   25
100
AcDbCircle
 10
290.5125
 20
100.0125
 40
2.199999999999932
  0
CIRCLE
  5
60
100
AcDbEntity
  8
0
  6
CONTINUOUS
 62
    7
370
   25
100
AcDbCircle
 10
290.5125
 20
100.0125
 40
1.200000000000003
  0
CIRCLE
  5
61
100
AcDbEntity
  8
0
  6
CONTINUOUS
 62
    7
370
   25
100
AcDbCircle
 10
26.19375
 20
9.525
 40
2.199999999999995
  0
CIRCLE
  5
62
100
AcDbEntity
  8
0
  6
CONTINUOUS
 62
    7
370
   25
100
AcDbCircle
 10
26.19375
 20
9.525
 40
1.199999999999994
  0
CIRCLE
  5
63
100
AcDbEntity
  8
0
  6
CONTINUOUS
 62
    7
370
   25
100
AcDbCircle
 10
93.345
 20
9.525
 40
2.199999999999993
  0
CIRCLE
  5
64
100
AcDbEntity
  8
0
  6
CONTINUOUS
 62
    7
370
   25
100
AcDbCircle
 10
93.345
 20
9.525
 40
1.199999999999992
  0
LINE
  5
65
100
AcDbEntity
  8
0
  6
CONTINUOUS
 62
    7
370
   25
100
AcDbLine
 10
-1
 20
37.4125
 11
-1
 21
86.41249999999999
  0
LINE
  5
66
100
AcDbEntity
  8
0
  6
CONTINUOUS
 62
    7
370
   25
100
AcDbLine
 10
-1.04375
 20
86.8781564587
 11
-1.04375
 21
103.9125
  0
LINE
  5
67
100
AcDbEntity
  8
0
  6
CONTINUOUS
 62
    7
370
   25
100
AcDbLine
 10
-3.54375
 20
106.4125
 11
-4.0875
 21
106.4125
  0
LINE
  5
68
100
AcDbEntity
  8
0
  6
CONTINUOUS
 62
    7
370
   25
100
AcDbLine
 10
-6.0875
 20
123.9125
 11
-6.0875
 21
108.4125
  0
LINE
  5
69
100
AcDbEntity
  8
0
  6
CONTINUOUS
 62
    7
370
   25
100
AcDbLine
 10
11.7125
 20
129.9125
 11
-0.08749999999999999
 21
129.9125
  0
LINE
  5
6A
100
AcDbEntity
  8
0
  6
CONTINUOUS
 62
    7
370
   25
100
AcDbLine
 10
13.7125
 20
127.9125
 11
13.7125
 21
127.36875
  0
LINE
  5
6B
100
AcDbEntity
  8
0
  6
CONTINUOUS
 62
    7
370
   25
100
AcDbLine
 10
18.7125
 20
127.36875
 11
18.7125
 21
127.9125
  0
LINE
  5
6C
100
AcDbEntity
  8
0
  6
CONTINUOUS
 62
    7
370
   25
100
AcDbLine
 10
29.2125
 20
129.9125
 11
20.7125
 21
129.9125
  0
LINE
  5
6D
100
AcDbEntity
  8
0
  6
CONTINUOUS
 62
    7
370
   25
100
AcDbLine
 10
31.2125
 20
127.9125
 11
31.2125
 21
127.325
  0
LINE
  5
6E
100
AcDbEntity
  8
0
  6
CONTINUOUS
 62
    7
370
   25
100
AcDbLine
 10
33.7125
 20
124.825
 11
78.71250000000001
 21
124.825
  0
LINE
  5
6F
100
AcDbEntity
  8
0
  6
CONTINUOUS
 62
    7
370
   25
100
AcDbLine
 10
81.21250000000001
 20
127.325
 11
81.21250000000001
 21
127.9125
  0
LINE
  5
70
100
AcDbEntity
  8
0
  6
CONTINUOUS
 62
    7
370
   25
100
AcDbLine
 10
91.71250000000001
 20
129.9125
 11
83.21250000000001
 21
129.9125
  0
LINE
  5
71
100
AcDbEntity
  8
0
  6
CONTINUOUS
 62
    7
370
   25
100
AcDbLine
 10
93.71250000000001
 20
127.9125
 11
93.71250000000001
 21
127.36875
  0
LINE
  5
72
100
AcDbEntity
  8
0
  6
CONTINUOUS
 62
    7
370
   25
100
AcDbLine
 10
98.71250000000001
 20
127.36875
 11
98.71250000000001
 21
127.9125
  0
LINE
  5
73
100
AcDbEntity
  8
0
  6
CONTINUOUS
 62
    7
370
   25
100
AcDbLine
 10
109.2125
 20
129.9125
 11
100.7125
 21
129.9125
  0
LINE
  5
74
100
AcDbEntity
  8
0
  6
CONTINUOUS
 62
    7
370
   25
100
AcDbLine
 10
111.2125
 20
127.9125
 11
111.2125
 21
127.325
  0
LINE
  5
75
100
AcDbEntity
  8
0
  6
CONTINUOUS
 62
    7
370
   25
100
AcDbLine
 10
113.7125
 20
124.825
 11
238.7125
 21
124.825
  0
LINE
  5
76
100
AcDbEntity
  8
0
  6
CONTINUOUS
 62
    7
370
   25
100
AcDbLine
 10
241.2125
 20
127.325
 11
241.2125
 21
127.9125
  0
LINE
  5
77
100
AcDbEntity
  8
0
  6
CONTINUOUS
 62
    7
370
   25
100
AcDbLine
 10
251.7125
 20
129.9125
 11
243.2125
 21
129.9125
  0
LINE
  5
78
100
AcDbEntity
  8
0
  6
CONTINUOUS
 62
    7
370
   25
100
AcDbLine
 10
253.7125
 20
127.9125
 11
253.7125
 21
127.36875
  0
LINE
  5
79
100
AcDbEntity
  8
0
  6
CONTINUOUS
 62
    7
370
   25
100
AcDbLine
 10
258.7125
 20
127.36875
 11
258.7125
 21
127.9125
  0
LINE
  5
7A
100
AcDbEntity
  8
0
  6
CONTINUOUS
 62
    7
370
   25
100
AcDbLine
 10
269.2125
 20
129.9125
 11
260.7125
 21
129.9125
  0
LINE
  5
7B
100
AcDbEntity
  8
0
  6
CONTINUOUS
 62
    7
370
   25
100
AcDbLine
 10
271.2125
 20
127.9125
 11
271.2125
 21
127.325
  0
LINE
  5
7C
100
AcDbEntity
  8
0
  6
CONTINUOUS
 62
    7
370
   25
100
AcDbLine
 10
273.7125
 20
124.825
 11
318.7125
 21
124.825
  0
LINE
  5
7D
100
AcDbEntity
  8
0
  6
CONTINUOUS
 62
    7
370
   25
100
AcDbLine
 10
321.2125
 20
127.325
 11
321.2125
 21
127.9125
  0
LINE
  5
7E
100
AcDbEntity
  8
0
  6
CONTINUOUS
 62
    7
370
   25
100
AcDbLine
 10
331.7125
 20
129.9125
 11
323.2125
 21
129.9125
  0
LINE
  5
7F
100
AcDbEntity
  8
0
  6
CONTINUOUS
 62
    7
370
   25
100
AcDbLine
 10
333.7125
 20
127.9125
 11
333.7125
 21
127.36875
  0
LINE
  5
80
100
AcDbEntity
  8
0
  6
CONTINUOUS
 62
    7
370
   25
100
AcDbLine
 10
338.7125
 20
127.36875
 11
338.7125
 21
127.9125
  0
LINE
  5
81
100
AcDbEntity
  8
0
  6
CONTINUOUS
 62
    7
370
   25
100
AcDbLine
 10
352.5125
 20
129.9125
 11
340.7125
 21
129.9125
  0
LINE
  5
82
100
AcDbEntity
  8
0
  6
CONTINUOUS
 62
    7
370
   25
100
AcDbLine
 10
358.5125
 20
108.4125
 11
358.5125
 21
123.9125
  0
LINE
  5
83
100
AcDbEntity
  8
0
  6
CONTINUOUS
 62
    7
370
   25
100
AcDbLine
 10
356.5125
 20
106.4125
 11
355.96875
 21
106.4125
  0
LINE
  5
84
100
AcDbEntity
  8
0
  6
CONTINUOUS
 62
    7
370
   25
100
AcDbLine
 10
353.46875
 20
103.9125
 11
353.46875
 21
86.8781564587
  0
LINE
  5
85
100
AcDbEntity
  8
0
  6
CONTINUOUS
 62
    7
370
   25
100
AcDbLine
 10
353.425
 20
86.41249999999999
 11
353.425
 21
37.4125
  0
LINE
  5
86
100
AcDbEntity
  8
0
  6
CONTINUOUS
 62
    7
370
   25
100
AcDbLine
 10
353.46875
 20
36.9468435413
 11
353.46875
 21
19.9125
  0
LINE
  5
87
100
AcDbEntity
  8
0
  6
CONTINUOUS
 62
    7
370
   25
100
AcDbLine
 10
355.96875
 20
17.4125
 11
356.5125
 21
17.4125
  0
LINE
  5
88
100
AcDbEntity
  8
0
  6
CONTINUOUS
 62
    7
370
   25
100
AcDbLine
 10
358.5125
 20
-0.08749999999999999
 11
358.5125
 21
15.4125
  0
LINE
  5
89
100
AcDbEntity
  8
0
  6
CONTINUOUS
 62
    7
370
   25
100
AcDbLine
 10
340.7125
 20
-6.0875
 11
352.5125
 21
-6.0875
  0
LINE
  5
8A
100
AcDbEntity
  8
0
  6
CONTINUOUS
 62
    7
370
   25
100
AcDbLine
 10
338.7125
 20
-4.0875
 11
338.7125
 21
-3.54375
  0
LINE
  5
8B
100
AcDbEntity
  8
0
  6
CONTINUOUS
 62
    7
370
   25
100
AcDbLine
 10
333.7125
 20
-3.54375
 11
333.7125
 21
-4.0875
  0
LINE
  5
8C
100
AcDbEntity
  8
0
  6
CONTINUOUS
 62
    7
370
   25
100
AcDbLine
 10
323.2125
 20
-6.0875
 11
331.7125
 21
-6.0875
  0
LINE
  5
8D
100
AcDbEntity
  8
0
  6
CONTINUOUS
 62
    7
370
   25
100
AcDbLine
 10
321.2125
 20
-4.0875
 11
321.2125
 21
-3.5
  0
LINE
  5
8E
100
AcDbEntity
  8
0
  6
CONTINUOUS
 62
    7
370
   25
100
AcDbLine
 10
318.7125
 20
-1
 11
273.7125
 21
-1
  0
LINE
  5
8F
100
AcDbEntity
  8
0
  6
CONTINUOUS
 62
    7
370
   25
100
AcDbLine
 10
271.2125
 20
-3.5
 11
271.2125
 21
-4.0875
  0
LINE
  5
90
100
AcDbEntity
  8
0
  6
CONTINUOUS
 62
    7
370
   25
100
AcDbLine
 10
260.7125
 20
-6.0875
 11
269.2125
 21
-6.0875
  0
LINE
  5
91
100
AcDbEntity
  8
0
  6
CONTINUOUS
 62
    7
370
   25
100
AcDbLine
 10
258.7125
 20
-4.0875
 11
258.7125
 21
-3.54375
  0
LINE
  5
92
100
AcDbEntity
  8
0
  6
CONTINUOUS
 62
    7
370
   25
100
AcDbLine
 10
253.7125
 20
-3.54375
 11
253.7125
 21
-4.0875
  0
LINE
  5
93
100
AcDbEntity
  8
0
  6
CONTINUOUS
 62
    7
370
   25
100
AcDbLine
 10
243.2125
 20
-6.0875
 11
251.7125
 21
-6.0875
  0
LINE
  5
94
100
AcDbEntity
  8
0
  6
CONTINUOUS
 62
    7
370
   25
100
AcDbLine
 10
241.2125
 20
-4.0875
 11
241.2125
 21
-3.5
  0
LINE
  5
95
100
AcDbEntity
  8
0
  6
CONTINUOUS
 62
    7
370
   25
100
AcDbLine
 10
238.7125
 20
-1
 11
113.7125
 21
-1
  0
LINE
  5
96
100
AcDbEntity
  8
0
  6
CONTINUOUS
 62
    7
370
   25
100
AcDbLine
 10
111.2125
 20
-3.5
 11
111.2125
 21
-4.0875
  0
LINE
  5
97
100
AcDbEntity
  8
0
  6
CONTINUOUS
 62
    7
370
   25
100
AcDbLine
 10
100.7125
 20
-6.0875
 11
109.2125
 21
-6.0875
  0
LINE
  5
98
100
AcDbEntity
  8
0
  6
CONTINUOUS
 62
    7
370
   25
100
AcDbLine
 10
98.71250000000001
 20
-4.0875
 11
98.71250000000001
 21
-3.54375
  0
LINE
  5
99
100
AcDbEntity
  8
0
  6
CONTINUOUS
 62
    7
370
   25
100
AcDbLine
 10
93.71250000000001
 20
-3.54375
 11
93.71250000000001
 21
-4.0875
  0
LINE
  5
9A
100
AcDbEntity
  8
0
  6
CONTINUOUS
 62
    7
370
   25
100
AcDbLine
 10
83.21250000000001
 20
-6.0875
 11
91.71250000000001
 21
-6.0875
  0
LINE
  5
9B
100
AcDbEntity
  8
0
  6
CONTINUOUS
 62
    7
370
   25
100
AcDbLine
 10
81.21250000000001
 20
-4.0875
 11
81.21250000000001
 21
-3.5
  0
LINE
  5
9C
100
AcDbEntity
  8
0
  6
CONTINUOUS
 62
    7
370
   25
100
AcDbLine
 10
78.71250000000001
 20
-1
 11
33.7125
 21
-1
  0
LINE
  5
9D
100
AcDbEntity
  8
0
  6
CONTINUOUS
 62
    7
370
   25
100
AcDbLine
 10
31.2125
 20
-3.5
 11
31.2125
 21
-4.0875
  0
LINE
  5
9E
100
AcDbEntity
  8
0
  6
CONTINUOUS
 62
    7
370
   25
100
AcDbLine
 10
20.7125
 20
-6.0875
 11
29.2125
 21
-6.0875
  0
LINE
  5
9F
100
AcDbEntity
  8
0
  6
CONTINUOUS
 62
    7
370
   25
100
AcDbLine
 10
18.7125
 20
-4.0875
 11
18.7125
 21
-3.54375
  0
LINE
  5
A0
100
AcDbEntity
  8
0
  6
CONTINUOUS
 62
    7
370
   25
100
AcDbLine
 10
13.7125
 20
-3.54375
 11
13.7125
 21
-4.0875
  0
LINE
  5
A1
100
AcDbEntity
  8
0
  6
CONTINUOUS
 62
    7
370
   25
100
AcDbLine
 10
-0.08749999999999999
 20
-6.0875
 11
11.7125
 21
-6.0875
  0
LINE
  5
A2
100
AcDbEntity
  8
0
  6
CONTINUOUS
 62
    7
370
   25
100
AcDbLine
 10
-6.0875
 20
15.4125
 11
-6.0875
 21
-0.08749999999999999
  0
LINE
  5
A3
100
AcDbEntity
  8
0
  6
CONTINUOUS
 62
    7
370
   25
100
AcDbLine
 10
-4.0875
 20
17.4125
 11
-3.54375
 21
17.4125
  0
LINE
  5
A4
100
AcDbEntity
  8
0
  6
CONTINUOUS
 62
    7
370
   25
100
AcDbLine
 10
-1.04375
 20
19.9125
 11
-1.04375
 21
36.9468435413
  0
LINE
  5
A5
100
AcDbEntity
  8
0
  6
CONTINUOUS
 62
    7
370
   25
100
AcDbLine
 10
16.025
 20
92.72499999999999
 11
3.025
 21
92.72499999999999
  0
LINE
  5
A6
100
AcDbEntity
  8
0
  6
CONTINUOUS
 62
    7
370
   25
100
AcDbLine
 10
2.525
 20
92.22499999999999
 11
2.525
 21
79.22499999999999
  0
LINE
  5
A7
100
AcDbEntity
  8
0
  6
CONTINUOUS
 62
    7
370
   25
100
AcDbLine
 10
3.025
 20
78.72499999999999
 11
16.025
 21
78.72499999999999
  0
LINE
  5
A8
100
AcDbEntity
  8
0
  6
CONTINUOUS
 62
    7
370
   25
100
AcDbLine
 10
16.525
 20
79.22499999999999
 11
16.525
 21
92.22499999999999
  0
LINE
  5
A9
100
AcDbEntity
  8
0
  6
CONTINUOUS
 62
    7
370
   25
100
AcDbLine
 10
23.16875
 20
54.625
 11
10.16875
 21
54.625
  0
LINE
  5
AA
100
AcDbEntity
  8
0
  6
CONTINUOUS
 62
    7
370
   25
100
AcDbLine
 10
9.668749999999999
 20
54.125
 11
9.668749999999999
 21
41.125
  0
LINE
  5
AB
100
AcDbEntity
  8
0
  6
CONTINUOUS
 62
    7
370
   25
100
AcDbLine
 10
10.16875
 20
40.625
 11
23.16875
 21
40.625
  0
LINE
  5
AC
100
AcDbEntity
  8
0
  6
CONTINUOUS
 62
    7
370
   25
100
AcDbLine
 10
23.66875
 20
41.125
 11
23.66875
 21
54.125
  0
LINE
  5
AD
100
AcDbEntity
  8
0
  6
CONTINUOUS
 62
    7
370
   25
100
AcDbLine
 10
101.75
 20
73.675
 11
88.75
 21
73.675
  0
LINE
  5
AE
100
AcDbEntity
  8
0
  6
CONTINUOUS
 62
    7
370
   25
100
AcDbLine
 10
88.25
 20
73.175
 11
88.25
 21
60.175
  0
LINE
  5
AF
100
AcDbEntity
  8
0
  6
CONTINUOUS
 62
    7
370
   25
100
AcDbLine
 10
88.75
 20
59.675
 11
101.75
 21
59.675
  0
LINE
  5
B0
100
AcDbEntity
  8
0
  6
CONTINUOUS
 62
    7
370
   25
100
AcDbLine
 10
102.25
 20
60.175
 11
102.25
 21
73.175
  0
LINE
  5
B1
100
AcDbEntity
  8
0
  6
CONTINUOUS
 62
    7
370
   25
100
AcDbLine
 10
220.8125
 20
54.625
 11
207.8125
 21
54.625
  0
LINE
  5
B2
100
AcDbEntity
  8
0
  6
CONTINUOUS
 62
    7
370
   25
100
AcDbLine
 10
207.3125
 20
54.125
 11
207.3125
 21
41.125
  0
LINE
  5
B3
100
AcDbEntity
  8
0
  6
CONTINUOUS
 62
    7
370
   25
100
AcDbLine
 10
207.8125
 20
40.625
 11
220.8125
 21
40.625
  0
LINE
  5
B4
100
AcDbEntity
  8
0
  6
CONTINUOUS
 62
    7
370
   25
100
AcDbLine
 10
221.3125
 20
41.125
 11
221.3125
 21
54.125
  0
LINE
  5
B5
100
AcDbEntity
  8
0
  6
CONTINUOUS
 62
    7
370
   25
100
AcDbLine
 10
120.8
 20
73.675
 11
107.8
 21
73.675
  0
LINE
  5
B6
100
AcDbEntity
  8
0
  6
CONTINUOUS
 62
    7
370
   25
100
AcDbLine
 10
107.3
 20
73.175
 11
107.3
 21
60.175
  0
LINE
  5
B7
100
AcDbEntity
  8
0
  6
CONTINUOUS
 62
    7
370
   25
100
AcDbLine
 10
107.8
 20
59.675
 11
120.8
 21
59.675
  0
LINE
  5
B8
100
AcDbEntity
  8
0
  6
CONTINUOUS
 62
    7
370
   25
100
AcDbLine
 10
121.3
 20
60.175
 11
121.3
 21
73.175
  0
LINE
  5
B9
100
AcDbEntity
  8
0
  6
CONTINUOUS
 62
    7
370
   25
100
AcDbLine
 10
239.8625
 20
54.625
 11
226.8625
 21
54.625
  0
LINE
  5
BA
100
AcDbEntity
  8
0
  6
CONTINUOUS
 62
    7
370
   25
100
AcDbLine
 10
226.3625
 20
54.125
 11
226.3625
 21
41.125
  0
LINE
  5
BB
100
AcDbEntity
  8
0
  6
CONTINUOUS
 62
    7
370
   25
100
AcDbLine
 10
226.8625
 20
40.625
 11
239.8625
 21
40.625
  0
LINE
  5
BC
100
AcDbEntity
  8
0
  6
CONTINUOUS
 62
    7
370
   25
100
AcDbLine
 10
240.3625
 20
41.125
 11
240.3625
 21
54.125
  0
LINE
  5
BD
100
AcDbEntity
  8
0
  6
CONTINUOUS
 62
    7
370
   25
100
AcDbLine
 10
139.85
 20
73.675
 11
126.85
 21
73.675
  0
LINE
  5
BE
100
AcDbEntity
  8
0
  6
CONTINUOUS
 62
    7
370
   25
100
AcDbLine
 10
126.35
 20
73.175
 11
126.35
 21
60.175
  0
LINE
  5
BF
100
AcDbEntity
  8
0
  6
CONTINUOUS
 62
    7
370
   25
100
AcDbLine
 10
126.85
 20
59.675
 11
139.85
 21
59.675
  0
LINE
  5
C0
100
AcDbEntity
  8
0
  6
CONTINUOUS
 62
    7
370
   25
100
AcDbLine
 10
140.35
 20
60.175
 11
140.35
 21
73.175
  0
LINE
  5
C1
100
AcDbEntity
  8
0
  6
CONTINUOUS
 62
    7
370
   25
100
AcDbLine
 10
163.6625
 20
54.625
 11
150.6625
 21
54.625
  0
LINE
  5
C2
100
AcDbEntity
  8
0
  6
CONTINUOUS
 62
    7
370
   25
100
AcDbLine
 10
150.1625
 20
54.125
 11
150.1625
 21
41.125
  0
LINE
  5
C3
100
AcDbEntity
  8
0
  6
CONTINUOUS
 62
    7
370
   25
100
AcDbLine
 10
150.6625
 20
40.625
 11
163.6625
 21
40.625
  0
LINE
  5
C4
100
AcDbEntity
  8
0
  6
CONTINUOUS
 62
    7
370
   25
100
AcDbLine
 10
164.1625
 20
41.125
 11
164.1625
 21
54.125
  0
LINE
  5
C5
100
AcDbEntity
  8
0
  6
CONTINUOUS
 62
    7
370
   25
100
AcDbLine
 10
63.65
 20
73.675
 11
50.65
 21
73.675
  0
LINE
  5
C6
100
AcDbEntity
  8
0
  6
CONTINUOUS
 62
    7
370
   25
100
AcDbLine
 10
50.15
 20
73.175
 11
50.15
 21
60.175
  0
LINE
  5
C7
100
AcDbEntity
  8
0
  6
CONTINUOUS
 62
    7
370
   25
100
AcDbLine
 10
50.65
 20
59.675
 11
63.65
 21
59.675
  0
LINE
  5
C8
100
AcDbEntity
  8
0
  6
CONTINUOUS
 62
    7
370
   25
100
AcDbLine
 10
64.15000000000001
 20
60.175
 11
64.15000000000001
 21
73.175
  0
LINE
  5
C9
100
AcDbEntity
  8
0
  6
CONTINUOUS
 62
    7
370
   25
100
AcDbLine
 10
201.7625
 20
54.625
 11
188.7625
 21
54.625
  0
LINE
  5
CA
100
AcDbEntity
  8
0
  6
CONTINUOUS
 62
    7
370
   25
100
AcDbLine
 10
188.2625
 20
54.125
 11
188.2625
 21
41.125
  0
LINE
  5
CB
100
AcDbEntity
  8
0
  6
CONTINUOUS
 62
    7
370
   25
100
AcDbLine
 10
188.7625
 20
40.625
 11
201.7625
 21
40.625
  0
LINE
  5
CC
100
AcDbEntity
  8
0
  6
CONTINUOUS
 62
    7
370
   25
100
AcDbLine
 10
202.2625
 20
41.125
 11
202.2625
 21
54.125
  0
LINE
  5
CD
100
AcDbEntity
  8
0
  6
CONTINUOUS
 62
    7
370
   25
100
AcDbLine
 10
82.7
 20
73.675
 11
69.7
 21
73.675
  0
LINE
  5
CE
100
AcDbEntity
  8
0
  6
CONTINUOUS
 62
    7
370
   25
100
AcDbLine
 10
69.2
 20
73.175
 11
69.2
 21
60.175
  0
LINE
  5
CF
100
AcDbEntity
  8
0
  6
CONTINUOUS
 62
    7
370
   25
100
AcDbLine
 10
69.7
 20
59.675
 11
82.7
 21
59.675
  0
LINE
  5
D0
100
AcDbEntity
  8
0
  6
CONTINUOUS
 62
    7
370
   25
100
AcDbLine
 10
83.2
 20
60.175
 11
83.2
 21
73.175
  0
LINE
  5
D1
100
AcDbEntity
  8
0
  6
CONTINUOUS
 62
    7
370
   25
100
AcDbLine
 10
182.7125
 20
54.625
 11
169.7125
 21
54.625
  0
LINE
  5
D2
100
AcDbEntity
  8
0
  6
CONTINUOUS
 62
    7
370
   25
100
AcDbLine
 10
169.2125
 20
54.125
 11
169.2125
 21
41.125
  0
LINE
  5
D3
100
AcDbEntity
  8
0
  6
CONTINUOUS
 62
    7
370
   25
100
AcDbLine
 10
169.7125
 20
40.625
 11
182.7125
 21
40.625
  0
LINE
  5
D4
100
AcDbEntity
  8
0
  6
CONTINUOUS
 62
    7
370
   25
100
AcDbLine
 10
183.2125
 20
41.125
 11
183.2125
 21
54.125
  0
LINE
  5
D5
100
AcDbEntity
  8
0
  6
CONTINUOUS
 62
    7
370
   25
100
AcDbLine
 10
230.3375
 20
16.525
 11
217.3375
 21
16.525
  0
LINE
  5
D6
100
AcDbEntity
  8
0
  6
CONTINUOUS
 62
    7
370
   25
100
AcDbLine
 10
216.8375
 20
16.025
 11
216.8375
 21
3.025
  0
LINE
  5
D7
100
AcDbEntity
  8
0
  6
CONTINUOUS
 62
    7
370
   25
100
AcDbLine
 10
217.3375
 20
2.525
 11
230.3375
 21
2.525
  0
LINE
  5
D8
100
AcDbEntity
  8
0
  6
CONTINUOUS
 62
    7
370
   25
100
AcDbLine
 10
230.8375
 20
3.025
 11
230.8375
 21
16.025
  0
LINE
  5
D9
100
AcDbEntity
  8
0
  6
CONTINUOUS
 62
    7
370
   25
100
AcDbLine
 10
68.41249999999999
 20
16.525
 11
55.4125
 21
16.525
  0
LINE
  5
DA
100
AcDbEntity
  8
0
  6
CONTINUOUS
 62
    7
370
   25
100
AcDbLine
 10
54.9125
 20
16.025
 11
54.9125
 21
3.025
  0
LINE
  5
DB
100
AcDbEntity
  8
0
  6
CONTINUOUS
 62
    7
370
   25
100
AcDbLine
 10
55.4125
 20
2.525
 11
68.41249999999999
 21
2.525
  0
LINE
  5
DC
100
AcDbEntity
  8
0
  6
CONTINUOUS
 62
    7
370
   25
100
AcDbLine
 10
68.91249999999999
 20
3.025
 11
68.91249999999999
 21
16.025
  0
LINE
  5
DD
100
AcDbEntity
  8
0
  6
CONTINUOUS
 62
    7
370
   25
100
AcDbLine
 10
44.6
 20
16.525
 11
31.6
 21
16.525
  0
LINE
  5
DE
100
AcDbEntity
  8
0
  6
CONTINUOUS
 62
    7
370
   25
100
AcDbLine
 10
31.1
 20
16.025
 11
31.1
 21
3.025
  0
LINE
  5
DF
100
AcDbEntity
  8
0
  6
CONTINUOUS
 62
    7
370
   25
100
AcDbLine
 10
31.6
 20
2.525
 11
44.6
 21
2.525
  0
LINE
  5
E0
100
AcDbEntity
  8
0
  6
CONTINUOUS
 62
    7
370
   25
100
AcDbLine
 10
45.1
 20
3.025
 11
45.1
 21
16.025
  0
LINE
  5
E1
100
AcDbEntity
  8
0
  6
CONTINUOUS
 62
    7
370
   25
100
AcDbLine
 10
254.15
 20
73.675
 11
241.15
 21
73.675
  0
LINE
  5
E2
100
AcDbEntity
  8
0
  6
CONTINUOUS
 62
    7
370
   25
100
AcDbLine
 10
240.65
 20
73.175
 11
240.65
 21
60.175
  0
LINE
  5
E3
100
AcDbEntity
  8
0
  6
CONTINUOUS
 62
    7
370
   25
100
AcDbLine
 10
241.15
 20
59.675
 11
254.15
 21
59.675
  0
LINE
  5
E4
100
AcDbEntity
  8
0
  6
CONTINUOUS
 62
    7
370
   25
100
AcDbLine
 10
254.65
 20
60.175
 11
254.65
 21
73.175
  0
LINE
  5
E5
100
AcDbEntity
  8
0
  6
CONTINUOUS
 62
    7
370
   25
100
AcDbLine
 10
235.1
 20
73.675
 11
222.1
 21
73.675
  0
LINE
  5
E6
100
AcDbEntity
  8
0
  6
CONTINUOUS
 62
    7
370
   25
100
AcDbLine
 10
221.6
 20
73.175
 11
221.6
 21
60.175
  0
LINE
  5
E7
100
AcDbEntity
  8
0
  6
CONTINUOUS
 62
    7
370
   25
100
AcDbLine
 10
222.1
 20
59.675
 11
235.1
 21
59.675
  0
LINE
  5
E8
100
AcDbEntity
  8
0
  6
CONTINUOUS
 62
    7
370
   25
100
AcDbLine
 10
235.6
 20
60.175
 11
235.6
 21
73.175
  0
LINE
  5
E9
100
AcDbEntity
  8
0
  6
CONTINUOUS
 62
    7
370
   25
100
AcDbLine
 10
158.9
 20
73.675
 11
145.9
 21
73.675
  0
LINE
  5
EA
100
AcDbEntity
  8
0
  6
CONTINUOUS
 62
    7
370
   25
100
AcDbLine
 10
145.4
 20
73.175
 11
145.4
 21
60.175
  0
LINE
  5
EB
100
AcDbEntity
  8
0
  6
CONTINUOUS
 62
    7
370
   25
100
AcDbLine
 10
145.9
 20
59.675
 11
158.9
 21
59.675
  0
LINE
  5
EC
100
AcDbEntity
  8
0
  6
CONTINUOUS
 62
    7
370
   25
100
AcDbLine
 10
159.4
 20
60.175
 11
159.4
 21
73.175
  0
LINE
  5
ED
100
AcDbEntity
  8
0
  6
CONTINUOUS
 62
    7
370
   25
100
AcDbLine
 10
177.95
 20
73.675
 11
164.95
 21
73.675
  0
LINE
  5
EE
100
AcDbEntity
  8
0
  6
CONTINUOUS
 62
    7
370
   25
100
AcDbLine
 10
164.45
 20
73.175
 11
164.45
 21
60.175
  0
LINE
  5
EF
100
AcDbEntity
  8
0
  6
CONTINUOUS
 62
    7
370
   25
100
AcDbLine
 10
164.95
 20
59.675
 11
177.95
 21
59.675
  0
LINE
  5
F0
100
AcDbEntity
  8
0
  6
CONTINUOUS
 62
    7
370
   25
100
AcDbLine
 10
178.45
 20
60.175
 11
178.45
 21
73.175
  0
LINE
  5
F1
100
AcDbEntity
  8
0
  6
CONTINUOUS
 62
    7
370
   25
100
AcDbLine
 10
149.375
 20
16.525
 11
136.375
 21
16.525
  0
LINE
  5
F2
100
AcDbEntity
  8
0
  6
CONTINUOUS
 62
    7
370
   25
100
AcDbLine
 10
135.875
 20
16.025
 11
135.875
 21
3.025
  0
LINE
  5
F3
100
AcDbEntity
  8
0
  6
CONTINUOUS
 62
    7
370
   25
100
AcDbLine
 10
136.375
 20
2.525
 11
149.375
 21
2.525
  0
LINE
  5
F4
100
AcDbEntity
  8
0
  6
CONTINUOUS
 62
    7
370
   25
100
AcDbLine
 10
149.875
 20
3.025
 11
149.875
 21
16.025
  0
LINE
  5
F5
100
AcDbEntity
  8
0
  6
CONTINUOUS
 62
    7
370
   25
100
AcDbLine
 10
197
 20
73.675
 11
184
 21
73.675
  0
LINE
  5
F6
100
AcDbEntity
  8
0
  6
CONTINUOUS
 62
    7
370
   25
100
AcDbLine
 10
183.5
 20
73.175
 11
183.5
 21
60.175
  0
LINE
  5
F7
100
AcDbEntity
  8
0
  6
CONTINUOUS
 62
    7
370
   25
100
AcDbLine
 10
184
 20
59.675
 11
197
 21
59.675
  0
LINE
  5
F8
100
AcDbEntity
  8
0
  6
CONTINUOUS
 62
    7
370
   25
100
AcDbLine
 10
197.5
 20
60.175
 11
197.5
 21
73.175
  0
LINE
  5
F9
100
AcDbEntity
  8
0
  6
CONTINUOUS
 62
    7
370
   25
100
AcDbLine
 10
216.05
 20
73.675
 11
203.05
 21
73.675
  0
LINE
  5
FA
100
AcDbEntity
  8
0
  6
CONTINUOUS
 62
    7
370
   25
100
AcDbLine
 10
202.55
 20
73.175
 11
202.55
 21
60.175
  0
LINE
  5
FB
100
AcDbEntity
  8
0
  6
CONTINUOUS
 62
    7
370
   25
100
AcDbLine
 10
203.05
 20
59.675
 11
216.05
 21
59.675
  0
LINE
  5
FC
100
AcDbEntity
  8
0
  6
CONTINUOUS
 62
    7
370
   25
100
AcDbLine
 10
216.55
 20
60.175
 11
216.55
 21
73.175
  0
LINE
  5
FD
100
AcDbEntity
  8
0
  6
CONTINUOUS
 62
    7
370
   25
100
AcDbLine
 10
20.7875
 20
73.675
 11
7.7875
 21
73.675
  0
LINE
  5
FE
100
AcDbEntity
  8
0
  6
CONTINUOUS
 62
    7
370
   25
100
AcDbLine
 10
7.2875
 20
73.175
 11
7.2875
 21
60.175
  0
LINE
  5
FF
100
AcDbEntity
  8
0
  6
CONTINUOUS
 62
    7
370
   25
100
AcDbLine
 10
7.7875
 20
59.675
 11
20.7875
 21
59.675
  0
LINE
  5
100
100
AcDbEntity
  8
0
  6
CONTINUOUS
 62
    7
370
   25
100
AcDbLine
 10
21.2875
 20
60.175
 11
21.2875
 21
73.175
  0
LINE
  5
101
100
AcDbEntity
  8
0
  6
CONTINUOUS
 62
    7
370
   25
100
AcDbLine
 10
35.075
 20
92.72499999999999
 11
22.075
 21
92.72499999999999
  0
LINE
  5
102
100
AcDbEntity
  8
0
  6
CONTINUOUS
 62
    7
370
   25
100
AcDbLine
 10
21.575
 20
92.22499999999999
 11
21.575
 21
79.22499999999999
  0
LINE
  5
103
100
AcDbEntity
  8
0
  6
CONTINUOUS
 62
    7
370
   25
100
AcDbLine
 10
22.075
 20
78.72499999999999
 11
35.075
 21
78.72499999999999
  0
LINE
  5
104
100
AcDbEntity
  8
0
  6
CONTINUOUS
 62
    7
370
   25
100
AcDbLine
 10
35.575
 20
79.22499999999999
 11
35.575
 21
92.22499999999999
  0
LINE
  5
105
100
AcDbEntity
  8
0
  6
CONTINUOUS
 62
    7
370
   25
100
AcDbLine
 10
54.125
 20
92.72499999999999
 11
41.125
 21
92.72499999999999
  0
LINE
  5
106
100
AcDbEntity
  8
0
  6
CONTINUOUS
 62
    7
370
   25
100
AcDbLine
 10
40.625
 20
92.22499999999999
 11
40.625
 21
79.22499999999999
  0
LINE
  5
107
100
AcDbEntity
  8
0
  6
CONTINUOUS
 62
    7
370
   25
100
AcDbLine
 10
41.125
 20
78.72499999999999
 11
54.125
 21
78.72499999999999
  0
LINE
  5
108
100
AcDbEntity
  8
0
  6
CONTINUOUS
 62
    7
370
   25
100
AcDbLine
 10
54.625
 20
79.22499999999999
 11
54.625
 21
92.22499999999999
  0
LINE
  5
109
100
AcDbEntity
  8
0
  6
CONTINUOUS
 62
    7
370
   25
100
AcDbLine
 10
73.175
 20
92.72499999999999
 11
60.175
 21
92.72499999999999
  0
LINE
  5
10A
100
AcDbEntity
  8
0
  6
CONTINUOUS
 62
    7
370
   25
100
AcDbLine
 10
59.675
 20
92.22499999999999
 11
59.675
 21
79.22499999999999
  0
LINE
  5
10B
100
AcDbEntity
  8
0
  6
CONTINUOUS
 62
    7
370
   25
100
AcDbLine
 10
60.175
 20
78.72499999999999
 11
73.175
 21
78.72499999999999
  0
LINE
  5
10C
100
AcDbEntity
  8
0
  6
CONTINUOUS
 62
    7
370
   25
100
AcDbLine
 10
73.675
 20
79.22499999999999
 11
73.675
 21
92.22499999999999
  0
LINE
  5
10D
100
AcDbEntity
  8
0
  6
CONTINUOUS
 62
    7
370
   25
100
AcDbLine
 10
92.22499999999999
 20
92.72499999999999
 11
79.22499999999999
 21
92.72499999999999
  0
LINE
  5
10E
100
AcDbEntity
  8
0
  6
CONTINUOUS
 62
    7
370
   25
100
AcDbLine
 10
78.72499999999999
 20
92.22499999999999
 11
78.72499999999999
 21
79.22499999999999
  0
LINE
  5
10F
100
AcDbEntity
  8
0
  6
CONTINUOUS
 62
    7
370
   25
100
AcDbLine
 10
79.22499999999999
 20
78.72499999999999
 11
92.22499999999999
 21
78.72499999999999
  0
LINE
  5
110
100
AcDbEntity
  8
0
  6
CONTINUOUS
 62
    7
370
   25
100
AcDbLine
 10
92.72499999999999
 20
79.22499999999999
 11
92.72499999999999
 21
92.22499999999999
  0
LINE
  5
111
100
AcDbEntity
  8
0
  6
CONTINUOUS
 62
    7
370
   25
100
AcDbLine
 10
111.275
 20
92.72499999999999
 11
98.27500000000001
 21
92.72499999999999
  0
LINE
  5
112
100
AcDbEntity
  8
0
  6
CONTINUOUS
 62
    7
370
   25
100
AcDbLine
 10
97.77500000000001
 20
92.22499999999999
 11
97.77500000000001
 21
79.22499999999999
  0
LINE
  5
113
100
AcDbEntity
  8
0
  6
CONTINUOUS
 62
    7
370
   25
100
AcDbLine
 10
98.27500000000001
 20
78.72499999999999
 11
111.275
 21
78.72499999999999
  0
LINE
  5
114
100
AcDbEntity
  8
0
  6
CONTINUOUS
 62
    7
370
   25
100
AcDbLine
 10
111.775
 20
79.22499999999999
 11
111.775
 21
92.22499999999999
  0
LINE
  5
115
100
AcDbEntity
  8
0
  6
CONTINUOUS
 62
    7
370
   25
100
AcDbLine
 10
130.325
 20
92.72499999999999
 11
117.325
 21
92.72499999999999
  0
LINE
  5
116
100
AcDbEntity
  8
0
  6
CONTINUOUS
 62
    7
370
   25
100
AcDbLine
 10
116.825
 20
92.22499999999999
 11
116.825
 21
79.22499999999999
  0
LINE
  5
117
100
AcDbEntity
  8
0
  6
CONTINUOUS
 62
    7
370
   25
100
AcDbLine
 10
117.325
 20
78.72499999999999
 11
130.325
 21
78.72499999999999
  0
LINE
  5
118
100
AcDbEntity
  8
0
  6
CONTINUOUS
 62
    7
370
   25
100
AcDbLine
 10
130.825
 20
79.22499999999999
 11
130.825
 21
92.22499999999999
  0
LINE
  5
119
100
AcDbEntity
  8
0
  6
CONTINUOUS
 62
    7
370
   25
100
AcDbLine
 10
230.3375
 20
35.575
 11
217.3375
 21
35.575
  0
LINE
  5
11A
100
AcDbEntity
  8
0
  6
CONTINUOUS
 62
    7
370
   25
100
AcDbLine
 10
216.8375
 20
35.075
 11
216.8375
 21
22.075
  0
LINE
  5
11B
100
AcDbEntity
  8
0
  6
CONTINUOUS
 62
    7
370
   25
100
AcDbLine
 10
217.3375
 20
21.575
 11
230.3375
 21
21.575
  0
LINE
  5
11C
100
AcDbEntity
  8
0
  6
CONTINUOUS
 62
    7
370
   25
100
AcDbLine
 10
230.8375
 20
22.075
 11
230.8375
 21
35.075
  0
LINE
  5
11D
100
AcDbEntity
  8
0
  6
CONTINUOUS
 62
    7
370
   25
100
AcDbLine
 10
149.375
 20
92.72499999999999
 11
136.375
 21
92.72499999999999
  0
LINE
  5
11E
100
AcDbEntity
  8
0
  6
CONTINUOUS
 62
    7
370
   25
100
AcDbLine
 10
135.875
 20
92.22499999999999
 11
135.875
 21
79.22499999999999
  0
LINE
  5
11F
100
AcDbEntity
  8
0
  6
CONTINUOUS
 62
    7
370
   25
100
AcDbLine
 10
136.375
 20
78.72499999999999
 11
149.375
 21
78.72499999999999
  0
LINE
  5
120
100
AcDbEntity
  8
0
  6
CONTINUOUS
 62
    7
370
   25
100
AcDbLine
 10
149.875
 20
79.22499999999999
 11
149.875
 21
92.22499999999999
  0
LINE
  5
121
100
AcDbEntity
  8
0
  6
CONTINUOUS
 62
    7
370
   25
100
AcDbLine
 10
87.46250000000001
 20
54.625
 11
74.46250000000001
 21
54.625
  0
LINE
  5
122
100
AcDbEntity
  8
0
  6
CONTINUOUS
 62
    7
370
   25
100
AcDbLine
 10
73.96250000000001
 20
54.125
 11
73.96250000000001
 21
41.125
  0
LINE
  5
123
100
AcDbEntity
  8
0
  6
CONTINUOUS
 62
    7
370
   25
100
AcDbLine
 10
74.46250000000001
 20
40.625
 11
87.46250000000001
 21
40.625
  0
LINE
  5
124
100
AcDbEntity
  8
0
  6
CONTINUOUS
 62
    7
370
   25
100
AcDbLine
 10
87.96250000000001
 20
41.125
 11
87.96250000000001
 21
54.125
  0
LINE
  5
125
100
AcDbEntity
  8
0
  6
CONTINUOUS
 62
    7
370
   25
100
AcDbLine
 10
244.625
 20
92.72499999999999
 11
231.625
 21
92.72499999999999
  0
LINE
  5
126
100
AcDbEntity
  8
0
  6
CONTINUOUS
 62
    7
370
   25
100
AcDbLine
 10
231.125
 20
92.22499999999999
 11
231.125
 21
79.22499999999999
  0
LINE
  5
127
100
AcDbEntity
  8
0
  6
CONTINUOUS
 62
    7
370
   25
100
AcDbLine
 10
231.625
 20
78.72499999999999
 11
244.625
 21
78.72499999999999
  0
LINE
  5
128
100
AcDbEntity
  8
0
  6
CONTINUOUS
 62
    7
370
   25
100
AcDbLine
 10
245.125
 20
79.22499999999999
 11
245.125
 21
92.22499999999999
  0
LINE
  5
129
100
AcDbEntity
  8
0
  6
CONTINUOUS
 62
    7
370
   25
100
AcDbLine
 10
106.5125
 20
54.625
 11
93.5125
 21
54.625
  0
LINE
  5
12A
100
AcDbEntity
  8
0
  6
CONTINUOUS
 62
    7
370
   25
100
AcDbLine
 10
93.0125
 20
54.125
 11
93.0125
 21
41.125
  0
LINE
  5
12B
100
AcDbEntity
  8
0
  6
CONTINUOUS
 62
    7
370
   25
100
AcDbLine
 10
93.5125
 20
40.625
 11
106.5125
 21
40.625
  0
LINE
  5
12C
100
AcDbEntity
  8
0
  6
CONTINUOUS
 62
    7
370
   25
100
AcDbLine
 10
107.0125
 20
41.125
 11
107.0125
 21
54.125
  0
LINE
  5
12D
100
AcDbEntity
  8
0
  6
CONTINUOUS
 62
    7
370
   25
100
AcDbLine
 10
44.6
 20
73.675
 11
31.6
 21
73.675
  0
LINE
  5
12E
100
AcDbEntity
  8
0
  6
CONTINUOUS
 62
    7
370
   25
100
AcDbLine
 10
31.1
 20
73.175
 11
31.1
 21
60.175
  0
LINE
  5
12F
100
AcDbEntity
  8
0
  6
CONTINUOUS
 62
    7
370
   25
100
AcDbLine
 10
31.6
 20
59.675
 11
44.6
 21
59.675
  0
LINE
  5
130
100
AcDbEntity
  8
0
  6
CONTINUOUS
 62
    7
370
   25
100
AcDbLine
 10
45.1
 20
60.175
 11
45.1
 21
73.175
  0
LINE
  5
131
100
AcDbEntity
  8
0
  6
CONTINUOUS
 62
    7
370
   25
100
AcDbLine
 10
144.6125
 20
54.625
 11
131.6125
 21
54.625
  0
LINE
  5
132
100
AcDbEntity
  8
0
  6
CONTINUOUS
 62
    7
370
   25
100
AcDbLine
 10
131.1125
 20
54.125
 11
131.1125
 21
41.125
  0
LINE
  5
133
100
AcDbEntity
  8
0
  6
CONTINUOUS
 62
    7
370
   25
100
AcDbLine
 10
131.6125
 20
40.625
 11
144.6125
 21
40.625
  0
LINE
  5
134
100
AcDbEntity
  8
0
  6
CONTINUOUS
 62
    7
370
   25
100
AcDbLine
 10
145.1125
 20
41.125
 11
145.1125
 21
54.125
  0
LINE
  5
135
100
AcDbEntity
  8
0
  6
CONTINUOUS
 62
    7
370
   25
100
AcDbLine
 10
125.5625
 20
54.625
 11
112.5625
 21
54.625
  0
LINE
  5
136
100
AcDbEntity
  8
0
  6
CONTINUOUS
 62
    7
370
   25
100
AcDbLine
 10
112.0625
 20
54.125
 11
112.0625
 21
41.125
  0
LINE
  5
137
100
AcDbEntity
  8
0
  6
CONTINUOUS
 62
    7
370
   25
100
AcDbLine
 10
112.5625
 20
40.625
 11
125.5625
 21
40.625
  0
LINE
  5
138
100
AcDbEntity
  8
0
  6
CONTINUOUS
 62
    7
370
   25
100
AcDbLine
 10
126.0625
 20
41.125
 11
126.0625
 21
54.125
  0
LINE
  5
139
100
AcDbEntity
  8
0
  6
CONTINUOUS
 62
    7
370
   25
100
AcDbLine
 10
168.425
 20
92.72499999999999
 11
155.425
 21
92.72499999999999
  0
LINE
  5
13A
100
AcDbEntity
  8
0
  6
CONTINUOUS
 62
    7
370
   25
100
AcDbLine
 10
154.925
 20
92.22499999999999
 11
154.925
 21
79.22499999999999
  0
LINE
  5
13B
100
AcDbEntity
  8
0
  6
CONTINUOUS
 62
    7
370
   25
100
AcDbLine
 10
155.425
 20
78.72499999999999
 11
168.425
 21
78.72499999999999
  0
LINE
  5
13C
100
AcDbEntity
  8
0
  6
CONTINUOUS
 62
    7
370
   25
100
AcDbLine
 10
168.925
 20
79.22499999999999
 11
168.925
 21
92.22499999999999
  0
LINE
  5
13D
100
AcDbEntity
  8
0
  6
CONTINUOUS
 62
    7
370
   25
100
AcDbLine
 10
187.475
 20
92.72499999999999
 11
174.475
 21
92.72499999999999
  0
LINE
  5
13E
100
AcDbEntity
  8
0
  6
CONTINUOUS
 62
    7
370
   25
100
AcDbLine
 10
173.975
 20
92.22499999999999
 11
173.975
 21
79.22499999999999
  0
LINE
  5
13F
100
AcDbEntity
  8
0
  6
CONTINUOUS
 62
    7
370
   25
100
AcDbLine
 10
174.475
 20
78.72499999999999
 11
187.475
 21
78.72499999999999
  0
LINE
  5
140
100
AcDbEntity
  8
0
  6
CONTINUOUS
 62
    7
370
   25
100
AcDbLine
 10
187.975
 20
79.22499999999999
 11
187.975
 21
92.22499999999999
  0
LINE
  5
141
100
AcDbEntity
  8
0
  6
CONTINUOUS
 62
    7
370
   25
100
AcDbLine
 10
225.575
 20
92.72499999999999
 11
212.575
 21
92.72499999999999
  0
LINE
  5
142
100
AcDbEntity
  8
0
  6
CONTINUOUS
 62
    7
370
   25
100
AcDbLine
 10
212.075
 20
92.22499999999999
 11
212.075
 21
79.22499999999999
  0
LINE
  5
143
100
AcDbEntity
  8
0
  6
CONTINUOUS
 62
    7
370
   25
100
AcDbLine
 10
212.575
 20
78.72499999999999
 11
225.575
 21
78.72499999999999
  0
LINE
  5
144
100
AcDbEntity
  8
0
  6
CONTINUOUS
 62
    7
370
   25
100
AcDbLine
 10
226.075
 20
79.22499999999999
 11
226.075
 21
92.22499999999999
  0
LINE
  5
145
100
AcDbEntity
  8
0
  6
CONTINUOUS
 62
    7
370
   25
100
AcDbLine
 10
68.41249999999999
 20
54.625
 11
55.4125
 21
54.625
  0
LINE
  5
146
100
AcDbEntity
  8
0
  6
CONTINUOUS
 62
    7
370
   25
100
AcDbLine
 10
54.9125
 20
54.125
 11
54.9125
 21
41.125
  0
LINE
  5
147
100
AcDbEntity
  8
0
  6
CONTINUOUS
 62
    7
370
   25
100
AcDbLine
 10
55.4125
 20
40.625
 11
68.41249999999999
 21
40.625
  0
LINE
  5
148
100
AcDbEntity
  8
0
  6
CONTINUOUS
 62
    7
370
   25
100
AcDbLine
 10
68.91249999999999
 20
41.125
 11
68.91249999999999
 21
54.125
  0
LINE
  5
149
100
AcDbEntity
  8
0
  6
CONTINUOUS
 62
    7
370
   25
100
AcDbLine
 10
206.525
 20
92.72499999999999
 11
193.525
 21
92.72499999999999
  0
LINE
  5
14A
100
AcDbEntity
  8
0
  6
CONTINUOUS
 62
    7
370
   25
100
AcDbLine
 10
193.025
 20
92.22499999999999
 11
193.025
 21
79.22499999999999
  0
LINE
  5
14B
100
AcDbEntity
  8
0
  6
CONTINUOUS
 62
    7
370
   25
100
AcDbLine
 10
193.525
 20
78.72499999999999
 11
206.525
 21
78.72499999999999
  0
LINE
  5
14C
100
AcDbEntity
  8
0
  6
CONTINUOUS
 62
    7
370
   25
100
AcDbLine
 10
207.025
 20
79.22499999999999
 11
207.025
 21
92.22499999999999
  0
LINE
  5
14D
100
AcDbEntity
  8
0
  6
CONTINUOUS
 62
    7
370
   25
100
AcDbLine
 10
349.4
 20
16.525
 11
336.4
 21
16.525
  0
LINE
  5
14E
100
AcDbEntity
  8
0
  6
CONTINUOUS
 62
    7
370
   25
100
AcDbLine
 10
335.9
 20
16.025
 11
335.9
 21
3.025
  0
LINE
  5
14F
100
AcDbEntity
  8
0
  6
CONTINUOUS
 62
    7
370
   25
100
AcDbLine
 10
336.4
 20
2.525
 11
349.4
 21
2.525
  0
LINE
  5
150
100
AcDbEntity
  8
0
  6
CONTINUOUS
 62
    7
370
   25
100
AcDbLine
 10
349.9
 20
3.025
 11
349.9
 21
16.025
  0
LINE
  5
151
100
AcDbEntity
  8
0
  6
CONTINUOUS
 62
    7
370
   25
100
AcDbLine
 10
58.8875
 20
35.575
 11
45.8875
 21
35.575
  0
LINE
  5
152
100
AcDbEntity
  8
0
  6
CONTINUOUS
 62
    7
370
   25
100
AcDbLine
 10
45.3875
 20
35.075
 11
45.3875
 21
22.075
  0
LINE
  5
153
100
AcDbEntity
  8
0
  6
CONTINUOUS
 62
    7
370
   25
100
AcDbLine
 10
45.8875
 20
21.575
 11
58.8875
 21
21.575
  0
LINE
  5
154
100
AcDbEntity
  8
0
  6
CONTINUOUS
 62
    7
370
   25
100
AcDbLine
 10
59.3875
 20
22.075
 11
59.3875
 21
35.075
  0
LINE
  5
155
100
AcDbEntity
  8
0
  6
CONTINUOUS
 62
    7
370
   25
100
AcDbLine
 10
330.35
 20
16.525
 11
317.35
 21
16.525
  0
LINE
  5
156
100
AcDbEntity
  8
0
  6
CONTINUOUS
 62
    7
370
   25
100
AcDbLine
 10
316.85
 20
16.025
 11
316.85
 21
3.025
  0
LINE
  5
157
100
AcDbEntity
  8
0
  6
CONTINUOUS
 62
    7
370
   25
100
AcDbLine
 10
317.35
 20
2.525
 11
330.35
 21
2.525
  0
LINE
  5
158
100
AcDbEntity
  8
0
  6
CONTINUOUS
 62
    7
370
   25
100
AcDbLine
 10
330.85
 20
3.025
 11
330.85
 21
16.025
  0
LINE
  5
159
100
AcDbEntity
  8
0
  6
CONTINUOUS
 62
    7
370
   25
100
AcDbLine
 10
96.9875
 20
35.575
 11
83.9875
 21
35.575
  0
LINE
  5
15A
100
AcDbEntity
  8
0
  6
CONTINUOUS
 62
    7
370
   25
100
AcDbLine
 10
83.4875
 20
35.075
 11
83.4875
 21
22.075
  0
LINE
  5
15B
100
AcDbEntity
  8
0
  6
CONTINUOUS
 62
    7
370
   25
100
AcDbLine
 10
83.9875
 20
21.575
 11
96.9875
 21
21.575
  0
LINE
  5
15C
100
AcDbEntity
  8
0
  6
CONTINUOUS
 62
    7
370
   25
100
AcDbLine
 10
97.4875
 20
22.075
 11
97.4875
 21
35.075
  0
LINE
  5
15D
100
AcDbEntity
  8
0
  6
CONTINUOUS
 62
    7
370
   25
100
AcDbLine
 10
20.7875
 20
16.525
 11
7.7875
 21
16.525
  0
LINE
  5
15E
100
AcDbEntity
  8
0
  6
CONTINUOUS
 62
    7
370
   25
100
AcDbLine
 10
7.2875
 20
16.025
 11
7.2875
 21
3.025
  0
LINE
  5
15F
100
AcDbEntity
  8
0
  6
CONTINUOUS
 62
    7
370
   25
100
AcDbLine
 10
7.7875
 20
2.525
 11
20.7875
 21
2.525
  0
LINE
  5
160
100
AcDbEntity
  8
0
  6
CONTINUOUS
 62
    7
370
   25
100
AcDbLine
 10
21.2875
 20
3.025
 11
21.2875
 21
16.025
  0
LINE
  5
161
100
AcDbEntity
  8
0
  6
CONTINUOUS
 62
    7
370
   25
100
AcDbLine
 10
77.9375
 20
35.575
 11
64.9375
 21
35.575
  0
LINE
  5
162
100
AcDbEntity
  8
0
  6
CONTINUOUS
 62
    7
370
   25
100
AcDbLine
 10
64.4375
 20
35.075
 11
64.4375
 21
22.075
  0
LINE
  5
163
100
AcDbEntity
  8
0
  6
CONTINUOUS
 62
    7
370
   25
100
AcDbLine
 10
64.9375
 20
21.575
 11
77.9375
 21
21.575
  0
LINE
  5
164
100
AcDbEntity
  8
0
  6
CONTINUOUS
 62
    7
370
   25
100
AcDbLine
 10
78.4375
 20
22.075
 11
78.4375
 21
35.075
  0
LINE
  5
165
100
AcDbEntity
  8
0
  6
CONTINUOUS
 62
    7
370
   25
100
AcDbLine
 10
311.3
 20
16.525
 11
298.3
 21
16.525
  0
LINE
  5
166
100
AcDbEntity
  8
0
  6
CONTINUOUS
 62
    7
370
   25
100
AcDbLine
 10
297.8
 20
16.025
 11
297.8
 21
3.025
  0
LINE
  5
167
100
AcDbEntity
  8
0
  6
CONTINUOUS
 62
    7
370
   25
100
AcDbLine
 10
298.3
 20
2.525
 11
311.3
 21
2.525
  0
LINE
  5
168
100
AcDbEntity
  8
0
  6
CONTINUOUS
 62
    7
370
   25
100
AcDbLine
 10
311.8
 20
3.025
 11
311.8
 21
16.025
  0
LINE
  5
169
100
AcDbEntity
  8
0
  6
CONTINUOUS
 62
    7
370
   25
100
AcDbLine
 10
330.35
 20
35.575
 11
317.35
 21
35.575
  0
LINE
  5
16A
100
AcDbEntity
  8
0
  6
CONTINUOUS
 62
    7
370
   25
100
AcDbLine
 10
316.85
 20
35.075
 11
316.85
 21
22.075
  0
LINE
  5
16B
100
AcDbEntity
  8
0
  6
CONTINUOUS
 62
    7
370
   25
100
AcDbLine
 10
317.35
 20
21.575
 11
330.35
 21
21.575
  0
LINE
  5
16C
100
AcDbEntity
  8
0
  6
CONTINUOUS
 62
    7
370
   25
100
AcDbLine
 10
330.85
 20
22.075
 11
330.85
 21
35.075
  0
LINE
  5
16D
100
AcDbEntity
  8
0
  6
CONTINUOUS
 62
    7
370
   25
100
AcDbLine
 10
49.3625
 20
54.625
 11
36.3625
 21
54.625
  0
LINE
  5
16E
100
AcDbEntity
  8
0
  6
CONTINUOUS
 62
    7
370
   25
100
AcDbLine
 10
35.8625
 20
54.125
 11
35.8625
 21
41.125
  0
LINE
  5
16F
100
AcDbEntity
  8
0
  6
CONTINUOUS
 62
    7
370
   25
100
AcDbLine
 10
36.3625
 20
40.625
 11
49.3625
 21
40.625
  0
LINE
  5
170
100
AcDbEntity
  8
0
  6
CONTINUOUS
 62
    7
370
   25
100
AcDbLine
 10
49.8625
 20
41.125
 11
49.8625
 21
54.125
  0
LINE
  5
171
100
AcDbEntity
  8
0
  6
CONTINUOUS
 62
    7
370
   25
100
AcDbLine
 10
349.4
 20
73.675
 11
336.4
 21
73.675
  0
LINE
  5
172
100
AcDbEntity
  8
0
  6
CONTINUOUS
 62
    7
370
   25
100
AcDbLine
 10
335.9
 20
73.175
 11
335.9
 21
60.175
  0
LINE
  5
173
100
AcDbEntity
  8
0
  6
CONTINUOUS
 62
    7
370
   25
100
AcDbLine
 10
336.4
 20
59.675
 11
349.4
 21
59.675
  0
LINE
  5
174
100
AcDbEntity
  8
0
  6
CONTINUOUS
 62
    7
370
   25
100
AcDbLine
 10
349.9
 20
60.175
 11
349.9
 21
73.175
  0
LINE
  5
175
100
AcDbEntity
  8
0
  6
CONTINUOUS
 62
    7
370
   25
100
AcDbLine
 10
330.35
 20
73.675
 11
317.35
 21
73.675
  0
LINE
  5
176
100
AcDbEntity
  8
0
  6
CONTINUOUS
 62
    7
370
   25
100
AcDbLine
 10
316.85
 20
73.175
 11
316.85
 21
60.175
  0
LINE
  5
177
100
AcDbEntity
  8
0
  6
CONTINUOUS
 62
    7
370
   25
100
AcDbLine
 10
317.35
 20
59.675
 11
330.35
 21
59.675
  0
LINE
  5
178
100
AcDbEntity
  8
0
  6
CONTINUOUS
 62
    7
370
   25
100
AcDbLine
 10
330.85
 20
60.175
 11
330.85
 21
73.175
  0
LINE
  5
179
100
AcDbEntity
  8
0
  6
CONTINUOUS
 62
    7
370
   25
100
AcDbLine
 10
273.2
 20
92.72499999999999
 11
260.2
 21
92.72499999999999
  0
LINE
  5
17A
100
AcDbEntity
  8
0
  6
CONTINUOUS
 62
    7
370
   25
100
AcDbLine
 10
259.7
 20
92.22499999999999
 11
259.7
 21
79.22499999999999
  0
LINE
  5
17B
100
AcDbEntity
  8
0
  6
CONTINUOUS
 62
    7
370
   25
100
AcDbLine
 10
260.2
 20
78.72499999999999
 11
273.2
 21
78.72499999999999
  0
LINE
  5
17C
100
AcDbEntity
  8
0
  6
CONTINUOUS
 62
    7
370
   25
100
AcDbLine
 10
273.7
 20
79.22499999999999
 11
273.7
 21
92.22499999999999
  0
LINE
  5
17D
100
AcDbEntity
  8
0
  6
CONTINUOUS
 62
    7
370
   25
100
AcDbLine
 10
266.05625
 20
35.575
 11
253.05625
 21
35.575
  0
LINE
  5
17E
100
AcDbEntity
  8
0
  6
CONTINUOUS
 62
    7
370
   25
100
AcDbLine
 10
252.55625
 20
35.075
 11
252.55625
 21
22.075
  0
LINE
  5
17F
100
AcDbEntity
  8
0
  6
CONTINUOUS
 62
    7
370
   25
100
AcDbLine
 10
253.05625
 20
21.575
 11
266.05625
 21
21.575
  0
LINE
  5
180
100
AcDbEntity
  8
0
  6
CONTINUOUS
 62
    7
370
   25
100
AcDbLine
 10
266.55625
 20
22.075
 11
266.55625
 21
35.075
  0
LINE
  5
181
100
AcDbEntity
  8
0
  6
CONTINUOUS
 62
    7
370
   25
100
AcDbLine
 10
192.2375
 20
35.575
 11
179.2375
 21
35.575
  0
LINE
  5
182
100
AcDbEntity
  8
0
  6
CONTINUOUS
 62
    7
370
   25
100
AcDbLine
 10
178.7375
 20
35.075
 11
178.7375
 21
22.075
  0
LINE
  5
183
100
AcDbEntity
  8
0
  6
CONTINUOUS
 62
    7
370
   25
100
AcDbLine
 10
179.2375
 20
21.575
 11
192.2375
 21
21.575
  0
LINE
  5
184
100
AcDbEntity
  8
0
  6
CONTINUOUS
 62
    7
370
   25
100
AcDbLine
 10
192.7375
 20
22.075
 11
192.7375
 21
35.075
  0
LINE
  5
185
100
AcDbEntity
  8
0
  6
CONTINUOUS
 62
    7
370
   25
100
AcDbLine
 10
211.2875
 20
35.575
 11
198.2875
 21
35.575
  0
LINE
  5
186
100
AcDbEntity
  8
0
  6
CONTINUOUS
 62
    7
370
   25
100
AcDbLine
 10
197.7875
 20
35.075
 11
197.7875
 21
22.075
  0
LINE
  5
187
100
AcDbEntity
  8
0
  6
CONTINUOUS
 62
    7
370
   25
100
AcDbLine
 10
198.2875
 20
21.575
 11
211.2875
 21
21.575
  0
LINE
  5
188
100
AcDbEntity
  8
0
  6
CONTINUOUS
 62
    7
370
   25
100
AcDbLine
 10
211.7875
 20
22.075
 11
211.7875
 21
35.075
  0
LINE
  5
189
100
AcDbEntity
  8
0
  6
CONTINUOUS
 62
    7
370
   25
100
AcDbLine
 10
277.9625
 20
16.525
 11
264.9625
 21
16.525
  0
LINE
  5
18A
100
AcDbEntity
  8
0
  6
CONTINUOUS
 62
    7
370
   25
100
AcDbLine
 10
264.4625
 20
16.025
 11
264.4625
 21
3.025
  0
LINE
  5
18B
100
AcDbEntity
  8
0
  6
CONTINUOUS
 62
    7
370
   25
100
AcDbLine
 10
264.9625
 20
2.525
 11
277.9625
 21
2.525
  0
LINE
  5
18C
100
AcDbEntity
  8
0
  6
CONTINUOUS
 62
    7
370
   25
100
AcDbLine
 10
278.4625
 20
3.025
 11
278.4625
 21
16.025
  0
LINE
  5
18D
100
AcDbEntity
  8
0
  6
CONTINUOUS
 62
    7
370
   25
100
AcDbLine
 10
173.1875
 20
35.575
 11
160.1875
 21
35.575
  0
LINE
  5
18E
100
AcDbEntity
  8
0
  6
CONTINUOUS
 62
    7
370
   25
100
AcDbLine
 10
159.6875
 20
35.075
 11
159.6875
 21
22.075
  0
LINE
  5
18F
100
AcDbEntity
  8
0
  6
CONTINUOUS
 62
    7
370
   25
100
AcDbLine
 10
160.1875
 20
21.575
 11
173.1875
 21
21.575
  0
LINE
  5
190
100
AcDbEntity
  8
0
  6
CONTINUOUS
 62
    7
370
   25
100
AcDbLine
 10
173.6875
 20
22.075
 11
173.6875
 21
35.075
  0
LINE
  5
191
100
AcDbEntity
  8
0
  6
CONTINUOUS
 62
    7
370
   25
100
AcDbLine
 10
154.1375
 20
35.575
 11
141.1375
 21
35.575
  0
LINE
  5
192
100
AcDbEntity
  8
0
  6
CONTINUOUS
 62
    7
370
   25
100
AcDbLine
 10
140.6375
 20
35.075
 11
140.6375
 21
22.075
  0
LINE
  5
193
100
AcDbEntity
  8
0
  6
CONTINUOUS
 62
    7
370
   25
100
AcDbLine
 10
141.1375
 20
21.575
 11
154.1375
 21
21.575
  0
LINE
  5
194
100
AcDbEntity
  8
0
  6
CONTINUOUS
 62
    7
370
   25
100
AcDbLine
 10
154.6375
 20
22.075
 11
154.6375
 21
35.075
  0
LINE
  5
195
100
AcDbEntity
  8
0
  6
CONTINUOUS
 62
    7
370
   25
100
AcDbLine
 10
135.0875
 20
35.575
 11
122.0875
 21
35.575
  0
LINE
  5
196
100
AcDbEntity
  8
0
  6
CONTINUOUS
 62
    7
370
   25
100
AcDbLine
 10
121.5875
 20
35.075
 11
121.5875
 21
22.075
  0
LINE
  5
197
100
AcDbEntity
  8
0
  6
CONTINUOUS
 62
    7
370
   25
100
AcDbLine
 10
122.0875
 20
21.575
 11
135.0875
 21
21.575
  0
LINE
  5
198
100
AcDbEntity
  8
0
  6
CONTINUOUS
 62
    7
370
   25
100
AcDbLine
 10
135.5875
 20
22.075
 11
135.5875
 21
35.075
  0
LINE
  5
199
100
AcDbEntity
  8
0
  6
CONTINUOUS
 62
    7
370
   25
100
AcDbLine
 10
116.0375
 20
35.575
 11
103.0375
 21
35.575
  0
LINE
  5
19A
100
AcDbEntity
  8
0
  6
CONTINUOUS
 62
    7
370
   25
100
AcDbLine
 10
102.5375
 20
35.075
 11
102.5375
 21
22.075
  0
LINE
  5
19B
100
AcDbEntity
  8
0
  6
CONTINUOUS
 62
    7
370
   25
100
AcDbLine
 10
103.0375
 20
21.575
 11
116.0375
 21
21.575
  0
LINE
  5
19C
100
AcDbEntity
  8
0
  6
CONTINUOUS
 62
    7
370
   25
100
AcDbLine
 10
116.5375
 20
22.075
 11
116.5375
 21
35.075
  0
LINE
  5
19D
100
AcDbEntity
  8
0
  6
CONTINUOUS
 62
    7
370
   25
100
AcDbLine
 10
197
 20
121.3
 11
184
 21
121.3
  0
LINE
  5
19E
100
AcDbEntity
  8
0
  6
CONTINUOUS
 62
    7
370
   25
100
AcDbLine
 10
183.5
 20
120.8
 11
183.5
 21
107.8
  0
LINE
  5
19F
100
AcDbEntity
  8
0
  6
CONTINUOUS
 62
    7
370
   25
100
AcDbLine
 10
184
 20
107.3
 11
197
 21
107.3
  0
LINE
  5
1A0
100
AcDbEntity
  8
0
  6
CONTINUOUS
 62
    7
370
   25
100
AcDbLine
 10
197.5
 20
107.8
 11
197.5
 21
120.8
  0
LINE
  5
1A1
100
AcDbEntity
  8
0
  6
CONTINUOUS
 62
    7
370
   25
100
AcDbLine
 10
177.95
 20
121.3
 11
164.95
 21
121.3
  0
LINE
  5
1A2
100
AcDbEntity
  8
0
  6
CONTINUOUS
 62
    7
370
   25
100
AcDbLine
 10
164.45
 20
120.8
 11
164.45
 21
107.8
  0
LINE
  5
1A3
100
AcDbEntity
  8
0
  6
CONTINUOUS
 62
    7
370
   25
100
AcDbLine
 10
164.95
 20
107.3
 11
177.95
 21
107.3
  0
LINE
  5
1A4
100
AcDbEntity
  8
0
  6
CONTINUOUS
 62
    7
370
   25
100
AcDbLine
 10
178.45
 20
107.8
 11
178.45
 21
120.8
  0
LINE
  5
1A5
100
AcDbEntity
  8
0
  6
CONTINUOUS
 62
    7
370
   25
100
AcDbLine
 10
158.9
 20
121.3
 11
145.9
 21
121.3
  0
LINE
  5
1A6
100
AcDbEntity
  8
0
  6
CONTINUOUS
 62
    7
370
   25
100
AcDbLine
 10
145.4
 20
120.8
 11
145.4
 21
107.8
  0
LINE
  5
1A7
100
AcDbEntity
  8
0
  6
CONTINUOUS
 62
    7
370
   25
100
AcDbLine
 10
145.9
 20
107.3
 11
158.9
 21
107.3
  0
LINE
  5
1A8
100
AcDbEntity
  8
0
  6
CONTINUOUS
 62
    7
370
   25
100
AcDbLine
 10
159.4
 20
107.8
 11
159.4
 21
120.8
  0
LINE
  5
1A9
100
AcDbEntity
  8
0
  6
CONTINUOUS
 62
    7
370
   25
100
AcDbLine
 10
139.85
 20
121.3
 11
126.85
 21
121.3
  0
LINE
  5
1AA
100
AcDbEntity
  8
0
  6
CONTINUOUS
 62
    7
370
   25
100
AcDbLine
 10
126.35
 20
120.8
 11
126.35
 21
107.8
  0
LINE
  5
1AB
100
AcDbEntity
  8
0
  6
CONTINUOUS
 62
    7
370
   25
100
AcDbLine
 10
126.85
 20
107.3
 11
139.85
 21
107.3
  0
LINE
  5
1AC
100
AcDbEntity
  8
0
  6
CONTINUOUS
 62
    7
370
   25
100
AcDbLine
 10
140.35
 20
107.8
 11
140.35
 21
120.8
  0
LINE
  5
1AD
100
AcDbEntity
  8
0
  6
CONTINUOUS
 62
    7
370
   25
100
AcDbLine
 10
111.275
 20
121.3
 11
98.27500000000001
 21
121.3
  0
LINE
  5
1AE
100
AcDbEntity
  8
0
  6
CONTINUOUS
 62
    7
370
   25
100
AcDbLine
 10
97.77500000000001
 20
120.8
 11
97.77500000000001
 21
107.8
  0
LINE
  5
1AF
100
AcDbEntity
  8
0
  6
CONTINUOUS
 62
    7
370
   25
100
AcDbLine
 10
98.27500000000001
 20
107.3
 11
111.275
 21
107.3
  0
LINE
  5
1B0
100
AcDbEntity
  8
0
  6
CONTINUOUS
 62
    7
370
   25
100
AcDbLine
 10
111.775
 20
107.8
 11
111.775
 21
120.8
  0
LINE
  5
1B1
100
AcDbEntity
  8
0
  6
CONTINUOUS
 62
    7
370
   25
100
AcDbLine
 10
254.15
 20
16.525
 11
241.15
 21
16.525
  0
LINE
  5
1B2
100
AcDbEntity
  8
0
  6
CONTINUOUS
 62
    7
370
   25
100
AcDbLine
 10
240.65
 20
16.025
 11
240.65
 21
3.025
  0
LINE
  5
1B3
100
AcDbEntity
  8
0
  6
CONTINUOUS
 62
    7
370
   25
100
AcDbLine
 10
241.15
 20
2.525
 11
254.15
 21
2.525
  0
LINE
  5
1B4
100
AcDbEntity
  8
0
  6
CONTINUOUS
 62
    7
370
   25
100
AcDbLine
 10
254.65
 20
3.025
 11
254.65
 21
16.025
  0
LINE
  5
1B5
100
AcDbEntity
  8
0
  6
CONTINUOUS
 62
    7
370
   25
100
AcDbLine
 10
16.025
 20
121.3
 11
3.025
 21
121.3
  0
LINE
  5
1B6
100
AcDbEntity
  8
0
  6
CONTINUOUS
 62
    7
370
   25
100
AcDbLine
 10
2.525
 20
120.8
 11
2.525
 21
107.8
  0
LINE
  5
1B7
100
AcDbEntity
  8
0
  6
CONTINUOUS
 62
    7
370
   25
100
AcDbLine
 10
3.025
 20
107.3
 11
16.025
 21
107.3
  0
LINE
  5
1B8
100
AcDbEntity
  8
0
  6
CONTINUOUS
 62
    7
370
   25
100
AcDbLine
 10
16.525
 20
107.8
 11
16.525
 21
120.8
  0
LINE
  5
1B9
100
AcDbEntity
  8
0
  6
CONTINUOUS
 62
    7
370
   25
100
AcDbLine
 10
54.125
 20
121.3
 11
41.125
 21
121.3
  0
LINE
  5
1BA
100
AcDbEntity
  8
0
  6
CONTINUOUS
 62
    7
370
   25
100
AcDbLine
 10
40.625
 20
120.8
 11
40.625
 21
107.8
  0
LINE
  5
1BB
100
AcDbEntity
  8
0
  6
CONTINUOUS
 62
    7
370
   25
100
AcDbLine
 10
41.125
 20
107.3
 11
54.125
 21
107.3
  0
LINE
  5
1BC
100
AcDbEntity
  8
0
  6
CONTINUOUS
 62
    7
370
   25
100
AcDbLine
 10
54.625
 20
107.8
 11
54.625
 21
120.8
  0
LINE
  5
1BD
100
AcDbEntity
  8
0
  6
CONTINUOUS
 62
    7
370
   25
100
AcDbLine
 10
73.175
 20
121.3
 11
60.175
 21
121.3
  0
LINE
  5
1BE
100
AcDbEntity
  8
0
  6
CONTINUOUS
 62
    7
370
   25
100
AcDbLine
 10
59.675
 20
120.8
 11
59.675
 21
107.8
  0
LINE
  5
1BF
100
AcDbEntity
  8
0
  6
CONTINUOUS
 62
    7
370
   25
100
AcDbLine
 10
60.175
 20
107.3
 11
73.175
 21
107.3
  0
LINE
  5
1C0
100
AcDbEntity
  8
0
  6
CONTINUOUS
 62
    7
370
   25
100
AcDbLine
 10
73.675
 20
107.8
 11
73.675
 21
120.8
  0
LINE
  5
1C1
100
AcDbEntity
  8
0
  6
CONTINUOUS
 62
    7
370
   25
100
AcDbLine
 10
92.22499999999999
 20
121.3
 11
79.22499999999999
 21
121.3
  0
LINE
  5
1C2
100
AcDbEntity
  8
0
  6
CONTINUOUS
 62
    7
370
   25
100
AcDbLine
 10
78.72499999999999
 20
120.8
 11
78.72499999999999
 21
107.8
  0
LINE
  5
1C3
100
AcDbEntity
  8
0
  6
CONTINUOUS
 62
    7
370
   25
100
AcDbLine
 10
79.22499999999999
 20
107.3
 11
92.22499999999999
 21
107.3
  0
LINE
  5
1C4
100
AcDbEntity
  8
0
  6
CONTINUOUS
 62
    7
370
   25
100
AcDbLine
 10
92.72499999999999
 20
107.8
 11
92.72499999999999
 21
120.8
  0
LINE
  5
1C5
100
AcDbEntity
  8
0
  6
CONTINUOUS
 62
    7
370
   25
100
AcDbLine
 10
311.3
 20
92.72499999999999
 11
298.3
 21
92.72499999999999
  0
LINE
  5
1C6
100
AcDbEntity
  8
0
  6
CONTINUOUS
 62
    7
370
   25
100
AcDbLine
 10
297.8
 20
92.22499999999999
 11
297.8
 21
79.22499999999999
  0
LINE
  5
1C7
100
AcDbEntity
  8
0
  6
CONTINUOUS
 62
    7
370
   25
100
AcDbLine
 10
298.3
 20
78.72499999999999
 11
311.3
 21
78.72499999999999
  0
LINE
  5
1C8
100
AcDbEntity
  8
0
  6
CONTINUOUS
 62
    7
370
   25
100
AcDbLine
 10
311.8
 20
79.22499999999999
 11
311.8
 21
92.22499999999999
  0
LINE
  5
1C9
100
AcDbEntity
  8
0
  6
CONTINUOUS
 62
    7
370
   25
100
AcDbLine
 10
349.4
 20
121.3
 11
336.4
 21
121.3
  0
LINE
  5
1CA
100
AcDbEntity
  8
0
  6
CONTINUOUS
 62
    7
370
   25
100
AcDbLine
 10
335.9
 20
120.8
 11
335.9
 21
107.8
  0
LINE
  5
1CB
100
AcDbEntity
  8
0
  6
CONTINUOUS
 62
    7
370
   25
100
AcDbLine
 10
336.4
 20
107.3
 11
349.4
 21
107.3
  0
LINE
  5
1CC
100
AcDbEntity
  8
0
  6
CONTINUOUS
 62
    7
370
   25
100
AcDbLine
 10
349.9
 20
107.8
 11
349.9
 21
120.8
  0
LINE
  5
1CD
100
AcDbEntity
  8
0
  6
CONTINUOUS
 62
    7
370
   25
100
AcDbLine
 10
330.35
 20
121.3
 11
317.35
 21
121.3
  0
LINE
  5
1CE
100
AcDbEntity
  8
0
  6
CONTINUOUS
 62
    7
370
   25
100
AcDbLine
 10
316.85
 20
120.8
 11
316.85
 21
107.8
  0
LINE
  5
1CF
100
AcDbEntity
  8
0
  6
CONTINUOUS
 62
    7
370
   25
100
AcDbLine
 10
317.35
 20
107.3
 11
330.35
 21
107.3
  0
LINE
  5
1D0
100
AcDbEntity
  8
0
  6
CONTINUOUS
 62
    7
370
   25
100
AcDbLine
 10
330.85
 20
107.8
 11
330.85
 21
120.8
  0
LINE
  5
1D1
100
AcDbEntity
  8
0
  6
CONTINUOUS
 62
    7
370
   25
100
AcDbLine
 10
311.3
 20
73.675
 11
298.3
 21
73.675
  0
LINE
  5
1D2
100
AcDbEntity
  8
0
  6
CONTINUOUS
 62
    7
370
   25
100
AcDbLine
 10
297.8
 20
73.175
 11
297.8
 21
60.175
  0
LINE
  5
1D3
100
AcDbEntity
  8
0
  6
CONTINUOUS
 62
    7
370
   25
100
AcDbLine
 10
298.3
 20
59.675
 11
311.3
 21
59.675
  0
LINE
  5
1D4
100
AcDbEntity
  8
0
  6
CONTINUOUS
 62
    7
370
   25
100
AcDbLine
 10
311.8
 20
60.175
 11
311.8
 21
73.175
  0
LINE
  5
1D5
100
AcDbEntity
  8
0
  6
CONTINUOUS
 62
    7
370
   25
100
AcDbLine
 10
349.4
 20
92.72499999999999
 11
336.4
 21
92.72499999999999
  0
LINE
  5
1D6
100
AcDbEntity
  8
0
  6
CONTINUOUS
 62
    7
370
   25
100
AcDbLine
 10
335.9
 20
92.22499999999999
 11
335.9
 21
79.22499999999999
  0
LINE
  5
1D7
100
AcDbEntity
  8
0
  6
CONTINUOUS
 62
    7
370
   25
100
AcDbLine
 10
336.4
 20
78.72499999999999
 11
349.4
 21
78.72499999999999
  0
LINE
  5
1D8
100
AcDbEntity
  8
0
  6
CONTINUOUS
 62
    7
370
   25
100
AcDbLine
 10
349.9
 20
79.22499999999999
 11
349.9
 21
92.22499999999999
  0
LINE
  5
1D9
100
AcDbEntity
  8
0
  6
CONTINUOUS
 62
    7
370
   25
100
AcDbLine
 10
330.35
 20
92.72499999999999
 11
317.35
 21
92.72499999999999
  0
LINE
  5
1DA
100
AcDbEntity
  8
0
  6
CONTINUOUS
 62
    7
370
   25
100
AcDbLine
 10
316.85
 20
92.22499999999999
 11
316.85
 21
79.22499999999999
  0
LINE
  5
1DB
100
AcDbEntity
  8
0
  6
CONTINUOUS
 62
    7
370
   25
100
AcDbLine
 10
317.35
 20
78.72499999999999
 11
330.35
 21
78.72499999999999
  0
LINE
  5
1DC
100
AcDbEntity
  8
0
  6
CONTINUOUS
 62
    7
370
   25
100
AcDbLine
 10
330.85
 20
79.22499999999999
 11
330.85
 21
92.22499999999999
  0
LINE
  5
1DD
100
AcDbEntity
  8
0
  6
CONTINUOUS
 62
    7
370
   25
100
AcDbLine
 10
311.3
 20
121.3
 11
298.3
 21
121.3
  0
LINE
  5
1DE
100
AcDbEntity
  8
0
  6
CONTINUOUS
 62
    7
370
   25
100
AcDbLine
 10
297.8
 20
120.8
 11
297.8
 21
107.8
  0
LINE
  5
1DF
100
AcDbEntity
  8
0
  6
CONTINUOUS
 62
    7
370
   25
100
AcDbLine
 10
298.3
 20
107.3
 11
311.3
 21
107.3
  0
LINE
  5
1E0
100
AcDbEntity
  8
0
  6
CONTINUOUS
 62
    7
370
   25
100
AcDbLine
 10
311.8
 20
107.8
 11
311.8
 21
120.8
  0
LINE
  5
1E1
100
AcDbEntity
  8
0
  6
CONTINUOUS
 62
    7
370
   25
100
AcDbLine
 10
282.725
 20
121.3
 11
269.725
 21
121.3
  0
LINE
  5
1E2
100
AcDbEntity
  8
0
  6
CONTINUOUS
 62
    7
370
   25
100
AcDbLine
 10
269.225
 20
120.8
 11
269.225
 21
107.8
  0
LINE
  5
1E3
100
AcDbEntity
  8
0
  6
CONTINUOUS
 62
    7
370
   25
100
AcDbLine
 10
269.725
 20
107.3
 11
282.725
 21
107.3
  0
LINE
  5
1E4
100
AcDbEntity
  8
0
  6
CONTINUOUS
 62
    7
370
   25
100
AcDbLine
 10
283.225
 20
107.8
 11
283.225
 21
120.8
  0
LINE
  5
1E5
100
AcDbEntity
  8
0
  6
CONTINUOUS
 62
    7
370
   25
100
AcDbLine
 10
263.675
 20
121.3
 11
250.675
 21
121.3
  0
LINE
  5
1E6
100
AcDbEntity
  8
0
  6
CONTINUOUS
 62
    7
370
   25
100
AcDbLine
 10
250.175
 20
120.8
 11
250.175
 21
107.8
  0
LINE
  5
1E7
100
AcDbEntity
  8
0
  6
CONTINUOUS
 62
    7
370
   25
100
AcDbLine
 10
250.675
 20
107.3
 11
263.675
 21
107.3
  0
LINE
  5
1E8
100
AcDbEntity
  8
0
  6
CONTINUOUS
 62
    7
370
   25
100
AcDbLine
 10
264.175
 20
107.8
 11
264.175
 21
120.8
  0
LINE
  5
1E9
100
AcDbEntity
  8
0
  6
CONTINUOUS
 62
    7
370
   25
100
AcDbLine
 10
244.625
 20
121.3
 11
231.625
 21
121.3
  0
LINE
  5
1EA
100
AcDbEntity
  8
0
  6
CONTINUOUS
 62
    7
370
   25
100
AcDbLine
 10
231.125
 20
120.8
 11
231.125
 21
107.8
  0
LINE
  5
1EB
100
AcDbEntity
  8
0
  6
CONTINUOUS
 62
    7
370
   25
100
AcDbLine
 10
231.625
 20
107.3
 11
244.625
 21
107.3
  0
LINE
  5
1EC
100
AcDbEntity
  8
0
  6
CONTINUOUS
 62
    7
370
   25
100
AcDbLine
 10
245.125
 20
107.8
 11
245.125
 21
120.8
  0
LINE
  5
1ED
100
AcDbEntity
  8
0
  6
CONTINUOUS
 62
    7
370
   25
100
AcDbLine
 10
225.575
 20
121.3
 11
212.575
 21
121.3
  0
LINE
  5
1EE
100
AcDbEntity
  8
0
  6
CONTINUOUS
 62
    7
370
   25
100
AcDbLine
 10
212.075
 20
120.8
 11
212.075
 21
107.8
  0
LINE
  5
1EF
100
AcDbEntity
  8
0
  6
CONTINUOUS
 62
    7
370
   25
100
AcDbLine
 10
212.575
 20
107.3
 11
225.575
 21
107.3
  0
LINE
  5
1F0
100
AcDbEntity
  8
0
  6
CONTINUOUS
 62
    7
370
   25
100
AcDbLine
 10
226.075
 20
107.8
 11
226.075
 21
120.8
  0
LINE
  5
1F1
100
AcDbEntity
  8
0
  6
CONTINUOUS
 62
    7
370
   25
100
AcDbLine
 10
250.15625
 20
35.575
 11
245.15625
 21
35.575
  0
LINE
  5
1F2
100
AcDbEntity
  8
0
  6
CONTINUOUS
 62
    7
370
   25
100
AcDbLine
 10
244.15625
 20
34.575
 11
244.15625
 21
20.575
  0
LINE
  5
1F3
100
AcDbEntity
  8
0
  6
CONTINUOUS
 62
    7
370
   25
100
AcDbLine
 10
245.15625
 20
19.575
 11
250.15625
 21
19.575
  0
LINE
  5
1F4
100
AcDbEntity
  8
0
  6
CONTINUOUS
 62
    7
370
   25
100
AcDbLine
 10
251.15625
 20
20.575
 11
251.15625
 21
34.575
  0
LINE
  5
1F5
100
AcDbEntity
  8
0
  6
CONTINUOUS
 62
    7
370
   25
100
AcDbLine
 10
273.95625
 20
35.575
 11
268.95625
 21
35.575
  0
LINE
  5
1F6
100
AcDbEntity
  8
0
  6
CONTINUOUS
 62
    7
370
   25
100
AcDbLine
 10
267.95625
 20
34.575
 11
267.95625
 21
20.575
  0
LINE
  5
1F7
100
AcDbEntity
  8
0
  6
CONTINUOUS
 62
    7
370
   25
100
AcDbLine
 10
268.95625
 20
19.575
 11
273.95625
 21
19.575
  0
LINE
  5
1F8
100
AcDbEntity
  8
0
  6
CONTINUOUS
 62
    7
370
   25
100
AcDbLine
 10
274.95625
 20
20.575
 11
274.95625
 21
34.575
  0
LINE
  5
1F9
100
AcDbEntity
  8
0
  6
CONTINUOUS
 62
    7
370
   25
100
AcDbLine
 10
257.3
 20
92.72499999999999
 11
252.3
 21
92.72499999999999
  0
LINE
  5
1FA
100
AcDbEntity
  8
0
  6
CONTINUOUS
 62
    7
370
   25
100
AcDbLine
 10
251.3
 20
91.72499999999999
 11
251.3
 21
77.72499999999999
  0
LINE
  5
1FB
100
AcDbEntity
  8
0
  6
CONTINUOUS
 62
    7
370
   25
100
AcDbLine
 10
252.3
 20
76.72499999999999
 11
257.3
 21
76.72499999999999
  0
LINE
  5
1FC
100
AcDbEntity
  8
0
  6
CONTINUOUS
 62
    7
370
   25
100
AcDbLine
 10
258.3
 20
77.72499999999999
 11
258.3
 21
91.72499999999999
  0
LINE
  5
1FD
100
AcDbEntity
  8
0
  6
CONTINUOUS
 62
    7
370
   25
100
AcDbLine
 10
281.1
 20
92.72499999999999
 11
276.1
 21
92.72499999999999
  0
LINE
  5
1FE
100
AcDbEntity
  8
0
  6
CONTINUOUS
 62
    7
370
   25
100
AcDbLine
 10
275.1
 20
91.72499999999999
 11
275.1
 21
77.72499999999999
  0
LINE
  5
1FF
100
AcDbEntity
  8
0
  6
CONTINUOUS
 62
    7
370
   25
100
AcDbLine
 10
276.1
 20
76.72499999999999
 11
281.1
 21
76.72499999999999
  0
LINE
  5
200
100
AcDbEntity
  8
0
  6
CONTINUOUS
 62
    7
370
   25
100
AcDbLine
 10
282.1
 20
77.72499999999999
 11
282.1
 21
91.72499999999999
  0
LINE
  5
201
100
AcDbEntity
  8
0
  6
CONTINUOUS
 62
    7
370
   25
100
AcDbLine
 10
88.22499999999999
 20
16.525
 11
83.22499999999999
 21
16.525
  0
LINE
  5
202
100
AcDbEntity
  8
0
  6
CONTINUOUS
 62
    7
370
   25
100
AcDbLine
 10
82.22499999999999
 20
15.525
 11
82.22499999999999
 21
1.525
  0
LINE
  5
203
100
AcDbEntity
  8
0
  6
CONTINUOUS
 62
    7
370
   25
100
AcDbLine
 10
83.22499999999999
 20
0.525
 11
88.22499999999999
 21
0.525
  0
LINE
  5
204
100
AcDbEntity
  8
0
  6
CONTINUOUS
 62
    7
370
   25
100
AcDbLine
 10
89.22499999999999
 20
1.525
 11
89.22499999999999
 21
15.525
  0
LINE
  5
205
100
AcDbEntity
  8
0
  6
CONTINUOUS
 62
    7
370
   25
100
AcDbLine
 10
202.525
 20
16.525
 11
197.525
 21
16.525
  0
LINE
  5
206
100
AcDbEntity
  8
0
  6
CONTINUOUS
 62
    7
370
   25
100
AcDbLine
 10
196.525
 20
15.525
 11
196.525
 21
1.525
  0
LINE
  5
207
100
AcDbEntity
  8
0
  6
CONTINUOUS
 62
    7
370
   25
100
AcDbLine
 10
197.525
 20
0.525
 11
202.525
 21
0.525
  0
LINE
  5
208
100
AcDbEntity
  8
0
  6
CONTINUOUS
 62
    7
370
   25
100
AcDbLine
 10
203.525
 20
1.525
 11
203.525
 21
15.525
  0
LINE
  5
209
100
AcDbEntity
  8
0
  6
CONTINUOUS
 62
    7
370
   25
100
AcDbLine
 10
291.25
 20
92.72499999999999
 11
289.775
 21
92.72499999999999
  0
LINE
  5
20A
100
AcDbEntity
  8
0
  6
CONTINUOUS
 62
    7
370
   25
100
AcDbLine
 10
288.275
 20
91.22499999999999
 11
288.275
 21
4.025
  0
LINE
  5
20B
100
AcDbEntity
  8
0
  6
CONTINUOUS
 62
    7
370
   25
100
AcDbLine
 10
289.775
 20
2.525
 11
291.25
 21
2.525
  0
LINE
  5
20C
100
AcDbEntity
  8
0
  6
CONTINUOUS
 62
    7
370
   25
100
AcDbLine
 10
292.75
 20
4.025
 11
292.75
 21
91.22499999999999
  0
LINE
  5
20D
100
AcDbEntity
  8
0
  6
CONTINUOUS
 62
    7
370
   25
100
AcDbLine
 10
21.575
 20
119.8
 11
21.575
 21
108.8
  0
LINE
  5
20E
100
AcDbEntity
  8
0
  6
CONTINUOUS
 62
    7
370
   25
100
AcDbLine
 10
23.075
 20
107.3
 11
34.075
 21
107.3
  0
LINE
  5
20F
100
AcDbEntity
  8
0
  6
CONTINUOUS
 62
    7
370
   25
100
AcDbLine
 10
35.575
 20
108.8
 11
35.575
 21
119.8
  0
LINE
  5
210
100
AcDbEntity
  8
0
  6
CONTINUOUS
 62
    7
370
   25
100
AcDbLine
 10
34.075
 20
121.3
 11
23.075
 21
121.3
  0
LINE
  5
211
100
AcDbEntity
  8
0
  6
CONTINUOUS
 62
    7
370
   25
100
AcDbLine
 10
88.9875
 20
102.25
 11
11.025
 21
102.25
  0
LINE
  5
212
100
AcDbEntity
  8
0
  6
CONTINUOUS
 62
    7
370
   25
100
AcDbLine
 10
9.525
 20
100.75
 11
9.525
 21
99.27500000000001
  0
LINE
  5
213
100
AcDbEntity
  8
0
  6
CONTINUOUS
 62
    7
370
   25
100
AcDbLine
 10
11.025
 20
97.77500000000001
 11
88.9875
 21
97.77500000000001
  0
LINE
  5
214
100
AcDbEntity
  8
0
  6
CONTINUOUS
 62
    7
370
   25
100
AcDbLine
 10
90.4875
 20
99.27500000000001
 11
90.4875
 21
100.75
  0
LINE
  5
215
100
AcDbEntity
  8
0
  6
CONTINUOUS
 62
    7
370
   25
100
AcDbLine
 10
184.2375
 20
102.25
 11
101.5125
 21
102.25
  0
LINE
  5
216
100
AcDbEntity
  8
0
  6
CONTINUOUS
 62
    7
370
   25
100
AcDbLine
 10
100.0125
 20
100.75
 11
100.0125
 21
99.27500000000001
  0
LINE
  5
217
100
AcDbEntity
  8
0
  6
CONTINUOUS
 62
    7
370
   25
100
AcDbLine
 10
101.5125
 20
97.77500000000001
 11
184.2375
 21
97.77500000000001
  0
LINE
  5
218
100
AcDbEntity
  8
0
  6
CONTINUOUS
 62
    7
370
   25
100
AcDbLine
 10
185.7375
 20
99.27500000000001
 11
185.7375
 21
100.75
  0
LINE
  5
219
100
AcDbEntity
  8
0
  6
CONTINUOUS
 62
    7
370
   25
100
AcDbLine
 10
202.55
 20
119.8
 11
202.55
 21
108.8
  0
LINE
  5
21A
100
AcDbEntity
  8
0
  6
CONTINUOUS
 62
    7
370
   25
100
AcDbLine
 10
204.05
 20
107.3
 11
205.525
 21
107.3
  0
LINE
  5
21B
100
AcDbEntity
  8
0
  6
CONTINUOUS
 62
    7
370
   25
100
AcDbLine
 10
207.025
 20
108.8
 11
207.025
 21
119.8
  0
LINE
  5
21C
100
AcDbEntity
  8
0
  6
CONTINUOUS
 62
    7
370
   25
100
AcDbLine
 10
205.525
 20
121.3
 11
204.05
 21
121.3
  0
LINE
  5
21D
100
AcDbEntity
  8
0
  6
CONTINUOUS
 62
    7
370
   25
100
AcDbLine
 10
119.8
 20
121.3
 11
118.325
 21
121.3
  0
LINE
  5
21E
100
AcDbEntity
  8
0
  6
CONTINUOUS
 62
    7
370
   25
100
AcDbLine
 10
116.825
 20
119.8
 11
116.825
 21
108.8
  0
LINE
  5
21F
100
AcDbEntity
  8
0
  6
CONTINUOUS
 62
    7
370
   25
100
AcDbLine
 10
118.325
 20
107.3
 11
119.8
 21
107.3
  0
LINE
  5
220
100
AcDbEntity
  8
0
  6
CONTINUOUS
 62
    7
370
   25
100
AcDbLine
 10
121.3
 20
108.8
 11
121.3
 21
119.8
  0
LINE
  5
221
100
AcDbEntity
  8
0
  6
CONTINUOUS
 62
    7
370
   25
100
AcDbLine
 10
281.725
 20
102.25
 11
196.7625
 21
102.25
  0
LINE
  5
222
100
AcDbEntity
  8
0
  6
CONTINUOUS
 62
    7
370
   25
100
AcDbLine
 10
195.2625
 20
100.75
 11
195.2625
 21
99.27500000000001
  0
LINE
  5
223
100
AcDbEntity
  8
0
  6
CONTINUOUS
 62
    7
370
   25
100
AcDbLine
 10
196.7625
 20
97.77500000000001
 11
281.725
 21
97.77500000000001
  0
LINE
  5
224
100
AcDbEntity
  8
0
  6
CONTINUOUS
 62
    7
370
   25
100
AcDbLine
 10
283.225
 20
99.27500000000001
 11
283.225
 21
100.75
  0
LINE
  5
225
100
AcDbEntity
  8
0
  6
CONTINUOUS
 62
    7
370
   25
100
AcDbLine
 10
288.275
 20
119.8
 11
288.275
 21
108.8
  0
LINE
  5
226
100
AcDbEntity
  8
0
  6
CONTINUOUS
 62
    7
370
   25
100
AcDbLine
 10
289.775
 20
107.3
 11
291.25
 21
107.3
  0
LINE
  5
227
100
AcDbEntity
  8
0
  6
CONTINUOUS
 62
    7
370
   25
100
AcDbLine
 10
292.75
 20
108.8
 11
292.75
 21
119.8
  0
LINE
  5
228
100
AcDbEntity
  8
0
  6
CONTINUOUS
 62
    7
370
   25
100
AcDbLine
 10
291.25
 20
121.3
 11
289.775
 21
121.3
  0
LINE
  5
229
100
AcDbEntity
  8
0
  6
CONTINUOUS
 62
    7
370
   25
100
AcDbLine
 10
297.8
 20
100.75
 11
297.8
 21
99.27500000000001
  0
LINE
  5
22A
100
AcDbEntity
  8
0
  6
CONTINUOUS
 62
    7
370
   25
100
AcDbLine
 10
299.3
 20
97.77500000000001
 11
341.4
 21
97.77500000000001
  0
LINE
  5
22B
100
AcDbEntity
  8
0
  6
CONTINUOUS
 62
    7
370
   25
100
AcDbLine
 10
342.9
 20
99.27500000000001
 11
342.9
 21
100.75
  0
LINE
  5
22C
100
AcDbEntity
  8
0
  6
CONTINUOUS
 62
    7
370
   25
100
AcDbLine
 10
341.4
 20
102.25
 11
299.3
 21
102.25
  0
LINE
  5
22D
100
AcDbEntity
  8
0
  6
CONTINUOUS
 62
    7
370
   25
100
AcDbLine
 10
297.8
 20
34.075
 11
297.8
 21
23.075
  0
LINE
  5
22E
100
AcDbEntity
  8
0
  6
CONTINUOUS
 62
    7
370
   25
100
AcDbLine
 10
299.3
 20
21.575
 11
310.3
 21
21.575
  0
LINE
  5
22F
100
AcDbEntity
  8
0
  6
CONTINUOUS
 62
    7
370
   25
100
AcDbLine
 10
311.8
 20
23.075
 11
311.8
 21
34.075
  0
LINE
  5
230
100
AcDbEntity
  8
0
  6
CONTINUOUS
 62
    7
370
   25
100
AcDbLine
 10
310.3
 20
35.575
 11
299.3
 21
35.575
  0
LINE
  5
231
100
AcDbEntity
  8
0
  6
CONTINUOUS
 62
    7
370
   25
100
AcDbLine
 10
342.9
 20
23.075
 11
342.9
 21
34.075
  0
LINE
  5
232
100
AcDbEntity
  8
0
  6
CONTINUOUS
 62
    7
370
   25
100
AcDbLine
 10
341.4
 20
35.575
 11
337.4
 21
35.575
  0
LINE
  5
233
100
AcDbEntity
  8
0
  6
CONTINUOUS
 62
    7
370
   25
100
AcDbLine
 10
335.9
 20
34.075
 11
335.9
 21
23.075
  0
LINE
  5
234
100
AcDbEntity
  8
0
  6
CONTINUOUS
 62
    7
370
   25
100
AcDbLine
 10
337.4
 20
21.575
 11
341.4
 21
21.575
  0
LINE
  5
235
100
AcDbEntity
  8
0
  6
CONTINUOUS
 62
    7
370
   25
100
AcDbLine
 10
348.4
 20
49.8625
 11
299.3
 21
49.8625
  0
LINE
  5
236
100
AcDbEntity
  8
0
  6
CONTINUOUS
 62
    7
370
   25
100
AcDbLine
 10
297.8
 20
48.3625
 11
297.8
 21
46.8875
  0
LINE
  5
237
100
AcDbEntity
  8
0
  6
CONTINUOUS
 62
    7
370
   25
100
AcDbLine
 10
299.3
 20
45.3875
 11
348.4
 21
45.3875
  0
LINE
  5
238
100
AcDbEntity
  8
0
  6
CONTINUOUS
 62
    7
370
   25
100
AcDbLine
 10
349.9
 20
46.8875
 11
349.9
 21
48.3625
  0
ARC
  5
239
100
AcDbEntity
  8
0
  6
CONTINUOUS
 62
    7
370
   25
100
AcDbCircle
 10
-3.5
 20
86.41249999999999
 40
2.500000000001369
100
AcDbArc
 50
0
 51
10.7347526665
  0
ARC
  5
23A
100
AcDbEntity
  8
0
  6
CONTINUOUS
 62
    7
370
   25
100
AcDbCircle
 10
-3.54375
 20
103.9125
 40
2.500000000000156
100
AcDbArc
 50
0
 51
90
  0
ARC
  5
23B
100
AcDbEntity
  8
0
  6
CONTINUOUS
 62
    7
370
   25
100
AcDbCircle
 10
-4.0875
 20
108.4125
 40
2.000000000000001
100
AcDbArc
 50
180
 51
270
  0
ARC
  5
23C
100
AcDbEntity
  8
0
  6
CONTINUOUS
 62
    7
370
   25
100
AcDbCircle
 10
-0.08749999999999999
 20
123.9125
 40
6.000000000000014
100
AcDbArc
 50
90
 51
180
  0
ARC
  5
23D
100
AcDbEntity
  8
0
  6
CONTINUOUS
 62
    7
370
   25
100
AcDbCircle
 10
11.7125
 20
127.9125
 40
2.000000000000014
100
AcDbArc
 50
0
 51
90
  0
ARC
  5
23E
100
AcDbEntity
  8
0
  6
CONTINUOUS
 62
    7
370
   25
100
AcDbCircle
 10
16.2125
 20
127.36875
 40
2.500000000000004
100
AcDbArc
 50
180
 51
0
  0
ARC
  5
23F
100
AcDbEntity
  8
0
  6
CONTINUOUS
 62
    7
370
   25
100
AcDbCircle
 10
20.7125
 20
127.9125
 40
2.000000000000099
100
AcDbArc
 50
90
 51
180
  0
ARC
  5
240
100
AcDbEntity
  8
0
  6
CONTINUOUS
 62
    7
370
   25
100
AcDbCircle
 10
29.2125
 20
127.9125
 40
2.000000000000018
100
AcDbArc
 50
0
 51
90
  0
ARC
  5
241
100
AcDbEntity
  8
0
  6
CONTINUOUS
 62
    7
370
   25
100
AcDbCircle
 10
33.7125
 20
127.325
 40
2.499999999999996
100
AcDbArc
 50
180
 51
270
  0
ARC
  5
242
100
AcDbEntity
  8
0
  6
CONTINUOUS
 62
    7
370
   25
100
AcDbCircle
 10
78.71250000000001
 20
127.325
 40
2.500000000000014
100
AcDbArc
 50
270
 51
0
  0
ARC
  5
243
100
AcDbEntity
  8
0
  6
CONTINUOUS
 62
    7
370
   25
100
AcDbCircle
 10
83.21250000000001
 20
127.9125
 40
2.000000000000014
100
AcDbArc
 50
90
 51
180
  0
ARC
  5
244
100
AcDbEntity
  8
0
  6
CONTINUOUS
 62
    7
370
   25
100
AcDbCircle
 10
91.71250000000001
 20
127.9125
 40
2.000000000000014
100
AcDbArc
 50
0
 51
90
  0
ARC
  5
245
100
AcDbEntity
  8
0
  6
CONTINUOUS
 62
    7
370
   25
100
AcDbCircle
 10
96.21250000000001
 20
127.36875
 40
2.5
100
AcDbArc
 50
180
 51
0
  0
ARC
  5
246
100
AcDbEntity
  8
0
  6
CONTINUOUS
 62
    7
370
   25
100
AcDbCircle
 10
100.7125
 20
127.9125
 40
2.000000000000014
100
AcDbArc
 50
90
 51
180
  0
ARC
  5
247
100
AcDbEntity
  8
0
  6
CONTINUOUS
 62
    7
370
   25
100
AcDbCircle
 10
109.2125
 20
127.9125
 40
2.000000000000014
100
AcDbArc
 50
0
 51
90
  0
ARC
  5
248
100
AcDbEntity
  8
0
  6
CONTINUOUS
 62
    7
370
   25
100
AcDbCircle
 10
113.7125
 20
127.325
 40
2.500000000000014
100
AcDbArc
 50
180
 51
270
  0
ARC
  5
249
100
AcDbEntity
  8
0
  6
CONTINUOUS
 62
    7
370
   25
100
AcDbCircle
 10
238.7125
 20
127.325
 40
2.5
100
AcDbArc
 50
270
 51
0
  0
ARC
  5
24A
100
AcDbEntity
  8
0
  6
CONTINUOUS
 62
    7
370
   25
100
AcDbCircle
 10
243.2125
 20
127.9125
 40
2.000000000000014
100
AcDbArc
 50
90
 51
180
  0
ARC
  5
24B
100
AcDbEntity
  8
0
  6
CONTINUOUS
 62
    7
370
   25
100
AcDbCircle
 10
251.7125
 20
127.9125
 40
2.000000000000057
100
AcDbArc
 50
0
 51
90
  0
ARC
  5
24C
100
AcDbEntity
  8
0
  6
CONTINUOUS
 62
    7
370
   25
100
AcDbCircle
 10
256.2125
 20
127.36875
 40
2.500000000000085
100
AcDbArc
 50
180
 51
0
  0
ARC
  5
24D
100
AcDbEntity
  8
0
  6
CONTINUOUS
 62
    7
370
   25
100
AcDbCircle
 10
260.7125
 20
127.9125
 40
2.000000000000014
100
AcDbArc
 50
90
 51
180
  0
ARC
  5
24E
100
AcDbEntity
  8
0
  6
CONTINUOUS
 62
    7
370
   25
100
AcDbCircle
 10
269.2125
 20
127.9125
 40
2.000000000000071
100
AcDbArc
 50
0
 51
90
  0
ARC
  5
24F
100
AcDbEntity
  8
0
  6
CONTINUOUS
 62
    7
370
   25
100
AcDbCircle
 10
273.7125
 20
127.325
 40
2.499999999999943
100
AcDbArc
 50
180
 51
270
  0
ARC
  5
250
100
AcDbEntity
  8
0
  6
CONTINUOUS
 62
    7
370
   25
100
AcDbCircle
 10
318.7125
 20
127.325
 40
2.5
100
AcDbArc
 50
270
 51
0
  0
ARC
  5
251
100
AcDbEntity
  8
0
  6
CONTINUOUS
 62
    7
370
   25
100
AcDbCircle
 10
323.2125
 20
127.9125
 40
2.000000000000014
100
AcDbArc
 50
90
 51
180
  0
ARC
  5
252
100
AcDbEntity
  8
0
  6
CONTINUOUS
 62
    7
370
   25
100
AcDbCircle
 10
331.7125
 20
127.9125
 40
2.000000000000014
100
AcDbArc
 50
0
 51
90
  0
ARC
  5
253
100
AcDbEntity
  8
0
  6
CONTINUOUS
 62
    7
370
   25
100
AcDbCircle
 10
336.2125
 20
127.36875
 40
2.5
100
AcDbArc
 50
180
 51
0
  0
ARC
  5
254
100
AcDbEntity
  8
0
  6
CONTINUOUS
 62
    7
370
   25
100
AcDbCircle
 10
340.7125
 20
127.9125
 40
2.000000000000014
100
AcDbArc
 50
90
 51
180
  0
ARC
  5
255
100
AcDbEntity
  8
0
  6
CONTINUOUS
 62
    7
370
   25
100
AcDbCircle
 10
352.5125
 20
123.9125
 40
5.999999999999957
100
AcDbArc
 50
0
 51
90
  0
ARC
  5
256
100
AcDbEntity
  8
0
  6
CONTINUOUS
 62
    7
370
   25
100
AcDbCircle
 10
356.5125
 20
108.4125
 40
2
100
AcDbArc
 50
270
 51
0
  0
ARC
  5
257
100
AcDbEntity
  8
0
  6
CONTINUOUS
 62
    7
370
   25
100
AcDbCircle
 10
355.96875
 20
103.9125
 40
2.499999999999957
100
AcDbArc
 50
90
 51
180
  0
ARC
  5
258
100
AcDbEntity
  8
0
  6
CONTINUOUS
 62
    7
370
   25
100
AcDbCircle
 10
355.925
 20
86.41249999999999
 40
2.500000000000223
100
AcDbArc
 50
169.2652473336
 51
180
  0
ARC
  5
259
100
AcDbEntity
  8
0
  6
CONTINUOUS
 62
    7
370
   25
100
AcDbCircle
 10
355.925
 20
37.4125
 40
2.499999999994437
100
AcDbArc
 50
180
 51
190.7347526665
  0
ARC
  5
25A
100
AcDbEntity
  8
0
  6
CONTINUOUS
 62
    7
370
   25
100
AcDbCircle
 10
355.96875
 20
19.9125
 40
2.5
100
AcDbArc
 50
180
 51
270
  0
ARC
  5
25B
100
AcDbEntity
  8
0
  6
CONTINUOUS
 62
    7
370
   25
100
AcDbCircle
 10
356.5125
 20
15.4125
 40
2
100
AcDbArc
 50
0
 51
90
  0
ARC
  5
25C
100
AcDbEntity
  8
0
  6
CONTINUOUS
 62
    7
370
   25
100
AcDbCircle
 10
352.5125
 20
-0.08749999999999999
 40
6.000000000000001
100
AcDbArc
 50
270
 51
0
  0
ARC
  5
25D
100
AcDbEntity
  8
0
  6
CONTINUOUS
 62
    7
370
   25
100
AcDbCircle
 10
340.7125
 20
-4.0875
 40
1.999999999999948
100
AcDbArc
 50
180
 51
270
  0
ARC
  5
25E
100
AcDbEntity
  8
0
  6
CONTINUOUS
 62
    7
370
   25
100
AcDbCircle
 10
336.2125
 20
-3.54375
 40
2.500000000000057
100
AcDbArc
 50
0
 51
180
  0
ARC
  5
25F
100
AcDbEntity
  8
0
  6
CONTINUOUS
 62
    7
370
   25
100
AcDbCircle
 10
331.7125
 20
-4.0875
 40
2.000000000000063
100
AcDbArc
 50
270
 51
360
  0
ARC
  5
260
100
AcDbEntity
  8
0
  6
CONTINUOUS
 62
    7
370
   25
100
AcDbCircle
 10
323.2125
 20
-4.0875
 40
2.000000000000006
100
AcDbArc
 50
180
 51
270
  0
ARC
  5
261
100
AcDbEntity
  8
0
  6
CONTINUOUS
 62
    7
370
   25
100
AcDbCircle
 10
318.7125
 20
-3.5
 40
2.500000000000012
100
AcDbArc
 50
0
 51
90
  0
ARC
  5
262
100
AcDbEntity
  8
0
  6
CONTINUOUS
 62
    7
370
   25
100
AcDbCircle
 10
273.7125
 20
-3.5
 40
2.5
100
AcDbArc
 50
90
 51
180
  0
ARC
  5
263
100
AcDbEntity
  8
0
  6
CONTINUOUS
 62
    7
370
   25
100
AcDbCircle
 10
269.2125
 20
-4.0875
 40
2.000000000000057
100
AcDbArc
 50
270
 51
0
  0
ARC
  5
264
100
AcDbEntity
  8
0
  6
CONTINUOUS
 62
    7
370
   25
100
AcDbCircle
 10
260.7125
 20
-4.0875
 40
2.000000000000006
100
AcDbArc
 50
180
 51
270
  0
ARC
  5
265
100
AcDbEntity
  8
0
  6
CONTINUOUS
 62
    7
370
   25
100
AcDbCircle
 10
256.2125
 20
-3.54375
 40
2.500000000000085
100
AcDbArc
 50
0
 51
180
  0
ARC
  5
266
100
AcDbEntity
  8
0
  6
CONTINUOUS
 62
    7
370
   25
100
AcDbCircle
 10
251.7125
 20
-4.0875
 40
2.000000000000035
100
AcDbArc
 50
270
 51
0
  0
ARC
  5
267
100
AcDbEntity
  8
0
  6
CONTINUOUS
 62
    7
370
   25
100
AcDbCircle
 10
243.2125
 20
-4.0875
 40
1.999999999999978
100
AcDbArc
 50
180
 51
270
  0
ARC
  5
268
100
AcDbEntity
  8
0
  6
CONTINUOUS
 62
    7
370
   25
100
AcDbCircle
 10
238.7125
 20
-3.5
 40
2.500000000000028
100
AcDbArc
 50
0
 51
90
  0
ARC
  5
269
100
AcDbEntity
  8
0
  6
CONTINUOUS
 62
    7
370
   25
100
AcDbCircle
 10
113.7125
 20
-3.5
 40
2.500000000000028
100
AcDbArc
 50
90
 51
180
  0
ARC
  5
26A
100
AcDbEntity
  8
0
  6
CONTINUOUS
 62
    7
370
   25
100
AcDbCircle
 10
109.2125
 20
-4.0875
 40
2.000000000000014
100
AcDbArc
 50
270
 51
0
  0
ARC
  5
26B
100
AcDbEntity
  8
0
  6
CONTINUOUS
 62
    7
370
   25
100
AcDbCircle
 10
100.7125
 20
-4.0875
 40
2.000000000000007
100
AcDbArc
 50
180
 51
270
  0
ARC
  5
26C
100
AcDbEntity
  8
0
  6
CONTINUOUS
 62
    7
370
   25
100
AcDbCircle
 10
96.21250000000001
 20
-3.54375
 40
2.499999999999986
100
AcDbArc
 50
0
 51
180
  0
ARC
  5
26D
100
AcDbEntity
  8
0
  6
CONTINUOUS
 62
    7
370
   25
100
AcDbCircle
 10
91.71250000000001
 20
-4.0875
 40
2.000000000000014
100
AcDbArc
 50
270
 51
0
  0
ARC
  5
26E
100
AcDbEntity
  8
0
  6
CONTINUOUS
 62
    7
370
   25
100
AcDbCircle
 10
83.21250000000001
 20
-4.0875
 40
2.000000000000006
100
AcDbArc
 50
180
 51
270
  0
ARC
  5
26F
100
AcDbEntity
  8
0
  6
CONTINUOUS
 62
    7
370
   25
100
AcDbCircle
 10
78.71250000000001
 20
-3.5
 40
2.500000000000028
100
AcDbArc
 50
0
 51
90
  0
ARC
  5
270
100
AcDbEntity
  8
0
  6
CONTINUOUS
 62
    7
370
   25
100
AcDbCircle
 10
33.7125
 20
-3.5
 40
2.500000000000002
100
AcDbArc
 50
90
 51
180
  0
ARC
  5
271
100
AcDbEntity
  8
0
  6
CONTINUOUS
 62
    7
370
   25
100
AcDbCircle
 10
29.2125
 20
-4.0875
 40
2.000000000000021
100
AcDbArc
 50
270
 51
0
  0
ARC
  5
272
100
AcDbEntity
  8
0
  6
CONTINUOUS
 62
    7
370
   25
100
AcDbCircle
 10
20.7125
 20
-4.0875
 40
2.000000000000008
100
AcDbArc
 50
180
 51
270
  0
ARC
  5
273
100
AcDbEntity
  8
0
  6
CONTINUOUS
 62
    7
370
   25
100
AcDbCircle
 10
16.2125
 20
-3.54375
 40
2.500000000000004
100
AcDbArc
 50
0
 51
180
  0
ARC
  5
274
100
AcDbEntity
  8
0
  6
CONTINUOUS
 62
    7
370
   25
100
AcDbCircle
 10
11.7125
 20
-4.0875
 40
2.000000000000003
100
AcDbArc
 50
270
 51
0
  0
ARC
  5
275
100
AcDbEntity
  8
0
  6
CONTINUOUS
 62
    7
370
   25
100
AcDbCircle
 10
-0.08749999999999999
 20
-0.08749999999999999
 40
5.999999999999998
100
AcDbArc
 50
180
 51
270
  0
ARC
  5
276
100
AcDbEntity
  8
0
  6
CONTINUOUS
 62
    7
370
   25
100
AcDbCircle
 10
-4.0875
 20
15.4125
 40
2.000000000000012
100
AcDbArc
 50
90
 51
180
  0
ARC
  5
277
100
AcDbEntity
  8
0
  6
CONTINUOUS
 62
    7
370
   25
100
AcDbCircle
 10
-3.54375
 20
19.9125
 40
2.499999999999951
100
AcDbArc
 50
270
 51
0
  0
ARC
  5
278
100
AcDbEntity
  8
0
  6
CONTINUOUS
 62
    7
370
   25
100
AcDbCircle
 10
-3.5
 20
37.4125
 40
2.500000000001508
100
AcDbArc
 50
349.2652473336
 51
360
  0
ARC
  5
279
100
AcDbEntity
  8
0
  6
CONTINUOUS
 62
    7
370
   25
100
AcDbCircle
 10
16.025
 20
92.22499999999999
 40
0.4999999999999858
100
AcDbArc
 50
360
 51
90
  0
ARC
  5
27A
100
AcDbEntity
  8
0
  6
CONTINUOUS
 62
    7
370
   25
100
AcDbCircle
 10
3.025
 20
92.22499999999999
 40
0.5000000000000013
100
AcDbArc
 50
90
 51
180
  0
ARC
  5
27B
100
AcDbEntity
  8
0
  6
CONTINUOUS
 62
    7
370
   25
100
AcDbCircle
 10
3.025
 20
79.22499999999999
 40
0.499999999999988
100
AcDbArc
 50
180
 51
270
  0
ARC
  5
27C
100
AcDbEntity
  8
0
  6
CONTINUOUS
 62
    7
370
   25
100
AcDbCircle
 10
16.025
 20
79.22499999999999
 40
0.4999999999999858
100
AcDbArc
 50
270
 51
0
  0
ARC
  5
27D
100
AcDbEntity
  8
0
  6
CONTINUOUS
 62
    7
370
   25
100
AcDbCircle
 10
23.16875
 20
54.125
 40
0.4999999999999716
100
AcDbArc
 50
360
 51
90
  0
ARC
  5
27E
100
AcDbEntity
  8
0
  6
CONTINUOUS
 62
    7
370
   25
100
AcDbCircle
 10
10.16875
 20
54.125
 40
0.4999999999999858
100
AcDbArc
 50
90
 51
180
  0
ARC
  5
27F
100
AcDbEntity
  8
0
  6
CONTINUOUS
 62
    7
370
   25
100
AcDbCircle
 10
10.16875
 20
41.125
 40
0.5000000000000089
100
AcDbArc
 50
180
 51
270
  0
ARC
  5
280
100
AcDbEntity
  8
0
  6
CONTINUOUS
 62
    7
370
   25
100
AcDbCircle
 10
23.16875
 20
41.125
 40
0.5
100
AcDbArc
 50
270
 51
0
  0
ARC
  5
281
100
AcDbEntity
  8
0
  6
CONTINUOUS
 62
    7
370
   25
100
AcDbCircle
 10
101.75
 20
73.175
 40
0.5000000000000568
100
AcDbArc
 50
0
 51
90
  0
ARC
  5
282
100
AcDbEntity
  8
0
  6
CONTINUOUS
 62
    7
370
   25
100
AcDbCircle
 10
88.75
 20
73.175
 40
0.5
100
AcDbArc
 50
90
 51
180
  0
ARC
  5
283
100
AcDbEntity
  8
0
  6
CONTINUOUS
 62
    7
370
   25
100
AcDbCircle
 10
88.75
 20
60.175
 40
0.4999999999999858
100
AcDbArc
 50
180
 51
270
  0
ARC
  5
284
100
AcDbEntity
  8
0
  6
CONTINUOUS
 62
    7
370
   25
100
AcDbCircle
 10
101.75
 20
60.175
 40
0.5000000000000284
100
AcDbArc
 50
270
 51
360
  0
ARC
  5
285
100
AcDbEntity
  8
0
  6
CONTINUOUS
 62
    7
370
   25
100
AcDbCircle
 10
220.8125
 20
54.125
 40
0.5000000000000284
100
AcDbArc
 50
0
 51
90
  0
ARC
  5
286
100
AcDbEntity
  8
0
  6
CONTINUOUS
 62
    7
370
   25
100
AcDbCircle
 10
207.8125
 20
54.125
 40
0.5000000000000284
100
AcDbArc
 50
90
 51
180
  0
ARC
  5
287
100
AcDbEntity
  8
0
  6
CONTINUOUS
 62
    7
370
   25
100
AcDbCircle
 10
207.8125
 20
41.125
 40
0.5000000000000284
100
AcDbArc
 50
180
 51
270
  0
ARC
  5
288
100
AcDbEntity
  8
0
  6
CONTINUOUS
 62
    7
370
   25
100
AcDbCircle
 10
220.8125
 20
41.125
 40
0.5000000000000284
100
AcDbArc
 50
270
 51
360
  0
ARC
  5
289
100
AcDbEntity
  8
0
  6
CONTINUOUS
 62
    7
370
   25
100
AcDbCircle
 10
120.8
 20
73.175
 40
0.5000000000000568
100
AcDbArc
 50
0
 51
90
  0
ARC
  5
28A
100
AcDbEntity
  8
0
  6
CONTINUOUS
 62
    7
370
   25
100
AcDbCircle
 10
107.8
 20
73.175
 40
0.4999999999999858
100
AcDbArc
 50
90
 51
180
  0
ARC
  5
28B
100
AcDbEntity
  8
0
  6
CONTINUOUS
 62
    7
370
   25
100
AcDbCircle
 10
107.8
 20
60.175
 40
0.5000000000000071
100
AcDbArc
 50
180
 51
270
  0
ARC
  5
28C
100
AcDbEntity
  8
0
  6
CONTINUOUS
 62
    7
370
   25
100
AcDbCircle
 10
120.8
 20
60.175
 40
0.5000000000000426
100
AcDbArc
 50
270
 51
360
  0
ARC
  5
28D
100
AcDbEntity
  8
0
  6
CONTINUOUS
 62
    7
370
   25
100
AcDbCircle
 10
239.8625
 20
54.125
 40
0.5000000000000284
100
AcDbArc
 50
0
 51
90
  0
ARC
  5
28E
100
AcDbEntity
  8
0
  6
CONTINUOUS
 62
    7
370
   25
100
AcDbCircle
 10
226.8625
 20
54.125
 40
0.5000000000000284
100
AcDbArc
 50
90
 51
180
  0
ARC
  5
28F
100
AcDbEntity
  8
0
  6
CONTINUOUS
 62
    7
370
   25
100
AcDbCircle
 10
226.8625
 20
41.125
 40
0.5000000000000284
100
AcDbArc
 50
180
 51
270
  0
ARC
  5
290
100
AcDbEntity
  8
0
  6
CONTINUOUS
 62
    7
370
   25
100
AcDbCircle
 10
239.8625
 20
41.125
 40
0.5000000000000284
100
AcDbArc
 50
270
 51
360
  0
ARC
  5
291
100
AcDbEntity
  8
0
  6
CONTINUOUS
 62
    7
370
   25
100
AcDbCircle
 10
139.85
 20
73.175
 40
0.5
100
AcDbArc
 50
360
 51
90
  0
ARC
  5
292
100
AcDbEntity
  8
0
  6
CONTINUOUS
 62
    7
370
   25
100
AcDbCircle
 10
126.85
 20
73.175
 40
0.5000000000000284
100
AcDbArc
 50
90
 51
180
  0
ARC
  5
293
100
AcDbEntity
  8
0
  6
CONTINUOUS
 62
    7
370
   25
100
AcDbCircle
 10
126.85
 20
60.175
 40
0.5000000000000284
100
AcDbArc
 50
180
 51
270
  0
ARC
  5
294
100
AcDbEntity
  8
0
  6
CONTINUOUS
 62
    7
370
   25
100
AcDbCircle
 10
139.85
 20
60.175
 40
0.4999999999999716
100
AcDbArc
 50
270
 51
0
  0
ARC
  5
295
100
AcDbEntity
  8
0
  6
CONTINUOUS
 62
    7
370
   25
100
AcDbCircle
 10
163.6625
 20
54.125
 40
0.5000000000000284
100
AcDbArc
 50
0
 51
90
  0
ARC
  5
296
100
AcDbEntity
  8
0
  6
CONTINUOUS
 62
    7
370
   25
100
AcDbCircle
 10
150.6625
 20
54.125
 40
0.5000000000000284
100
AcDbArc
 50
90
 51
180
  0
ARC
  5
297
100
AcDbEntity
  8
0
  6
CONTINUOUS
 62
    7
370
   25
100
AcDbCircle
 10
150.6625
 20
41.125
 40
0.5000000000000284
100
AcDbArc
 50
180
 51
270
  0
ARC
  5
298
100
AcDbEntity
  8
0
  6
CONTINUOUS
 62
    7
370
   25
100
AcDbCircle
 10
163.6625
 20
41.125
 40
0.5000000000000284
100
AcDbArc
 50
270
 51
360
  0
ARC
  5
299
100
AcDbEntity
  8
0
  6
CONTINUOUS
 62
    7
370
   25
100
AcDbCircle
 10
63.65
 20
73.175
 40
0.5000000000000639
100
AcDbArc
 50
0
 51
90
  0
ARC
  5
29A
100
AcDbEntity
  8
0
  6
CONTINUOUS
 62
    7
370
   25
100
AcDbCircle
 10
50.65
 20
73.175
 40
0.4999999999999858
100
AcDbArc
 50
90
 51
180
  0
ARC
  5
29B
100
AcDbEntity
  8
0
  6
CONTINUOUS
 62
    7
370
   25
100
AcDbCircle
 10
50.65
 20
60.175
 40
0.4999999999999787
100
AcDbArc
 50
180
 51
270
  0
ARC
  5
29C
100
AcDbEntity
  8
0
  6
CONTINUOUS
 62
    7
370
   25
100
AcDbCircle
 10
63.65
 20
60.175
 40
0.5000000000000497
100
AcDbArc
 50
270
 51
360
  0
ARC
  5
29D
100
AcDbEntity
  8
0
  6
CONTINUOUS
 62
    7
370
   25
100
AcDbCircle
 10
201.7625
 20
54.125
 40
0.5000000000000284
100
AcDbArc
 50
0
 51
90
  0
ARC
  5
29E
100
AcDbEntity
  8
0
  6
CONTINUOUS
 62
    7
370
   25
100
AcDbCircle
 10
188.7625
 20
54.125
 40
0.5000000000000284
100
AcDbArc
 50
90
 51
180
  0
ARC
  5
29F
100
AcDbEntity
  8
0
  6
CONTINUOUS
 62
    7
370
   25
100
AcDbCircle
 10
188.7625
 20
41.125
 40
0.5000000000000284
100
AcDbArc
 50
180
 51
270
  0
ARC
  5
2A0
100
AcDbEntity
  8
0
  6
CONTINUOUS
 62
    7
370
   25
100
AcDbCircle
 10
201.7625
 20
41.125
 40
0.5000000000000284
100
AcDbArc
 50
270
 51
360
  0
ARC
  5
2A1
100
AcDbEntity
  8
0
  6
CONTINUOUS
 62
    7
370
   25
100
AcDbCircle
 10
82.7
 20
73.175
 40
0.5000000000000568
100
AcDbArc
 50
0
 51
90
  0
ARC
  5
2A2
100
AcDbEntity
  8
0
  6
CONTINUOUS
 62
    7
370
   25
100
AcDbCircle
 10
69.7
 20
73.175
 40
0.5000000000000142
100
AcDbArc
 50
90
 51
180
  0
ARC
  5
2A3
100
AcDbEntity
  8
0
  6
CONTINUOUS
 62
    7
370
   25
100
AcDbCircle
 10
69.7
 20
60.175
 40
0.4999999999999858
100
AcDbArc
 50
180
 51
270
  0
ARC
  5
2A4
100
AcDbEntity
  8
0
  6
CONTINUOUS
 62
    7
370
   25
100
AcDbCircle
 10
82.7
 20
60.175
 40
0.5000000000000284
100
AcDbArc
 50
270
 51
360
  0
ARC
  5
2A5
100
AcDbEntity
  8
0
  6
CONTINUOUS
 62
    7
370
   25
100
AcDbCircle
 10
182.7125
 20
54.125
 40
0.5000000000000284
100
AcDbArc
 50
0
 51
90
  0
ARC
  5
2A6
100
AcDbEntity
  8
0
  6
CONTINUOUS
 62
    7
370
   25
100
AcDbCircle
 10
169.7125
 20
54.125
 40
0.5000000000000284
100
AcDbArc
 50
90
 51
180
  0
ARC
  5
2A7
100
AcDbEntity
  8
0
  6
CONTINUOUS
 62
    7
370
   25
100
AcDbCircle
 10
169.7125
 20
41.125
 40
0.5000000000000284
100
AcDbArc
 50
180
 51
270
  0
ARC
  5
2A8
100
AcDbEntity
  8
0
  6
CONTINUOUS
 62
    7
370
   25
100
AcDbCircle
 10
182.7125
 20
41.125
 40
0.5000000000000284
100
AcDbArc
 50
270
 51
360
  0
ARC
  5
2A9
100
AcDbEntity
  8
0
  6
CONTINUOUS
 62
    7
370
   25
100
AcDbCircle
 10
230.3375
 20
16.025
 40
0.5000000000000284
100
AcDbArc
 50
0
 51
90
  0
ARC
  5
2AA
100
AcDbEntity
  8
0
  6
CONTINUOUS
 62
    7
370
   25
100
AcDbCircle
 10
217.3375
 20
16.025
 40
0.5000000000000284
100
AcDbArc
 50
90
 51
180
  0
ARC
  5
2AB
100
AcDbEntity
  8
0
  6
CONTINUOUS
 62
    7
370
   25
100
AcDbCircle
 10
217.3375
 20
3.025
 40
0.5000000000000284
100
AcDbArc
 50
180
 51
270
  0
ARC
  5
2AC
100
AcDbEntity
  8
0
  6
CONTINUOUS
 62
    7
370
   25
100
AcDbCircle
 10
230.3375
 20
3.025
 40
0.5000000000000284
100
AcDbArc
 50
270
 51
360
  0
ARC
  5
2AD
100
AcDbEntity
  8
0
  6
CONTINUOUS
 62
    7
370
   25
100
AcDbCircle
 10
68.41249999999999
 20
16.025
 40
0.5000000000000284
100
AcDbArc
 50
0
 51
90
  0
ARC
  5
2AE
100
AcDbEntity
  8
0
  6
CONTINUOUS
 62
    7
370
   25
100
AcDbCircle
 10
55.4125
 20
16.025
 40
0.5000000000000213
100
AcDbArc
 50
90
 51
180
  0
ARC
  5
2AF
100
AcDbEntity
  8
0
  6
CONTINUOUS
 62
    7
370
   25
100
AcDbCircle
 10
55.4125
 20
3.025
 40
0.5000000000000142
100
AcDbArc
 50
180
 51
270
  0
ARC
  5
2B0
100
AcDbEntity
  8
0
  6
CONTINUOUS
 62
    7
370
   25
100
AcDbCircle
 10
68.41249999999999
 20
3.025
 40
0.5000000000000426
100
AcDbArc
 50
270
 51
360
  0
ARC
  5
2B1
100
AcDbEntity
  8
0
  6
CONTINUOUS
 62
    7
370
   25
100
AcDbCircle
 10
44.6
 20
16.025
 40
0.4999999999999787
100
AcDbArc
 50
360
 51
90
  0
ARC
  5
2B2
100
AcDbEntity
  8
0
  6
CONTINUOUS
 62
    7
370
   25
100
AcDbCircle
 10
31.6
 20
16.025
 40
0.4999999999999929
100
AcDbArc
 50
90
 51
180
  0
ARC
  5
2B3
100
AcDbEntity
  8
0
  6
CONTINUOUS
 62
    7
370
   25
100
AcDbCircle
 10
31.6
 20
3.025
 40
0.5000000000000036
100
AcDbArc
 50
180
 51
270
  0
ARC
  5
2B4
100
AcDbEntity
  8
0
  6
CONTINUOUS
 62
    7
370
   25
100
AcDbCircle
 10
44.6
 20
3.025
 40
0.4999999999999747
100
AcDbArc
 50
270
 51
0
  0
ARC
  5
2B5
100
AcDbEntity
  8
0
  6
CONTINUOUS
 62
    7
370
   25
100
AcDbCircle
 10
254.15
 20
73.175
 40
0.5
100
AcDbArc
 50
360
 51
90
  0
ARC
  5
2B6
100
AcDbEntity
  8
0
  6
CONTINUOUS
 62
    7
370
   25
100
AcDbCircle
 10
241.15
 20
73.175
 40
0.5000000000000284
100
AcDbArc
 50
90
 51
180
  0
ARC
  5
2B7
100
AcDbEntity
  8
0
  6
CONTINUOUS
 62
    7
370
   25
100
AcDbCircle
 10
241.15
 20
60.175
 40
0.5
100
AcDbArc
 50
180
 51
270
  0
ARC
  5
2B8
100
AcDbEntity
  8
0
  6
CONTINUOUS
 62
    7
370
   25
100
AcDbCircle
 10
254.15
 20
60.175
 40
0.4999999999999503
100
AcDbArc
 50
270
 51
0
  0
ARC
  5
2B9
100
AcDbEntity
  8
0
  6
CONTINUOUS
 62
    7
370
   25
100
AcDbCircle
 10
235.1
 20
73.175
 40
0.5
100
AcDbArc
 50
360
 51
90
  0
ARC
  5
2BA
100
AcDbEntity
  8
0
  6
CONTINUOUS
 62
    7
370
   25
100
AcDbCircle
 10
222.1
 20
73.175
 40
0.5000000000000142
100
AcDbArc
 50
90
 51
180
  0
ARC
  5
2BB
100
AcDbEntity
  8
0
  6
CONTINUOUS
 62
    7
370
   25
100
AcDbCircle
 10
222.1
 20
60.175
 40
0.5
100
AcDbArc
 50
180
 51
270
  0
ARC
  5
2BC
100
AcDbEntity
  8
0
  6
CONTINUOUS
 62
    7
370
   25
100
AcDbCircle
 10
235.1
 20
60.175
 40
0.4999999999999716
100
AcDbArc
 50
270
 51
0
  0
ARC
  5
2BD
100
AcDbEntity
  8
0
  6
CONTINUOUS
 62
    7
370
   25
100
AcDbCircle
 10
158.9
 20
73.175
 40
0.5
100
AcDbArc
 50
360
 51
90
  0
ARC
  5
2BE
100
AcDbEntity
  8
0
  6
CONTINUOUS
 62
    7
370
   25
100
AcDbCircle
 10
145.9
 20
73.175
 40
0.5000000000000284
100
AcDbArc
 50
90
 51
180
  0
ARC
  5
2BF
100
AcDbEntity
  8
0
  6
CONTINUOUS
 62
    7
370
   25
100
AcDbCircle
 10
145.9
 20
60.175
 40
0.5
100
AcDbArc
 50
180
 51
270
  0
ARC
  5
2C0
100
AcDbEntity
  8
0
  6
CONTINUOUS
 62
    7
370
   25
100
AcDbCircle
 10
158.9
 20
60.175
 40
0.4999999999999716
100
AcDbArc
 50
270
 51
0
  0
ARC
  5
2C1
100
AcDbEntity
  8
0
  6
CONTINUOUS
 62
    7
370
   25
100
AcDbCircle
 10
177.95
 20
73.175
 40
0.4999999999999858
100
AcDbArc
 50
360
 51
90
  0
ARC
  5
2C2
100
AcDbEntity
  8
0
  6
CONTINUOUS
 62
    7
370
   25
100
AcDbCircle
 10
164.95
 20
73.175
 40
0.5000000000000284
100
AcDbArc
 50
90
 51
180
  0
ARC
  5
2C3
100
AcDbEntity
  8
0
  6
CONTINUOUS
 62
    7
370
   25
100
AcDbCircle
 10
164.95
 20
60.175
 40
0.5
100
AcDbArc
 50
180
 51
270
  0
ARC
  5
2C4
100
AcDbEntity
  8
0
  6
CONTINUOUS
 62
    7
370
   25
100
AcDbCircle
 10
177.95
 20
60.175
 40
0.4999999999999716
100
AcDbArc
 50
270
 51
0
  0
ARC
  5
2C5
100
AcDbEntity
  8
0
  6
CONTINUOUS
 62
    7
370
   25
100
AcDbCircle
 10
149.375
 20
16.025
 40
0.4999999999999716
100
AcDbArc
 50
360
 51
90
  0
ARC
  5
2C6
100
AcDbEntity
  8
0
  6
CONTINUOUS
 62
    7
370
   25
100
AcDbCircle
 10
136.375
 20
16.025
 40
0.5
100
AcDbArc
 50
90
 51
180
  0
ARC
  5
2C7
100
AcDbEntity
  8
0
  6
CONTINUOUS
 62
    7
370
   25
100
AcDbCircle
 10
136.375
 20
3.025
 40
0.5000000000000004
100
AcDbArc
 50
180
 51
270
  0
ARC
  5
2C8
100
AcDbEntity
  8
0
  6
CONTINUOUS
 62
    7
370
   25
100
AcDbCircle
 10
149.375
 20
3.025
 40
0.4999999999999716
100
AcDbArc
 50
270
 51
0
  0
ARC
  5
2C9
100
AcDbEntity
  8
0
  6
CONTINUOUS
 62
    7
370
   25
100
AcDbCircle
 10
197
 20
73.175
 40
0.4999999999999858
100
AcDbArc
 50
360
 51
90
  0
ARC
  5
2CA
100
AcDbEntity
  8
0
  6
CONTINUOUS
 62
    7
370
   25
100
AcDbCircle
 10
184
 20
73.175
 40
0.5000000000000284
100
AcDbArc
 50
90
 51
180
  0
ARC
  5
2CB
100
AcDbEntity
  8
0
  6
CONTINUOUS
 62
    7
370
   25
100
AcDbCircle
 10
184
 20
60.175
 40
0.5
100
AcDbArc
 50
180
 51
270
  0
ARC
  5
2CC
100
AcDbEntity
  8
0
  6
CONTINUOUS
 62
    7
370
   25
100
AcDbCircle
 10
197
 20
60.175
 40
0.4999999999999716
100
AcDbArc
 50
270
 51
0
  0
ARC
  5
2CD
100
AcDbEntity
  8
0
  6
CONTINUOUS
 62
    7
370
   25
100
AcDbCircle
 10
216.05
 20
73.175
 40
0.4999999999999858
100
AcDbArc
 50
360
 51
90
  0
ARC
  5
2CE
100
AcDbEntity
  8
0
  6
CONTINUOUS
 62
    7
370
   25
100
AcDbCircle
 10
203.05
 20
73.175
 40
0.5000000000000284
100
AcDbArc
 50
90
 51
180
  0
ARC
  5
2CF
100
AcDbEntity
  8
0
  6
CONTINUOUS
 62
    7
370
   25
100
AcDbCircle
 10
203.05
 20
60.175
 40
0.5
100
AcDbArc
 50
180
 51
270
  0
ARC
  5
2D0
100
AcDbEntity
  8
0
  6
CONTINUOUS
 62
    7
370
   25
100
AcDbCircle
 10
216.05
 20
60.175
 40
0.4999999999999716
100
AcDbArc
 50
270
 51
0
  0
ARC
  5
2D1
100
AcDbEntity
  8
0
  6
CONTINUOUS
 62
    7
370
   25
100
AcDbCircle
 10
20.7875
 20
73.175
 40
0.5
100
AcDbArc
 50
360
 51
90
  0
ARC
  5
2D2
100
AcDbEntity
  8
0
  6
CONTINUOUS
 62
    7
370
   25
100
AcDbCircle
 10
7.7875
 20
73.175
 40
0.5000000000000284
100
AcDbArc
 50
90
 51
180
  0
ARC
  5
2D3
100
AcDbEntity
  8
0
  6
CONTINUOUS
 62
    7
370
   25
100
AcDbCircle
 10
7.7875
 20
60.175
 40
0.5000000000000071
100
AcDbArc
 50
180
 51
270
  0
ARC
  5
2D4
100
AcDbEntity
  8
0
  6
CONTINUOUS
 62
    7
370
   25
100
AcDbCircle
 10
20.7875
 20
60.175
 40
0.4999999999999787
100
AcDbArc
 50
270
 51
0
  0
ARC
  5
2D5
100
AcDbEntity
  8
0
  6
CONTINUOUS
 62
    7
370
   25
100
AcDbCircle
 10
35.075
 20
92.22499999999999
 40
0.5000000000000284
100
AcDbArc
 50
0
 51
90
  0
ARC
  5
2D6
100
AcDbEntity
  8
0
  6
CONTINUOUS
 62
    7
370
   25
100
AcDbCircle
 10
22.075
 20
92.22499999999999
 40
0.5000000000000462
100
AcDbArc
 50
90
 51
180
  0
ARC
  5
2D7
100
AcDbEntity
  8
0
  6
CONTINUOUS
 62
    7
370
   25
100
AcDbCircle
 10
22.075
 20
79.22499999999999
 40
0.5000000000000178
100
AcDbArc
 50
180
 51
270
  0
ARC
  5
2D8
100
AcDbEntity
  8
0
  6
CONTINUOUS
 62
    7
370
   25
100
AcDbCircle
 10
35.075
 20
79.22499999999999
 40
0.5000000000000142
100
AcDbArc
 50
270
 51
360
  0
ARC
  5
2D9
100
AcDbEntity
  8
0
  6
CONTINUOUS
 62
    7
370
   25
100
AcDbCircle
 10
54.125
 20
92.22499999999999
 40
0.5
100
AcDbArc
 50
360
 51
90
  0
ARC
  5
2DA
100
AcDbEntity
  8
0
  6
CONTINUOUS
 62
    7
370
   25
100
AcDbCircle
 10
41.125
 20
92.22499999999999
 40
0.4999999999999858
100
AcDbArc
 50
90
 51
180
  0
ARC
  5
2DB
100
AcDbEntity
  8
0
  6
CONTINUOUS
 62
    7
370
   25
100
AcDbCircle
 10
41.125
 20
79.22499999999999
 40
0.4999999999999574
100
AcDbArc
 50
180
 51
270
  0
ARC
  5
2DC
100
AcDbEntity
  8
0
  6
CONTINUOUS
 62
    7
370
   25
100
AcDbCircle
 10
54.125
 20
79.22499999999999
 40
0.4999999999999858
100
AcDbArc
 50
270
 51
0
  0
ARC
  5
2DD
100
AcDbEntity
  8
0
  6
CONTINUOUS
 62
    7
370
   25
100
AcDbCircle
 10
73.175
 20
92.22499999999999
 40
0.5000000000000426
100
AcDbArc
 50
0
 51
90
  0
ARC
  5
2DE
100
AcDbEntity
  8
0
  6
CONTINUOUS
 62
    7
370
   25
100
AcDbCircle
 10
60.175
 20
92.22499999999999
 40
0.5000000000000426
100
AcDbArc
 50
90
 51
180
  0
ARC
  5
2DF
100
AcDbEntity
  8
0
  6
CONTINUOUS
 62
    7
370
   25
100
AcDbCircle
 10
60.175
 20
79.22499999999999
 40
0.5000000000000142
100
AcDbArc
 50
180
 51
270
  0
ARC
  5
2E0
100
AcDbEntity
  8
0
  6
CONTINUOUS
 62
    7
370
   25
100
AcDbCircle
 10
73.175
 20
79.22499999999999
 40
0.5000000000000142
100
AcDbArc
 50
270
 51
360
  0
ARC
  5
2E1
100
AcDbEntity
  8
0
  6
CONTINUOUS
 62
    7
370
   25
100
AcDbCircle
 10
92.22499999999999
 20
92.22499999999999
 40
0.5000000000000568
100
AcDbArc
 50
0
 51
90
  0
ARC
  5
2E2
100
AcDbEntity
  8
0
  6
CONTINUOUS
 62
    7
370
   25
100
AcDbCircle
 10
79.22499999999999
 20
92.22499999999999
 40
0.4999999999999858
100
AcDbArc
 50
90
 51
180
  0
ARC
  5
2E3
100
AcDbEntity
  8
0
  6
CONTINUOUS
 62
    7
370
   25
100
AcDbCircle
 10
79.22499999999999
 20
79.22499999999999
 40
0.5000000000000142
100
AcDbArc
 50
180
 51
270
  0
ARC
  5
2E4
100
AcDbEntity
  8
0
  6
CONTINUOUS
 62
    7
370
   25
100
AcDbCircle
 10
92.22499999999999
 20
79.22499999999999
 40
0.5000000000000426
100
AcDbArc
 50
270
 51
360
  0
ARC
  5
2E5
100
AcDbEntity
  8
0
  6
CONTINUOUS
 62
    7
370
   25
100
AcDbCircle
 10
111.275
 20
92.22499999999999
 40
0.5000000000000568
100
AcDbArc
 50
0
 51
90
  0
ARC
  5
2E6
100
AcDbEntity
  8
0
  6
CONTINUOUS
 62
    7
370
   25
100
AcDbCircle
 10
98.27500000000001
 20
92.22499999999999
 40
0.5
100
AcDbArc
 50
90
 51
180
  0
ARC
  5
2E7
100
AcDbEntity
  8
0
  6
CONTINUOUS
 62
    7
370
   25
100
AcDbCircle
 10
98.27500000000001
 20
79.22499999999999
 40
0.4999999999999858
100
AcDbArc
 50
180
 51
270
  0
ARC
  5
2E8
100
AcDbEntity
  8
0
  6
CONTINUOUS
 62
    7
370
   25
100
AcDbCircle
 10
111.275
 20
79.22499999999999
 40
0.5000000000000142
100
AcDbArc
 50
270
 51
360
  0
ARC
  5
2E9
100
AcDbEntity
  8
0
  6
CONTINUOUS
 62
    7
370
   25
100
AcDbCircle
 10
130.325
 20
92.22499999999999
 40
0.5
100
AcDbArc
 50
360
 51
90
  0
ARC
  5
2EA
100
AcDbEntity
  8
0
  6
CONTINUOUS
 62
    7
370
   25
100
AcDbCircle
 10
117.325
 20
92.22499999999999
 40
0.4999999999999858
100
AcDbArc
 50
90
 51
180
  0
ARC
  5
2EB
100
AcDbEntity
  8
0
  6
CONTINUOUS
 62
    7
370
   25
100
AcDbCircle
 10
117.325
 20
79.22499999999999
 40
0.5
100
AcDbArc
 50
180
 51
270
  0
ARC
  5
2EC
100
AcDbEntity
  8
0
  6
CONTINUOUS
 62
    7
370
   25
100
AcDbCircle
 10
130.325
 20
79.22499999999999
 40
0.4999999999999716
100
AcDbArc
 50
270
 51
0
  0
ARC
  5
2ED
100
AcDbEntity
  8
0
  6
CONTINUOUS
 62
    7
370
   25
100
AcDbCircle
 10
230.3375
 20
35.075
 40
0.5000000000000284
100
AcDbArc
 50
0
 51
90
  0
ARC
  5
2EE
100
AcDbEntity
  8
0
  6
CONTINUOUS
 62
    7
370
   25
100
AcDbCircle
 10
217.3375
 20
35.075
 40
0.5000000000000284
100
AcDbArc
 50
90
 51
180
  0
ARC
  5
2EF
100
AcDbEntity
  8
0
  6
CONTINUOUS
 62
    7
370
   25
100
AcDbCircle
 10
217.3375
 20
22.075
 40
0.5000000000000284
100
AcDbArc
 50
180
 51
270
  0
ARC
  5
2F0
100
AcDbEntity
  8
0
  6
CONTINUOUS
 62
    7
370
   25
100
AcDbCircle
 10
230.3375
 20
22.075
 40
0.5000000000000284
100
AcDbArc
 50
270
 51
360
  0
ARC
  5
2F1
100
AcDbEntity
  8
0
  6
CONTINUOUS
 62
    7
370
   25
100
AcDbCircle
 10
149.375
 20
92.22499999999999
 40
0.5
100
AcDbArc
 50
360
 51
90
  0
ARC
  5
2F2
100
AcDbEntity
  8
0
  6
CONTINUOUS
 62
    7
370
   25
100
AcDbCircle
 10
136.375
 20
92.22499999999999
 40
0.5
100
AcDbArc
 50
90
 51
180
  0
ARC
  5
2F3
100
AcDbEntity
  8
0
  6
CONTINUOUS
 62
    7
370
   25
100
AcDbCircle
 10
136.375
 20
79.22499999999999
 40
0.5
100
AcDbArc
 50
180
 51
270
  0
ARC
  5
2F4
100
AcDbEntity
  8
0
  6
CONTINUOUS
 62
    7
370
   25
100
AcDbCircle
 10
149.375
 20
79.22499999999999
 40
0.4999999999999716
100
AcDbArc
 50
270
 51
0
  0
ARC
  5
2F5
100
AcDbEntity
  8
0
  6
CONTINUOUS
 62
    7
370
   25
100
AcDbCircle
 10
87.46250000000001
 20
54.125
 40
0.5000000000000284
100
AcDbArc
 50
0
 51
90
  0
ARC
  5
2F6
100
AcDbEntity
  8
0
  6
CONTINUOUS
 62
    7
370
   25
100
AcDbCircle
 10
74.46250000000001
 20
54.125
 40
0.5
100
AcDbArc
 50
90
 51
180
  0
ARC
  5
2F7
100
AcDbEntity
  8
0
  6
CONTINUOUS
 62
    7
370
   25
100
AcDbCircle
 10
74.46250000000001
 20
41.125
 40
0.4999999999999929
100
AcDbArc
 50
180
 51
270
  0
ARC
  5
2F8
100
AcDbEntity
  8
0
  6
CONTINUOUS
 62
    7
370
   25
100
AcDbCircle
 10
87.46250000000001
 20
41.125
 40
0.5000000000000284
100
AcDbArc
 50
270
 51
360
  0
ARC
  5
2F9
100
AcDbEntity
  8
0
  6
CONTINUOUS
 62
    7
370
   25
100
AcDbCircle
 10
244.625
 20
92.22499999999999
 40
0.5
100
AcDbArc
 50
360
 51
90
  0
ARC
  5
2FA
100
AcDbEntity
  8
0
  6
CONTINUOUS
 62
    7
370
   25
100
AcDbCircle
 10
231.625
 20
92.22499999999999
 40
0.5000000000000284
100
AcDbArc
 50
90
 51
180
  0
ARC
  5
2FB
100
AcDbEntity
  8
0
  6
CONTINUOUS
 62
    7
370
   25
100
AcDbCircle
 10
231.625
 20
79.22499999999999
 40
0.4999999999999716
100
AcDbArc
 50
180
 51
270
  0
ARC
  5
2FC
100
AcDbEntity
  8
0
  6
CONTINUOUS
 62
    7
370
   25
100
AcDbCircle
 10
244.625
 20
79.22499999999999
 40
0.4999999999999716
100
AcDbArc
 50
270
 51
0
  0
ARC
  5
2FD
100
AcDbEntity
  8
0
  6
CONTINUOUS
 62
    7
370
   25
100
AcDbCircle
 10
106.5125
 20
54.125
 40
0.5000000000000284
100
AcDbArc
 50
0
 51
90
  0
ARC
  5
2FE
100
AcDbEntity
  8
0
  6
CONTINUOUS
 62
    7
370
   25
100
AcDbCircle
 10
93.5125
 20
54.125
 40
0.5
100
AcDbArc
 50
90
 51
180
  0
ARC
  5
2FF
100
AcDbEntity
  8
0
  6
CONTINUOUS
 62
    7
370
   25
100
AcDbCircle
 10
93.5125
 20
41.125
 40
0.4999999999999929
100
AcDbArc
 50
180
 51
270
  0
ARC
  5
300
100
AcDbEntity
  8
0
  6
CONTINUOUS
 62
    7
370
   25
100
AcDbCircle
 10
106.5125
 20
41.125
 40
0.5000000000000284
100
AcDbArc
 50
270
 51
360
  0
ARC
  5
301
100
AcDbEntity
  8
0
  6
CONTINUOUS
 62
    7
370
   25
100
AcDbCircle
 10
44.6
 20
73.175
 40
0.5000000000000284
100
AcDbArc
 50
0
 51
90
  0
ARC
  5
302
100
AcDbEntity
  8
0
  6
CONTINUOUS
 62
    7
370
   25
100
AcDbCircle
 10
31.6
 20
73.175
 40
0.5000000000000355
100
AcDbArc
 50
90
 51
180
  0
ARC
  5
303
100
AcDbEntity
  8
0
  6
CONTINUOUS
 62
    7
370
   25
100
AcDbCircle
 10
31.6
 20
60.175
 40
0.5000000000000284
100
AcDbArc
 50
180
 51
270
  0
ARC
  5
304
100
AcDbEntity
  8
0
  6
CONTINUOUS
 62
    7
370
   25
100
AcDbCircle
 10
44.6
 20
60.175
 40
0.5000000000000142
100
AcDbArc
 50
270
 51
0
  0
ARC
  5
305
100
AcDbEntity
  8
0
  6
CONTINUOUS
 62
    7
370
   25
100
AcDbCircle
 10
144.6125
 20
54.125
 40
0.5000000000000284
100
AcDbArc
 50
0
 51
90
  0
ARC
  5
306
100
AcDbEntity
  8
0
  6
CONTINUOUS
 62
    7
370
   25
100
AcDbCircle
 10
131.6125
 20
54.125
 40
0.5000000000000284
100
AcDbArc
 50
90
 51
180
  0
ARC
  5
307
100
AcDbEntity
  8
0
  6
CONTINUOUS
 62
    7
370
   25
100
AcDbCircle
 10
131.6125
 20
41.125
 40
0.5000000000000284
100
AcDbArc
 50
180
 51
270
  0
ARC
  5
308
100
AcDbEntity
  8
0
  6
CONTINUOUS
 62
    7
370
   25
100
AcDbCircle
 10
144.6125
 20
41.125
 40
0.5000000000000284
100
AcDbArc
 50
270
 51
360
  0
ARC
  5
309
100
AcDbEntity
  8
0
  6
CONTINUOUS
 62
    7
370
   25
100
AcDbCircle
 10
125.5625
 20
54.125
 40
0.5000000000000284
100
AcDbArc
 50
0
 51
90
  0
ARC
  5
30A
100
AcDbEntity
  8
0
  6
CONTINUOUS
 62
    7
370
   25
100
AcDbCircle
 10
112.5625
 20
54.125
 40
0.4999999999999716
100
AcDbArc
 50
90
 51
180
  0
ARC
  5
30B
100
AcDbEntity
  8
0
  6
CONTINUOUS
 62
    7
370
   25
100
AcDbCircle
 10
112.5625
 20
41.125
 40
0.5000000000000142
100
AcDbArc
 50
180
 51
270
  0
ARC
  5
30C
100
AcDbEntity
  8
0
  6
CONTINUOUS
 62
    7
370
   25
100
AcDbCircle
 10
125.5625
 20
41.125
 40
0.5000000000000284
100
AcDbArc
 50
270
 51
360
  0
ARC
  5
30D
100
AcDbEntity
  8
0
  6
CONTINUOUS
 62
    7
370
   25
100
AcDbCircle
 10
168.425
 20
92.22499999999999
 40
0.5
100
AcDbArc
 50
360
 51
90
  0
ARC
  5
30E
100
AcDbEntity
  8
0
  6
CONTINUOUS
 62
    7
370
   25
100
AcDbCircle
 10
155.425
 20
92.22499999999999
 40
0.5000000000000284
100
AcDbArc
 50
90
 51
180
  0
ARC
  5
30F
100
AcDbEntity
  8
0
  6
CONTINUOUS
 62
    7
370
   25
100
AcDbCircle
 10
155.425
 20
79.22499999999999
 40
0.4999999999999716
100
AcDbArc
 50
180
 51
270
  0
ARC
  5
310
100
AcDbEntity
  8
0
  6
CONTINUOUS
 62
    7
370
   25
100
AcDbCircle
 10
168.425
 20
79.22499999999999
 40
0.4999999999999716
100
AcDbArc
 50
270
 51
0
  0
ARC
  5
311
100
AcDbEntity
  8
0
  6
CONTINUOUS
 62
    7
370
   25
100
AcDbCircle
 10
187.475
 20
92.22499999999999
 40
0.5
100
AcDbArc
 50
360
 51
90
  0
ARC
  5
312
100
AcDbEntity
  8
0
  6
CONTINUOUS
 62
    7
370
   25
100
AcDbCircle
 10
174.475
 20
92.22499999999999
 40
0.5
100
AcDbArc
 50
90
 51
180
  0
ARC
  5
313
100
AcDbEntity
  8
0
  6
CONTINUOUS
 62
    7
370
   25
100
AcDbCircle
 10
174.475
 20
79.22499999999999
 40
0.5
100
AcDbArc
 50
180
 51
270
  0
ARC
  5
314
100
AcDbEntity
  8
0
  6
CONTINUOUS
 62
    7
370
   25
100
AcDbCircle
 10
187.475
 20
79.22499999999999
 40
0.4999999999999716
100
AcDbArc
 50
270
 51
0
  0
ARC
  5
315
100
AcDbEntity
  8
0
  6
CONTINUOUS
 62
    7
370
   25
100
AcDbCircle
 10
225.575
 20
92.22499999999999
 40
0.5
100
AcDbArc
 50
360
 51
90
  0
ARC
  5
316
100
AcDbEntity
  8
0
  6
CONTINUOUS
 62
    7
370
   25
100
AcDbCircle
 10
212.575
 20
92.22499999999999
 40
0.5
100
AcDbArc
 50
90
 51
180
  0
ARC
  5
317
100
AcDbEntity
  8
0
  6
CONTINUOUS
 62
    7
370
   25
100
AcDbCircle
 10
212.575
 20
79.22499999999999
 40
0.5
100
AcDbArc
 50
180
 51
270
  0
ARC
  5
318
100
AcDbEntity
  8
0
  6
CONTINUOUS
 62
    7
370
   25
100
AcDbCircle
 10
225.575
 20
79.22499999999999
 40
0.4999999999999716
100
AcDbArc
 50
270
 51
0
  0
ARC
  5
319
100
AcDbEntity
  8
0
  6
CONTINUOUS
 62
    7
370
   25
100
AcDbCircle
 10
68.41249999999999
 20
54.125
 40
0.5000000000000284
100
AcDbArc
 50
0
 51
90
  0
ARC
  5
31A
100
AcDbEntity
  8
0
  6
CONTINUOUS
 62
    7
370
   25
100
AcDbCircle
 10
55.4125
 20
54.125
 40
0.4999999999999858
100
AcDbArc
 50
90
 51
180
  0
ARC
  5
31B
100
AcDbEntity
  8
0
  6
CONTINUOUS
 62
    7
370
   25
100
AcDbCircle
 10
55.4125
 20
41.125
 40
0.4999999999999929
100
AcDbArc
 50
180
 51
270
  0
ARC
  5
31C
100
AcDbEntity
  8
0
  6
CONTINUOUS
 62
    7
370
   25
100
AcDbCircle
 10
68.41249999999999
 20
41.125
 40
0.5000000000000284
100
AcDbArc
 50
270
 51
360
  0
ARC
  5
31D
100
AcDbEntity
  8
0
  6
CONTINUOUS
 62
    7
370
   25
100
AcDbCircle
 10
206.525
 20
92.22499999999999
 40
0.5
100
AcDbArc
 50
360
 51
90
  0
ARC
  5
31E
100
AcDbEntity
  8
0
  6
CONTINUOUS
 62
    7
370
   25
100
AcDbCircle
 10
193.525
 20
92.22499999999999
 40
0.5000000000000284
100
AcDbArc
 50
90
 51
180
  0
ARC
  5
31F
100
AcDbEntity
  8
0
  6
CONTINUOUS
 62
    7
370
   25
100
AcDbCircle
 10
193.525
 20
79.22499999999999
 40
0.4999999999999716
100
AcDbArc
 50
180
 51
270
  0
ARC
  5
320
100
AcDbEntity
  8
0
  6
CONTINUOUS
 62
    7
370
   25
100
AcDbCircle
 10
206.525
 20
79.22499999999999
 40
0.5
100
AcDbArc
 50
270
 51
0
  0
ARC
  5
321
100
AcDbEntity
  8
0
  6
CONTINUOUS
 62
    7
370
   25
100
AcDbCircle
 10
349.4
 20
16.025
 40
0.5
100
AcDbArc
 50
0
 51
90
  0
ARC
  5
322
100
AcDbEntity
  8
0
  6
CONTINUOUS
 62
    7
370
   25
100
AcDbCircle
 10
336.4
 20
16.025
 40
0.5000000000000568
100
AcDbArc
 50
90
 51
180
  0
ARC
  5
323
100
AcDbEntity
  8
0
  6
CONTINUOUS
 62
    7
370
   25
100
AcDbCircle
 10
336.4
 20
3.025
 40
0.5000000000000004
100
AcDbArc
 50
180
 51
270
  0
ARC
  5
324
100
AcDbEntity
  8
0
  6
CONTINUOUS
 62
    7
370
   25
100
AcDbCircle
 10
349.4
 20
3.025
 40
0.5000000000000004
100
AcDbArc
 50
270
 51
0
  0
ARC
  5
325
100
AcDbEntity
  8
0
  6
CONTINUOUS
 62
    7
370
   25
100
AcDbCircle
 10
58.8875
 20
35.075
 40
0.5
100
AcDbArc
 50
0
 51
90
  0
ARC
  5
326
100
AcDbEntity
  8
0
  6
CONTINUOUS
 62
    7
370
   25
100
AcDbCircle
 10
45.8875
 20
35.075
 40
0.5000000000000284
100
AcDbArc
 50
90
 51
180
  0
ARC
  5
327
100
AcDbEntity
  8
0
  6
CONTINUOUS
 62
    7
370
   25
100
AcDbCircle
 10
45.8875
 20
22.075
 40
0.5000000000000213
100
AcDbArc
 50
180
 51
270
  0
ARC
  5
328
100
AcDbEntity
  8
0
  6
CONTINUOUS
 62
    7
370
   25
100
AcDbCircle
 10
58.8875
 20
22.075
 40
0.5
100
AcDbArc
 50
270
 51
0
  0
ARC
  5
329
100
AcDbEntity
  8
0
  6
CONTINUOUS
 62
    7
370
   25
100
AcDbCircle
 10
330.35
 20
16.025
 40
0.5
100
AcDbArc
 50
0
 51
90
  0
ARC
  5
32A
100
AcDbEntity
  8
0
  6
CONTINUOUS
 62
    7
370
   25
100
AcDbCircle
 10
317.35
 20
16.025
 40
0.5000000000000568
100
AcDbArc
 50
90
 51
180
  0
ARC
  5
32B
100
AcDbEntity
  8
0
  6
CONTINUOUS
 62
    7
370
   25
100
AcDbCircle
 10
317.35
 20
3.025
 40
0.5000000000000004
100
AcDbArc
 50
180
 51
270
  0
ARC
  5
32C
100
AcDbEntity
  8
0
  6
CONTINUOUS
 62
    7
370
   25
100
AcDbCircle
 10
330.35
 20
3.025
 40
0.5000000000000004
100
AcDbArc
 50
270
 51
0
  0
ARC
  5
32D
100
AcDbEntity
  8
0
  6
CONTINUOUS
 62
    7
370
   25
100
AcDbCircle
 10
96.9875
 20
35.075
 40
0.5000000000000213
100
AcDbArc
 50
0
 51
90
  0
ARC
  5
32E
100
AcDbEntity
  8
0
  6
CONTINUOUS
 62
    7
370
   25
100
AcDbCircle
 10
83.9875
 20
35.075
 40
0.5
100
AcDbArc
 50
90
 51
180
  0
ARC
  5
32F
100
AcDbEntity
  8
0
  6
CONTINUOUS
 62
    7
370
   25
100
AcDbCircle
 10
83.9875
 20
22.075
 40
0.4999999999999929
100
AcDbArc
 50
180
 51
270
  0
ARC
  5
330
100
AcDbEntity
  8
0
  6
CONTINUOUS
 62
    7
370
   25
100
AcDbCircle
 10
96.9875
 20
22.075
 40
0.5000000000000213
100
AcDbArc
 50
270
 51
360
  0
ARC
  5
331
100
AcDbEntity
  8
0
  6
CONTINUOUS
 62
    7
370
   25
100
AcDbCircle
 10
20.7875
 20
16.025
 40
0.4999999999999787
100
AcDbArc
 50
360
 51
90
  0
ARC
  5
332
100
AcDbEntity
  8
0
  6
CONTINUOUS
 62
    7
370
   25
100
AcDbCircle
 10
7.7875
 20
16.025
 40
0.5000000000000071
100
AcDbArc
 50
90
 51
180
  0
ARC
  5
333
100
AcDbEntity
  8
0
  6
CONTINUOUS
 62
    7
370
   25
100
AcDbCircle
 10
7.7875
 20
3.025
 40
0.5000000000000018
100
AcDbArc
 50
180
 51
270
  0
ARC
  5
334
100
AcDbEntity
  8
0
  6
CONTINUOUS
 62
    7
370
   25
100
AcDbCircle
 10
20.7875
 20
3.025
 40
0.4999999999999765
100
AcDbArc
 50
270
 51
0
  0
ARC
  5
335
100
AcDbEntity
  8
0
  6
CONTINUOUS
 62
    7
370
   25
100
AcDbCircle
 10
77.9375
 20
35.075
 40
0.5000000000000284
100
AcDbArc
 50
0
 51
90
  0
ARC
  5
336
100
AcDbEntity
  8
0
  6
CONTINUOUS
 62
    7
370
   25
100
AcDbCircle
 10
64.9375
 20
35.075
 40
0.4999999999999716
100
AcDbArc
 50
90
 51
180
  0
ARC
  5
337
100
AcDbEntity
  8
0
  6
CONTINUOUS
 62
    7
370
   25
100
AcDbCircle
 10
64.9375
 20
22.075
 40
0.5000000000000142
100
AcDbArc
 50
180
 51
270
  0
ARC
  5
338
100
AcDbEntity
  8
0
  6
CONTINUOUS
 62
    7
370
   25
100
AcDbCircle
 10
77.9375
 20
22.075
 40
0.5000000000000355
100
AcDbArc
 50
270
 51
360
  0
ARC
  5
339
100
AcDbEntity
  8
0
  6
CONTINUOUS
 62
    7
370
   25
100
AcDbCircle
 10
311.3
 20
16.025
 40
0.5
100
AcDbArc
 50
0
 51
90
  0
ARC
  5
33A
100
AcDbEntity
  8
0
  6
CONTINUOUS
 62
    7
370
   25
100
AcDbCircle
 10
298.3
 20
16.025
 40
0.5
100
AcDbArc
 50
90
 51
180
  0
ARC
  5
33B
100
AcDbEntity
  8
0
  6
CONTINUOUS
 62
    7
370
   25
100
AcDbCircle
 10
298.3
 20
3.025
 40
0.5000000000000004
100
AcDbArc
 50
180
 51
270
  0
ARC
  5
33C
100
AcDbEntity
  8
0
  6
CONTINUOUS
 62
    7
370
   25
100
AcDbCircle
 10
311.3
 20
3.025
 40
0.5000000000000004
100
AcDbArc
 50
270
 51
0
  0
ARC
  5
33D
100
AcDbEntity
  8
0
  6
CONTINUOUS
 62
    7
370
   25
100
AcDbCircle
 10
330.35
 20
35.075
 40
0.5
100
AcDbArc
 50
0
 51
90
  0
ARC
  5
33E
100
AcDbEntity
  8
0
  6
CONTINUOUS
 62
    7
370
   25
100
AcDbCircle
 10
317.35
 20
35.075
 40
0.5
100
AcDbArc
 50
90
 51
180
  0
ARC
  5
33F
100
AcDbEntity
  8
0
  6
CONTINUOUS
 62
    7
370
   25
100
AcDbCircle
 10
317.35
 20
22.075
 40
0.5
100
AcDbArc
 50
180
 51
270
  0
ARC
  5
340
100
AcDbEntity
  8
0
  6
CONTINUOUS
 62
    7
370
   25
100
AcDbCircle
 10
330.35
 20
22.075
 40
0.5
100
AcDbArc
 50
270
 51
0
  0
ARC
  5
341
100
AcDbEntity
  8
0
  6
CONTINUOUS
 62
    7
370
   25
100
AcDbCircle
 10
49.3625
 20
54.125
 40
0.5000000000000142
100
AcDbArc
 50
0
 51
90
  0
ARC
  5
342
100
AcDbEntity
  8
0
  6
CONTINUOUS
 62
    7
370
   25
100
AcDbCircle
 10
36.3625
 20
54.125
 40
0.5000000000000284
100
AcDbArc
 50
90
 51
180
  0
ARC
  5
343
100
AcDbEntity
  8
0
  6
CONTINUOUS
 62
    7
370
   25
100
AcDbCircle
 10
36.3625
 20
41.125
 40
0.5000000000000213
100
AcDbArc
 50
180
 51
270
  0
ARC
  5
344
100
AcDbEntity
  8
0
  6
CONTINUOUS
 62
    7
370
   25
100
AcDbCircle
 10
49.3625
 20
41.125
 40
0.5000000000000142
100
AcDbArc
 50
270
 51
0
  0
ARC
  5
345
100
AcDbEntity
  8
0
  6
CONTINUOUS
 62
    7
370
   25
100
AcDbCircle
 10
349.4
 20
73.175
 40
0.5
100
AcDbArc
 50
0
 51
90
  0
ARC
  5
346
100
AcDbEntity
  8
0
  6
CONTINUOUS
 62
    7
370
   25
100
AcDbCircle
 10
336.4
 20
73.175
 40
0.5
100
AcDbArc
 50
90
 51
180
  0
ARC
  5
347
100
AcDbEntity
  8
0
  6
CONTINUOUS
 62
    7
370
   25
100
AcDbCircle
 10
336.4
 20
60.175
 40
0.5
100
AcDbArc
 50
180
 51
270
  0
ARC
  5
348
100
AcDbEntity
  8
0
  6
CONTINUOUS
 62
    7
370
   25
100
AcDbCircle
 10
349.4
 20
60.175
 40
0.5
100
AcDbArc
 50
270
 51
0
  0
ARC
  5
349
100
AcDbEntity
  8
0
  6
CONTINUOUS
 62
    7
370
   25
100
AcDbCircle
 10
330.35
 20
73.175
 40
0.5
100
AcDbArc
 50
0
 51
90
  0
ARC
  5
34A
100
AcDbEntity
  8
0
  6
CONTINUOUS
 62
    7
370
   25
100
AcDbCircle
 10
317.35
 20
73.175
 40
0.5
100
AcDbArc
 50
90
 51
180
  0
ARC
  5
34B
100
AcDbEntity
  8
0
  6
CONTINUOUS
 62
    7
370
   25
100
AcDbCircle
 10
317.35
 20
60.175
 40
0.5
100
AcDbArc
 50
180
 51
270
  0
ARC
  5
34C
100
AcDbEntity
  8
0
  6
CONTINUOUS
 62
    7
370
   25
100
AcDbCircle
 10
330.35
 20
60.175
 40
0.5
100
AcDbArc
 50
270
 51
0
  0
ARC
  5
34D
100
AcDbEntity
  8
0
  6
CONTINUOUS
 62
    7
370
   25
100
AcDbCircle
 10
273.2
 20
92.22499999999999
 40
0.5
100
AcDbArc
 50
0
 51
90
  0
ARC
  5
34E
100
AcDbEntity
  8
0
  6
CONTINUOUS
 62
    7
370
   25
100
AcDbCircle
 10
260.2
 20
92.22499999999999
 40
0.5
100
AcDbArc
 50
90
 51
180
  0
ARC
  5
34F
100
AcDbEntity
  8
0
  6
CONTINUOUS
 62
    7
370
   25
100
AcDbCircle
 10
260.2
 20
79.22499999999999
 40
0.5
100
AcDbArc
 50
180
 51
270
  0
ARC
  5
350
100
AcDbEntity
  8
0
  6
CONTINUOUS
 62
    7
370
   25
100
AcDbCircle
 10
273.2
 20
79.22499999999999
 40
0.5
100
AcDbArc
 50
270
 51
0
  0
ARC
  5
351
100
AcDbEntity
  8
0
  6
CONTINUOUS
 62
    7
370
   25
100
AcDbCircle
 10
266.05625
 20
35.075
 40
0.5
100
AcDbArc
 50
0
 51
90
  0
ARC
  5
352
100
AcDbEntity
  8
0
  6
CONTINUOUS
 62
    7
370
   25
100
AcDbCircle
 10
253.05625
 20
35.075
 40
0.5000000000000568
100
AcDbArc
 50
90
 51
180
  0
ARC
  5
353
100
AcDbEntity
  8
0
  6
CONTINUOUS
 62
    7
370
   25
100
AcDbCircle
 10
253.05625
 20
22.075
 40
0.5000000000000568
100
AcDbArc
 50
180
 51
270
  0
ARC
  5
354
100
AcDbEntity
  8
0
  6
CONTINUOUS
 62
    7
370
   25
100
AcDbCircle
 10
266.05625
 20
22.075
 40
0.5000000000000036
100
AcDbArc
 50
270
 51
0
  0
ARC
  5
355
100
AcDbEntity
  8
0
  6
CONTINUOUS
 62
    7
370
   25
100
AcDbCircle
 10
192.2375
 20
35.075
 40
0.5000000000000284
100
AcDbArc
 50
0
 51
90
  0
ARC
  5
356
100
AcDbEntity
  8
0
  6
CONTINUOUS
 62
    7
370
   25
100
AcDbCircle
 10
179.2375
 20
35.075
 40
0.5000000000000284
100
AcDbArc
 50
90
 51
180
  0
ARC
  5
357
100
AcDbEntity
  8
0
  6
CONTINUOUS
 62
    7
370
   25
100
AcDbCircle
 10
179.2375
 20
22.075
 40
0.5000000000000284
100
AcDbArc
 50
180
 51
270
  0
ARC
  5
358
100
AcDbEntity
  8
0
  6
CONTINUOUS
 62
    7
370
   25
100
AcDbCircle
 10
192.2375
 20
22.075
 40
0.5000000000000284
100
AcDbArc
 50
270
 51
360
  0
ARC
  5
359
100
AcDbEntity
  8
0
  6
CONTINUOUS
 62
    7
370
   25
100
AcDbCircle
 10
211.2875
 20
35.075
 40
0.5000000000000284
100
AcDbArc
 50
0
 51
90
  0
ARC
  5
35A
100
AcDbEntity
  8
0
  6
CONTINUOUS
 62
    7
370
   25
100
AcDbCircle
 10
198.2875
 20
35.075
 40
0.5000000000000284
100
AcDbArc
 50
90
 51
180
  0
ARC
  5
35B
100
AcDbEntity
  8
0
  6
CONTINUOUS
 62
    7
370
   25
100
AcDbCircle
 10
198.2875
 20
22.075
 40
0.5000000000000284
100
AcDbArc
 50
180
 51
270
  0
ARC
  5
35C
100
AcDbEntity
  8
0
  6
CONTINUOUS
 62
    7
370
   25
100
AcDbCircle
 10
211.2875
 20
22.075
 40
0.5000000000000284
100
AcDbArc
 50
270
 51
360
  0
ARC
  5
35D
100
AcDbEntity
  8
0
  6
CONTINUOUS
 62
    7
370
   25
100
AcDbCircle
 10
277.9625
 20
16.025
 40
0.4999999999999432
100
AcDbArc
 50
360
 51
90
  0
ARC
  5
35E
100
AcDbEntity
  8
0
  6
CONTINUOUS
 62
    7
370
   25
100
AcDbCircle
 10
264.9625
 20
16.025
 40
0.5000000000001137
100
AcDbArc
 50
90
 51
180
  0
ARC
  5
35F
100
AcDbEntity
  8
0
  6
CONTINUOUS
 62
    7
370
   25
100
AcDbCircle
 10
264.9625
 20
3.025
 40
0.500000000000024
100
AcDbArc
 50
180
 51
270
  0
ARC
  5
360
100
AcDbEntity
  8
0
  6
CONTINUOUS
 62
    7
370
   25
100
AcDbCircle
 10
277.9625
 20
3.025
 40
0.4999999999999107
100
AcDbArc
 50
270
 51
0
  0
ARC
  5
361
100
AcDbEntity
  8
0
  6
CONTINUOUS
 62
    7
370
   25
100
AcDbCircle
 10
173.1875
 20
35.075
 40
0.5000000000000284
100
AcDbArc
 50
0
 51
90
  0
ARC
  5
362
100
AcDbEntity
  8
0
  6
CONTINUOUS
 62
    7
370
   25
100
AcDbCircle
 10
160.1875
 20
35.075
 40
0.5000000000000284
100
AcDbArc
 50
90
 51
180
  0
ARC
  5
363
100
AcDbEntity
  8
0
  6
CONTINUOUS
 62
    7
370
   25
100
AcDbCircle
 10
160.1875
 20
22.075
 40
0.5000000000000284
100
AcDbArc
 50
180
 51
270
  0
ARC
  5
364
100
AcDbEntity
  8
0
  6
CONTINUOUS
 62
    7
370
   25
100
AcDbCircle
 10
173.1875
 20
22.075
 40
0.5000000000000284
100
AcDbArc
 50
270
 51
360
  0
ARC
  5
365
100
AcDbEntity
  8
0
  6
CONTINUOUS
 62
    7
370
   25
100
AcDbCircle
 10
154.1375
 20
35.075
 40
0.5000000000000284
100
AcDbArc
 50
0
 51
90
  0
ARC
  5
366
100
AcDbEntity
  8
0
  6
CONTINUOUS
 62
    7
370
   25
100
AcDbCircle
 10
141.1375
 20
35.075
 40
0.5000000000000284
100
AcDbArc
 50
90
 51
180
  0
ARC
  5
367
100
AcDbEntity
  8
0
  6
CONTINUOUS
 62
    7
370
   25
100
AcDbCircle
 10
141.1375
 20
22.075
 40
0.5000000000000284
100
AcDbArc
 50
180
 51
270
  0
ARC
  5
368
100
AcDbEntity
  8
0
  6
CONTINUOUS
 62
    7
370
   25
100
AcDbCircle
 10
154.1375
 20
22.075
 40
0.5000000000000284
100
AcDbArc
 50
270
 51
360
  0
ARC
  5
369
100
AcDbEntity
  8
0
  6
CONTINUOUS
 62
    7
370
   25
100
AcDbCircle
 10
135.0875
 20
35.075
 40
0.5000000000000284
100
AcDbArc
 50
0
 51
90
  0
ARC
  5
36A
100
AcDbEntity
  8
0
  6
CONTINUOUS
 62
    7
370
   25
100
AcDbCircle
 10
122.0875
 20
35.075
 40
0.5
100
AcDbArc
 50
90
 51
180
  0
ARC
  5
36B
100
AcDbEntity
  8
0
  6
CONTINUOUS
 62
    7
370
   25
100
AcDbCircle
 10
122.0875
 20
22.075
 40
0.4999999999999929
100
AcDbArc
 50
180
 51
270
  0
ARC
  5
36C
100
AcDbEntity
  8
0
  6
CONTINUOUS
 62
    7
370
   25
100
AcDbCircle
 10
135.0875
 20
22.075
 40
0.5000000000000284
100
AcDbArc
 50
270
 51
360
  0
ARC
  5
36D
100
AcDbEntity
  8
0
  6
CONTINUOUS
 62
    7
370
   25
100
AcDbCircle
 10
116.0375
 20
35.075
 40
0.5000000000000284
100
AcDbArc
 50
0
 51
90
  0
ARC
  5
36E
100
AcDbEntity
  8
0
  6
CONTINUOUS
 62
    7
370
   25
100
AcDbCircle
 10
103.0375
 20
35.075
 40
0.4999999999999716
100
AcDbArc
 50
90
 51
180
  0
ARC
  5
36F
100
AcDbEntity
  8
0
  6
CONTINUOUS
 62
    7
370
   25
100
AcDbCircle
 10
103.0375
 20
22.075
 40
0.5000000000000142
100
AcDbArc
 50
180
 51
270
  0
ARC
  5
370
100
AcDbEntity
  8
0
  6
CONTINUOUS
 62
    7
370
   25
100
AcDbCircle
 10
116.0375
 20
22.075
 40
0.5000000000000355
100
AcDbArc
 50
270
 51
360
  0
ARC
  5
371
100
AcDbEntity
  8
0
  6
CONTINUOUS
 62
    7
370
   25
100
AcDbCircle
 10
197
 20
120.8
 40
0.5
100
AcDbArc
 50
360
 51
90
  0
ARC
  5
372
100
AcDbEntity
  8
0
  6
CONTINUOUS
 62
    7
370
   25
100
AcDbCircle
 10
184
 20
120.8
 40
0.5000000000000142
100
AcDbArc
 50
90
 51
180
  0
ARC
  5
373
100
AcDbEntity
  8
0
  6
CONTINUOUS
 62
    7
370
   25
100
AcDbCircle
 10
184
 20
107.8
 40
0.5
100
AcDbArc
 50
180
 51
270
  0
ARC
  5
374
100
AcDbEntity
  8
0
  6
CONTINUOUS
 62
    7
370
   25
100
AcDbCircle
 10
197
 20
107.8
 40
0.4999999999999716
100
AcDbArc
 50
270
 51
0
  0
ARC
  5
375
100
AcDbEntity
  8
0
  6
CONTINUOUS
 62
    7
370
   25
100
AcDbCircle
 10
177.95
 20
120.8
 40
0.5
100
AcDbArc
 50
360
 51
90
  0
ARC
  5
376
100
AcDbEntity
  8
0
  6
CONTINUOUS
 62
    7
370
   25
100
AcDbCircle
 10
164.95
 20
120.8
 40
0.5000000000000284
100
AcDbArc
 50
90
 51
180
  0
ARC
  5
377
100
AcDbEntity
  8
0
  6
CONTINUOUS
 62
    7
370
   25
100
AcDbCircle
 10
164.95
 20
107.8
 40
0.4999999999999858
100
AcDbArc
 50
180
 51
270
  0
ARC
  5
378
100
AcDbEntity
  8
0
  6
CONTINUOUS
 62
    7
370
   25
100
AcDbCircle
 10
177.95
 20
107.8
 40
0.5
100
AcDbArc
 50
270
 51
0
  0
ARC
  5
379
100
AcDbEntity
  8
0
  6
CONTINUOUS
 62
    7
370
   25
100
AcDbCircle
 10
158.9
 20
120.8
 40
0.5
100
AcDbArc
 50
360
 51
90
  0
ARC
  5
37A
100
AcDbEntity
  8
0
  6
CONTINUOUS
 62
    7
370
   25
100
AcDbCircle
 10
145.9
 20
120.8
 40
0.5000000000000142
100
AcDbArc
 50
90
 51
180
  0
ARC
  5
37B
100
AcDbEntity
  8
0
  6
CONTINUOUS
 62
    7
370
   25
100
AcDbCircle
 10
145.9
 20
107.8
 40
0.5
100
AcDbArc
 50
180
 51
270
  0
ARC
  5
37C
100
AcDbEntity
  8
0
  6
CONTINUOUS
 62
    7
370
   25
100
AcDbCircle
 10
158.9
 20
107.8
 40
0.4999999999999716
100
AcDbArc
 50
270
 51
0
  0
ARC
  5
37D
100
AcDbEntity
  8
0
  6
CONTINUOUS
 62
    7
370
   25
100
AcDbCircle
 10
139.85
 20
120.8
 40
0.5
100
AcDbArc
 50
360
 51
90
  0
ARC
  5
37E
100
AcDbEntity
  8
0
  6
CONTINUOUS
 62
    7
370
   25
100
AcDbCircle
 10
126.85
 20
120.8
 40
0.5000000000000284
100
AcDbArc
 50
90
 51
180
  0
ARC
  5
37F
100
AcDbEntity
  8
0
  6
CONTINUOUS
 62
    7
370
   25
100
AcDbCircle
 10
126.85
 20
107.8
 40
0.5000000000000284
100
AcDbArc
 50
180
 51
270
  0
ARC
  5
380
100
AcDbEntity
  8
0
  6
CONTINUOUS
 62
    7
370
   25
100
AcDbCircle
 10
139.85
 20
107.8
 40
0.4999999999999716
100
AcDbArc
 50
270
 51
0
  0
ARC
  5
381
100
AcDbEntity
  8
0
  6
CONTINUOUS
 62
    7
370
   25
100
AcDbCircle
 10
111.275
 20
120.8
 40
0.5000000000000568
100
AcDbArc
 50
0
 51
90
  0
ARC
  5
382
100
AcDbEntity
  8
0
  6
CONTINUOUS
 62
    7
370
   25
100
AcDbCircle
 10
98.27500000000001
 20
120.8
 40
0.5000000000000142
100
AcDbArc
 50
90
 51
180
  0
ARC
  5
383
100
AcDbEntity
  8
0
  6
CONTINUOUS
 62
    7
370
   25
100
AcDbCircle
 10
98.27500000000001
 20
107.8
 40
0.4999999999999858
100
AcDbArc
 50
180
 51
270
  0
ARC
  5
384
100
AcDbEntity
  8
0
  6
CONTINUOUS
 62
    7
370
   25
100
AcDbCircle
 10
111.275
 20
107.8
 40
0.5000000000000142
100
AcDbArc
 50
270
 51
360
  0
ARC
  5
385
100
AcDbEntity
  8
0
  6
CONTINUOUS
 62
    7
370
   25
100
AcDbCircle
 10
254.15
 20
16.025
 40
0.5
100
AcDbArc
 50
360
 51
90
  0
ARC
  5
386
100
AcDbEntity
  8
0
  6
CONTINUOUS
 62
    7
370
   25
100
AcDbCircle
 10
241.15
 20
16.025
 40
0.5000000000000284
100
AcDbArc
 50
90
 51
180
  0
ARC
  5
387
100
AcDbEntity
  8
0
  6
CONTINUOUS
 62
    7
370
   25
100
AcDbCircle
 10
241.15
 20
3.025
 40
0.5000000000000284
100
AcDbArc
 50
180
 51
270
  0
ARC
  5
388
100
AcDbEntity
  8
0
  6
CONTINUOUS
 62
    7
370
   25
100
AcDbCircle
 10
254.15
 20
3.025
 40
0.5
100
AcDbArc
 50
270
 51
0
  0
ARC
  5
389
100
AcDbEntity
  8
0
  6
CONTINUOUS
 62
    7
370
   25
100
AcDbCircle
 10
16.025
 20
120.8
 40
0.5000000000000142
100
AcDbArc
 50
0
 51
90
  0
ARC
  5
38A
100
AcDbEntity
  8
0
  6
CONTINUOUS
 62
    7
370
   25
100
AcDbCircle
 10
3.025
 20
120.8
 40
0.5000000000000293
100
AcDbArc
 50
90
 51
180
  0
ARC
  5
38B
100
AcDbEntity
  8
0
  6
CONTINUOUS
 62
    7
370
   25
100
AcDbCircle
 10
3.025
 20
107.8
 40
0.499999999999988
100
AcDbArc
 50
180
 51
270
  0
ARC
  5
38C
100
AcDbEntity
  8
0
  6
CONTINUOUS
 62
    7
370
   25
100
AcDbCircle
 10
16.025
 20
107.8
 40
0.4999999999999858
100
AcDbArc
 50
270
 51
0
  0
ARC
  5
38D
100
AcDbEntity
  8
0
  6
CONTINUOUS
 62
    7
370
   25
100
AcDbCircle
 10
54.125
 20
120.8
 40
0.5000000000000426
100
AcDbArc
 50
0
 51
90
  0
ARC
  5
38E
100
AcDbEntity
  8
0
  6
CONTINUOUS
 62
    7
370
   25
100
AcDbCircle
 10
41.125
 20
120.8
 40
0.5000000000000284
100
AcDbArc
 50
90
 51
180
  0
ARC
  5
38F
100
AcDbEntity
  8
0
  6
CONTINUOUS
 62
    7
370
   25
100
AcDbCircle
 10
41.125
 20
107.8
 40
0.5000000000000284
100
AcDbArc
 50
180
 51
270
  0
ARC
  5
390
100
AcDbEntity
  8
0
  6
CONTINUOUS
 62
    7
370
   25
100
AcDbCircle
 10
54.125
 20
107.8
 40
0.5000000000000142
100
AcDbArc
 50
270
 51
360
  0
ARC
  5
391
100
AcDbEntity
  8
0
  6
CONTINUOUS
 62
    7
370
   25
100
AcDbCircle
 10
73.175
 20
120.8
 40
0.5000000000000426
100
AcDbArc
 50
0
 51
90
  0
ARC
  5
392
100
AcDbEntity
  8
0
  6
CONTINUOUS
 62
    7
370
   25
100
AcDbCircle
 10
60.175
 20
120.8
 40
0.5000000000000355
100
AcDbArc
 50
90
 51
180
  0
ARC
  5
393
100
AcDbEntity
  8
0
  6
CONTINUOUS
 62
    7
370
   25
100
AcDbCircle
 10
60.175
 20
107.8
 40
0.5000000000000142
100
AcDbArc
 50
180
 51
270
  0
ARC
  5
394
100
AcDbEntity
  8
0
  6
CONTINUOUS
 62
    7
370
   25
100
AcDbCircle
 10
73.175
 20
107.8
 40
0.5000000000000142
100
AcDbArc
 50
270
 51
360
  0
ARC
  5
395
100
AcDbEntity
  8
0
  6
CONTINUOUS
 62
    7
370
   25
100
AcDbCircle
 10
92.22499999999999
 20
120.8
 40
0.5000000000000568
100
AcDbArc
 50
0
 51
90
  0
ARC
  5
396
100
AcDbEntity
  8
0
  6
CONTINUOUS
 62
    7
370
   25
100
AcDbCircle
 10
79.22499999999999
 20
120.8
 40
0.5000000000000142
100
AcDbArc
 50
90
 51
180
  0
ARC
  5
397
100
AcDbEntity
  8
0
  6
CONTINUOUS
 62
    7
370
   25
100
AcDbCircle
 10
79.22499999999999
 20
107.8
 40
0.4999999999999858
100
AcDbArc
 50
180
 51
270
  0
ARC
  5
398
100
AcDbEntity
  8
0
  6
CONTINUOUS
 62
    7
370
   25
100
AcDbCircle
 10
92.22499999999999
 20
107.8
 40
0.5000000000000142
100
AcDbArc
 50
270
 51
360
  0
ARC
  5
399
100
AcDbEntity
  8
0
  6
CONTINUOUS
 62
    7
370
   25
100
AcDbCircle
 10
311.3
 20
92.22499999999999
 40
0.5000000000000568
100
AcDbArc
 50
0
 51
90
  0
ARC
  5
39A
100
AcDbEntity
  8
0
  6
CONTINUOUS
 62
    7
370
   25
100
AcDbCircle
 10
298.3
 20
92.22499999999999
 40
0.5
100
AcDbArc
 50
90
 51
180
  0
ARC
  5
39B
100
AcDbEntity
  8
0
  6
CONTINUOUS
 62
    7
370
   25
100
AcDbCircle
 10
298.3
 20
79.22499999999999
 40
0.5
100
AcDbArc
 50
180
 51
270
  0
ARC
  5
39C
100
AcDbEntity
  8
0
  6
CONTINUOUS
 62
    7
370
   25
100
AcDbCircle
 10
311.3
 20
79.22499999999999
 40
0.5
100
AcDbArc
 50
270
 51
0
  0
ARC
  5
39D
100
AcDbEntity
  8
0
  6
CONTINUOUS
 62
    7
370
   25
100
AcDbCircle
 10
349.4
 20
120.8
 40
0.5000000000000142
100
AcDbArc
 50
0
 51
90
  0
ARC
  5
39E
100
AcDbEntity
  8
0
  6
CONTINUOUS
 62
    7
370
   25
100
AcDbCircle
 10
336.4
 20
120.8
 40
0.5000000000000568
100
AcDbArc
 50
90
 51
180
  0
ARC
  5
39F
100
AcDbEntity
  8
0
  6
CONTINUOUS
 62
    7
370
   25
100
AcDbCircle
 10
336.4
 20
107.8
 40
0.5000000000000142
100
AcDbArc
 50
180
 51
270
  0
ARC
  5
3A0
100
AcDbEntity
  8
0
  6
CONTINUOUS
 62
    7
370
   25
100
AcDbCircle
 10
349.4
 20
107.8
 40
0.5
100
AcDbArc
 50
270
 51
0
  0
ARC
  5
3A1
100
AcDbEntity
  8
0
  6
CONTINUOUS
 62
    7
370
   25
100
AcDbCircle
 10
330.35
 20
120.8
 40
0.5000000000000142
100
AcDbArc
 50
0
 51
90
  0
ARC
  5
3A2
100
AcDbEntity
  8
0
  6
CONTINUOUS
 62
    7
370
   25
100
AcDbCircle
 10
317.35
 20
120.8
 40
0.5000000000000568
100
AcDbArc
 50
90
 51
180
  0
ARC
  5
3A3
100
AcDbEntity
  8
0
  6
CONTINUOUS
 62
    7
370
   25
100
AcDbCircle
 10
317.35
 20
107.8
 40
0.5000000000000142
100
AcDbArc
 50
180
 51
270
  0
ARC
  5
3A4
100
AcDbEntity
  8
0
  6
CONTINUOUS
 62
    7
370
   25
100
AcDbCircle
 10
330.35
 20
107.8
 40
0.5
100
AcDbArc
 50
270
 51
0
  0
ARC
  5
3A5
100
AcDbEntity
  8
0
  6
CONTINUOUS
 62
    7
370
   25
100
AcDbCircle
 10
311.3
 20
73.175
 40
0.5
100
AcDbArc
 50
0
 51
90
  0
ARC
  5
3A6
100
AcDbEntity
  8
0
  6
CONTINUOUS
 62
    7
370
   25
100
AcDbCircle
 10
298.3
 20
73.175
 40
0.5
100
AcDbArc
 50
90
 51
180
  0
ARC
  5
3A7
100
AcDbEntity
  8
0
  6
CONTINUOUS
 62
    7
370
   25
100
AcDbCircle
 10
298.3
 20
60.175
 40
0.5
100
AcDbArc
 50
180
 51
270
  0
ARC
  5
3A8
100
AcDbEntity
  8
0
  6
CONTINUOUS
 62
    7
370
   25
100
AcDbCircle
 10
311.3
 20
60.175
 40
0.5
100
AcDbArc
 50
270
 51
0
  0
ARC
  5
3A9
100
AcDbEntity
  8
0
  6
CONTINUOUS
 62
    7
370
   25
100
AcDbCircle
 10
349.4
 20
92.22499999999999
 40
0.5000000000000142
100
AcDbArc
 50
0
 51
90
  0
ARC
  5
3AA
100
AcDbEntity
  8
0
  6
CONTINUOUS
 62
    7
370
   25
100
AcDbCircle
 10
336.4
 20
92.22499999999999
 40
0.5000000000000568
100
AcDbArc
 50
90
 51
180
  0
ARC
  5
3AB
100
AcDbEntity
  8
0
  6
CONTINUOUS
 62
    7
370
   25
100
AcDbCircle
 10
336.4
 20
79.22499999999999
 40
0.5
100
AcDbArc
 50
180
 51
270
  0
ARC
  5
3AC
100
AcDbEntity
  8
0
  6
CONTINUOUS
 62
    7
370
   25
100
AcDbCircle
 10
349.4
 20
79.22499999999999
 40
0.5
100
AcDbArc
 50
270
 51
0
  0
ARC
  5
3AD
100
AcDbEntity
  8
0
  6
CONTINUOUS
 62
    7
370
   25
100
AcDbCircle
 10
330.35
 20
92.22499999999999
 40
0.5000000000000142
100
AcDbArc
 50
0
 51
90
  0
ARC
  5
3AE
100
AcDbEntity
  8
0
  6
CONTINUOUS
 62
    7
370
   25
100
AcDbCircle
 10
317.35
 20
92.22499999999999
 40
0.5000000000000568
100
AcDbArc
 50
90
 51
180
  0
ARC
  5
3AF
100
AcDbEntity
  8
0
  6
CONTINUOUS
 62
    7
370
   25
100
AcDbCircle
 10
317.35
 20
79.22499999999999
 40
0.5
100
AcDbArc
 50
180
 51
270
  0
ARC
  5
3B0
100
AcDbEntity
  8
0
  6
CONTINUOUS
 62
    7
370
   25
100
AcDbCircle
 10
330.35
 20
79.22499999999999
 40
0.5
100
AcDbArc
 50
270
 51
0
  0
ARC
  5
3B1
100
AcDbEntity
  8
0
  6
CONTINUOUS
 62
    7
370
   25
100
AcDbCircle
 10
311.3
 20
120.8
 40
0.5000000000000568
100
AcDbArc
 50
0
 51
90
  0
ARC
  5
3B2
100
AcDbEntity
  8
0
  6
CONTINUOUS
 62
    7
370
   25
100
AcDbCircle
 10
298.3
 20
120.8
 40
0.5000000000000142
100
AcDbArc
 50
90
 51
180
  0
ARC
  5
3B3
100
AcDbEntity
  8
0
  6
CONTINUOUS
 62
    7
370
   25
100
AcDbCircle
 10
298.3
 20
107.8
 40
0.5000000000000142
100
AcDbArc
 50
180
 51
270
  0
ARC
  5
3B4
100
AcDbEntity
  8
0
  6
CONTINUOUS
 62
    7
370
   25
100
AcDbCircle
 10
311.3
 20
107.8
 40
0.5
100
AcDbArc
 50
270
 51
0
  0
ARC
  5
3B5
100
AcDbEntity
  8
0
  6
CONTINUOUS
 62
    7
370
   25
100
AcDbCircle
 10
282.725
 20
120.8
 40
0.5000000000000568
100
AcDbArc
 50
0
 51
90
  0
ARC
  5
3B6
100
AcDbEntity
  8
0
  6
CONTINUOUS
 62
    7
370
   25
100
AcDbCircle
 10
269.725
 20
120.8
 40
0.5000000000000568
100
AcDbArc
 50
90
 51
180
  0
ARC
  5
3B7
100
AcDbEntity
  8
0
  6
CONTINUOUS
 62
    7
370
   25
100
AcDbCircle
 10
269.725
 20
107.8
 40
0.5000000000000568
100
AcDbArc
 50
180
 51
270
  0
ARC
  5
3B8
100
AcDbEntity
  8
0
  6
CONTINUOUS
 62
    7
370
   25
100
AcDbCircle
 10
282.725
 20
107.8
 40
0.5000000000000568
100
AcDbArc
 50
270
 51
360
  0
ARC
  5
3B9
100
AcDbEntity
  8
0
  6
CONTINUOUS
 62
    7
370
   25
100
AcDbCircle
 10
263.675
 20
120.8
 40
0.5000000000000568
100
AcDbArc
 50
0
 51
90
  0
ARC
  5
3BA
100
AcDbEntity
  8
0
  6
CONTINUOUS
 62
    7
370
   25
100
AcDbCircle
 10
250.675
 20
120.8
 40
0.5000000000000568
100
AcDbArc
 50
90
 51
180
  0
ARC
  5
3BB
100
AcDbEntity
  8
0
  6
CONTINUOUS
 62
    7
370
   25
100
AcDbCircle
 10
250.675
 20
107.8
 40
0.5
100
AcDbArc
 50
180
 51
270
  0
ARC
  5
3BC
100
AcDbEntity
  8
0
  6
CONTINUOUS
 62
    7
370
   25
100
AcDbCircle
 10
263.675
 20
107.8
 40
0.5000000000000284
100
AcDbArc
 50
270
 51
360
  0
ARC
  5
3BD
100
AcDbEntity
  8
0
  6
CONTINUOUS
 62
    7
370
   25
100
AcDbCircle
 10
244.625
 20
120.8
 40
0.4999999999999858
100
AcDbArc
 50
360
 51
90
  0
ARC
  5
3BE
100
AcDbEntity
  8
0
  6
CONTINUOUS
 62
    7
370
   25
100
AcDbCircle
 10
231.625
 20
120.8
 40
0.5000000000000284
100
AcDbArc
 50
90
 51
180
  0
ARC
  5
3BF
100
AcDbEntity
  8
0
  6
CONTINUOUS
 62
    7
370
   25
100
AcDbCircle
 10
231.625
 20
107.8
 40
0.5
100
AcDbArc
 50
180
 51
270
  0
ARC
  5
3C0
100
AcDbEntity
  8
0
  6
CONTINUOUS
 62
    7
370
   25
100
AcDbCircle
 10
244.625
 20
107.8
 40
0.4999999999999716
100
AcDbArc
 50
270
 51
0
  0
ARC
  5
3C1
100
AcDbEntity
  8
0
  6
CONTINUOUS
 62
    7
370
   25
100
AcDbCircle
 10
225.575
 20
120.8
 40
0.4999999999999858
100
AcDbArc
 50
360
 51
90
  0
ARC
  5
3C2
100
AcDbEntity
  8
0
  6
CONTINUOUS
 62
    7
370
   25
100
AcDbCircle
 10
212.575
 20
120.8
 40
0.5000000000000284
100
AcDbArc
 50
90
 51
180
  0
ARC
  5
3C3
100
AcDbEntity
  8
0
  6
CONTINUOUS
 62
    7
370
   25
100
AcDbCircle
 10
212.575
 20
107.8
 40
0.5
100
AcDbArc
 50
180
 51
270
  0
ARC
  5
3C4
100
AcDbEntity
  8
0
  6
CONTINUOUS
 62
    7
370
   25
100
AcDbCircle
 10
225.575
 20
107.8
 40
0.4999999999999716
100
AcDbArc
 50
270
 51
0
  0
ARC
  5
3C5
100
AcDbEntity
  8
0
  6
CONTINUOUS
 62
    7
370
   25
100
AcDbCircle
 10
250.15625
 20
34.575
 40
1.000000000000007
100
AcDbArc
 50
0
 51
90
  0
ARC
  5
3C6
100
AcDbEntity
  8
0
  6
CONTINUOUS
 62
    7
370
   25
100
AcDbCircle
 10
245.15625
 20
34.575
 40
0.9999999999999361
100
AcDbArc
 50
90
 51
180
  0
ARC
  5
3C7
100
AcDbEntity
  8
0
  6
CONTINUOUS
 62
    7
370
   25
100
AcDbCircle
 10
245.15625
 20
20.575
 40
1.000000000000028
100
AcDbArc
 50
180
 51
270
  0
ARC
  5
3C8
100
AcDbEntity
  8
0
  6
CONTINUOUS
 62
    7
370
   25
100
AcDbCircle
 10
250.15625
 20
20.575
 40
0.9999999999999716
100
AcDbArc
 50
270
 51
0
  0
ARC
  5
3C9
100
AcDbEntity
  8
0
  6
CONTINUOUS
 62
    7
370
   25
100
AcDbCircle
 10
273.95625
 20
34.575
 40
1.000000000000057
100
AcDbArc
 50
0
 51
90
  0
ARC
  5
3CA
100
AcDbEntity
  8
0
  6
CONTINUOUS
 62
    7
370
   25
100
AcDbCircle
 10
268.95625
 20
34.575
 40
1.000000000000057
100
AcDbArc
 50
90
 51
180
  0
ARC
  5
3CB
100
AcDbEntity
  8
0
  6
CONTINUOUS
 62
    7
370
   25
100
AcDbCircle
 10
268.95625
 20
20.575
 40
1.000000000000057
100
AcDbArc
 50
180
 51
270
  0
ARC
  5
3CC
100
AcDbEntity
  8
0
  6
CONTINUOUS
 62
    7
370
   25
100
AcDbCircle
 10
273.95625
 20
20.575
 40
1.000000000000057
100
AcDbArc
 50
270
 51
360
  0
ARC
  5
3CD
100
AcDbEntity
  8
0
  6
CONTINUOUS
 62
    7
370
   25
100
AcDbCircle
 10
257.3
 20
91.72499999999999
 40
0.9999999999999432
100
AcDbArc
 50
360
 51
90
  0
ARC
  5
3CE
100
AcDbEntity
  8
0
  6
CONTINUOUS
 62
    7
370
   25
100
AcDbCircle
 10
252.3
 20
91.72499999999999
 40
1.000000000000043
100
AcDbArc
 50
90
 51
180
  0
ARC
  5
3CF
100
AcDbEntity
  8
0
  6
CONTINUOUS
 62
    7
370
   25
100
AcDbCircle
 10
252.3
 20
77.72499999999999
 40
1.000000000000085
100
AcDbArc
 50
180
 51
270
  0
ARC
  5
3D0
100
AcDbEntity
  8
0
  6
CONTINUOUS
 62
    7
370
   25
100
AcDbCircle
 10
257.3
 20
77.72499999999999
 40
0.9999999999999432
100
AcDbArc
 50
270
 51
0
  0
ARC
  5
3D1
100
AcDbEntity
  8
0
  6
CONTINUOUS
 62
    7
370
   25
100
AcDbCircle
 10
281.1
 20
91.72499999999999
 40
1.000000000000057
100
AcDbArc
 50
0
 51
90
  0
ARC
  5
3D2
100
AcDbEntity
  8
0
  6
CONTINUOUS
 62
    7
370
   25
100
AcDbCircle
 10
276.1
 20
91.72499999999999
 40
0.9999999999999432
100
AcDbArc
 50
90
 51
180
  0
ARC
  5
3D3
100
AcDbEntity
  8
0
  6
CONTINUOUS
 62
    7
370
   25
100
AcDbCircle
 10
276.1
 20
77.72499999999999
 40
1.000000000000057
100
AcDbArc
 50
180
 51
270
  0
ARC
  5
3D4
100
AcDbEntity
  8
0
  6
CONTINUOUS
 62
    7
370
   25
100
AcDbCircle
 10
281.1
 20
77.72499999999999
 40
1.000000000000057
100
AcDbArc
 50
270
 51
0
  0
ARC
  5
3D5
100
AcDbEntity
  8
0
  6
CONTINUOUS
 62
    7
370
   25
100
AcDbCircle
 10
88.22499999999999
 20
15.525
 40
1
100
AcDbArc
 50
0
 51
90
  0
ARC
  5
3D6
100
AcDbEntity
  8
0
  6
CONTINUOUS
 62
    7
370
   25
100
AcDbCircle
 10
83.22499999999999
 20
15.525
 40
1.000000000000002
100
AcDbArc
 50
90
 51
180
  0
ARC
  5
3D7
100
AcDbEntity
  8
0
  6
CONTINUOUS
 62
    7
370
   25
100
AcDbCircle
 10
83.22499999999999
 20
1.525
 40
1.000000000000006
100
AcDbArc
 50
180
 51
270
  0
ARC
  5
3D8
100
AcDbEntity
  8
0
  6
CONTINUOUS
 62
    7
370
   25
100
AcDbCircle
 10
88.22499999999999
 20
1.525
 40
0.9999999999999858
100
AcDbArc
 50
270
 51
0
  0
ARC
  5
3D9
100
AcDbEntity
  8
0
  6
CONTINUOUS
 62
    7
370
   25
100
AcDbCircle
 10
202.525
 20
15.525
 40
1.000000000000028
100
AcDbArc
 50
0
 51
90
  0
ARC
  5
3DA
100
AcDbEntity
  8
0
  6
CONTINUOUS
 62
    7
370
   25
100
AcDbCircle
 10
197.525
 20
15.525
 40
0.9999999999999716
100
AcDbArc
 50
90
 51
180
  0
ARC
  5
3DB
100
AcDbEntity
  8
0
  6
CONTINUOUS
 62
    7
370
   25
100
AcDbCircle
 10
197.525
 20
1.525
 40
1.000000000000012
100
AcDbArc
 50
180
 51
270
  0
ARC
  5
3DC
100
AcDbEntity
  8
0
  6
CONTINUOUS
 62
    7
370
   25
100
AcDbCircle
 10
202.525
 20
1.525
 40
0.9999999999999778
100
AcDbArc
 50
270
 51
0
  0
ARC
  5
3DD
100
AcDbEntity
  8
0
  6
CONTINUOUS
 62
    7
370
   25
100
AcDbCircle
 10
289.775
 20
91.22499999999999
 40
1.500000000000028
100
AcDbArc
 50
90
 51
180
  0
ARC
  5
3DE
100
AcDbEntity
  8
0
  6
CONTINUOUS
 62
    7
370
   25
100
AcDbCircle
 10
289.775
 20
4.025
 40
1.500000000000171
100
AcDbArc
 50
180
 51
270
  0
ARC
  5
3DF
100
AcDbEntity
  8
0
  6
CONTINUOUS
 62
    7
370
   25
100
AcDbCircle
 10
291.25
 20
4.025
 40
1.500000000000057
100
AcDbArc
 50
270
 51
0
  0
ARC
  5
3E0
100
AcDbEntity
  8
0
  6
CONTINUOUS
 62
    7
370
   25
100
AcDbCircle
 10
291.25
 20
91.22499999999999
 40
1.499999999999943
100
AcDbArc
 50
360
 51
90
  0
ARC
  5
3E1
100
AcDbEntity
  8
0
  6
CONTINUOUS
 62
    7
370
   25
100
AcDbCircle
 10
23.075
 20
108.8
 40
1.499999999999989
100
AcDbArc
 50
180
 51
270
  0
ARC
  5
3E2
100
AcDbEntity
  8
0
  6
CONTINUOUS
 62
    7
370
   25
100
AcDbCircle
 10
34.075
 20
108.8
 40
1.499999999999957
100
AcDbArc
 50
270
 51
0
  0
ARC
  5
3E3
100
AcDbEntity
  8
0
  6
CONTINUOUS
 62
    7
370
   25
100
AcDbCircle
 10
34.075
 20
119.8
 40
1.500000000000014
100
AcDbArc
 50
0
 51
90
  0
ARC
  5
3E4
100
AcDbEntity
  8
0
  6
CONTINUOUS
 62
    7
370
   25
100
AcDbCircle
 10
23.075
 20
119.8
 40
1.500000000000036
100
AcDbArc
 50
90
 51
180
  0
ARC
  5
3E5
100
AcDbEntity
  8
0
  6
CONTINUOUS
 62
    7
370
   25
100
AcDbCircle
 10
11.025
 20
100.75
 40
1.5
100
AcDbArc
 50
90
 51
180
  0
ARC
  5
3E6
100
AcDbEntity
  8
0
  6
CONTINUOUS
 62
    7
370
   25
100
AcDbCircle
 10
11.025
 20
99.27500000000001
 40
1.499999999999986
100
AcDbArc
 50
180
 51
270
  0
ARC
  5
3E7
100
AcDbEntity
  8
0
  6
CONTINUOUS
 62
    7
370
   25
100
AcDbCircle
 10
88.9875
 20
99.27500000000001
 40
1.5
100
AcDbArc
 50
270
 51
0
  0
ARC
  5
3E8
100
AcDbEntity
  8
0
  6
CONTINUOUS
 62
    7
370
   25
100
AcDbCircle
 10
88.9875
 20
100.75
 40
1.500000000000028
100
AcDbArc
 50
0
 51
90
  0
ARC
  5
3E9
100
AcDbEntity
  8
0
  6
CONTINUOUS
 62
    7
370
   25
100
AcDbCircle
 10
101.5125
 20
100.75
 40
1.500000000000043
100
AcDbArc
 50
90
 51
180
  0
ARC
  5
3EA
100
AcDbEntity
  8
0
  6
CONTINUOUS
 62
    7
370
   25
100
AcDbCircle
 10
101.5125
 20
99.27500000000001
 40
1.500000000000014
100
AcDbArc
 50
180
 51
270
  0
ARC
  5
3EB
100
AcDbEntity
  8
0
  6
CONTINUOUS
 62
    7
370
   25
100
AcDbCircle
 10
184.2375
 20
99.27500000000001
 40
1.500000000000028
100
AcDbArc
 50
270
 51
0
  0
ARC
  5
3EC
100
AcDbEntity
  8
0
  6
CONTINUOUS
 62
    7
370
   25
100
AcDbCircle
 10
184.2375
 20
100.75
 40
1.500000000000028
100
AcDbArc
 50
0
 51
90
  0
ARC
  5
3ED
100
AcDbEntity
  8
0
  6
CONTINUOUS
 62
    7
370
   25
100
AcDbCircle
 10
204.05
 20
108.8
 40
1.499999999999972
100
AcDbArc
 50
180
 51
270
  0
ARC
  5
3EE
100
AcDbEntity
  8
0
  6
CONTINUOUS
 62
    7
370
   25
100
AcDbCircle
 10
205.525
 20
108.8
 40
1.5
100
AcDbArc
 50
270
 51
0
  0
ARC
  5
3EF
100
AcDbEntity
  8
0
  6
CONTINUOUS
 62
    7
370
   25
100
AcDbCircle
 10
205.525
 20
119.8
 40
1.500000000000028
100
AcDbArc
 50
0
 51
90
  0
ARC
  5
3F0
100
AcDbEntity
  8
0
  6
CONTINUOUS
 62
    7
370
   25
100
AcDbCircle
 10
204.05
 20
119.8
 40
1.500000000000028
100
AcDbArc
 50
90
 51
180
  0
ARC
  5
3F1
100
AcDbEntity
  8
0
  6
CONTINUOUS
 62
    7
370
   25
100
AcDbCircle
 10
118.325
 20
119.8
 40
1.5
100
AcDbArc
 50
90
 51
180
  0
ARC
  5
3F2
100
AcDbEntity
  8
0
  6
CONTINUOUS
 62
    7
370
   25
100
AcDbCircle
 10
118.325
 20
108.8
 40
1.499999999999957
100
AcDbArc
 50
180
 51
270
  0
ARC
  5
3F3
100
AcDbEntity
  8
0
  6
CONTINUOUS
 62
    7
370
   25
100
AcDbCircle
 10
119.8
 20
108.8
 40
1.499999999999986
100
AcDbArc
 50
270
 51
0
  0
ARC
  5
3F4
100
AcDbEntity
  8
0
  6
CONTINUOUS
 62
    7
370
   25
100
AcDbCircle
 10
119.8
 20
119.8
 40
1.500000000000028
100
AcDbArc
 50
0
 51
90
  0
ARC
  5
3F5
100
AcDbEntity
  8
0
  6
CONTINUOUS
 62
    7
370
   25
100
AcDbCircle
 10
196.7625
 20
100.75
 40
1.499999999999986
100
AcDbArc
 50
90
 51
180
  0
ARC
  5
3F6
100
AcDbEntity
  8
0
  6
CONTINUOUS
 62
    7
370
   25
100
AcDbCircle
 10
196.7625
 20
99.27500000000001
 40
1.499999999999957
100
AcDbArc
 50
180
 51
270
  0
ARC
  5
3F7
100
AcDbEntity
  8
0
  6
CONTINUOUS
 62
    7
370
   25
100
AcDbCircle
 10
281.725
 20
99.27500000000001
 40
1.499999999999943
100
AcDbArc
 50
270
 51
0
  0
ARC
  5
3F8
100
AcDbEntity
  8
0
  6
CONTINUOUS
 62
    7
370
   25
100
AcDbCircle
 10
281.725
 20
100.75
 40
1.500000000000114
100
AcDbArc
 50
0
 51
90
  0
ARC
  5
3F9
100
AcDbEntity
  8
0
  6
CONTINUOUS
 62
    7
370
   25
100
AcDbCircle
 10
289.775
 20
108.8
 40
1.500000000000114
100
AcDbArc
 50
180
 51
270
  0
ARC
  5
3FA
100
AcDbEntity
  8
0
  6
CONTINUOUS
 62
    7
370
   25
100
AcDbCircle
 10
291.25
 20
108.8
 40
1.500000000000128
100
AcDbArc
 50
270
 51
360
  0
ARC
  5
3FB
100
AcDbEntity
  8
0
  6
CONTINUOUS
 62
    7
370
   25
100
AcDbCircle
 10
291.25
 20
119.8
 40
1.499999999999943
100
AcDbArc
 50
360
 51
90
  0
ARC
  5
3FC
100
AcDbEntity
  8
0
  6
CONTINUOUS
 62
    7
370
   25
100
AcDbCircle
 10
289.775
 20
119.8
 40
1.500000000000114
100
AcDbArc
 50
90
 51
180
  0
ARC
  5
3FD
100
AcDbEntity
  8
0
  6
CONTINUOUS
 62
    7
370
   25
100
AcDbCircle
 10
299.3
 20
99.27500000000001
 40
1.5
100
AcDbArc
 50
180
 51
270
  0
ARC
  5
3FE
100
AcDbEntity
  8
0
  6
CONTINUOUS
 62
    7
370
   25
100
AcDbCircle
 10
341.4
 20
99.27500000000001
 40
1.500000000000085
100
AcDbArc
 50
270
 51
360
  0
ARC
  5
3FF
100
AcDbEntity
  8
0
  6
CONTINUOUS
 62
    7
370
   25
100
AcDbCircle
 10
341.4
 20
100.75
 40
1.5
100
AcDbArc
 50
360
 51
90
  0
ARC
  5
400
100
AcDbEntity
  8
0
  6
CONTINUOUS
 62
    7
370
   25
100
AcDbCircle
 10
299.3
 20
100.75
 40
1.500000000000114
100
AcDbArc
 50
90
 51
180
  0
ARC
  5
401
100
AcDbEntity
  8
0
  6
CONTINUOUS
 62
    7
370
   25
100
AcDbCircle
 10
299.3
 20
23.075
 40
1.5
100
AcDbArc
 50
180
 51
270
  0
ARC
  5
402
100
AcDbEntity
  8
0
  6
CONTINUOUS
 62
    7
370
   25
100
AcDbCircle
 10
310.3
 20
23.075
 40
1.500000000000114
100
AcDbArc
 50
270
 51
360
  0
ARC
  5
403
100
AcDbEntity
  8
0
  6
CONTINUOUS
 62
    7
370
   25
100
AcDbCircle
 10
310.3
 20
34.075
 40
1.499999999999943
100
AcDbArc
 50
360
 51
90
  0
ARC
  5
404
100
AcDbEntity
  8
0
  6
CONTINUOUS
 62
    7
370
   25
100
AcDbCircle
 10
299.3
 20
34.075
 40
1.500000000000114
100
AcDbArc
 50
90
 51
180
  0
ARC
  5
405
100
AcDbEntity
  8
0
  6
CONTINUOUS
 62
    7
370
   25
100
AcDbCircle
 10
341.4
 20
34.075
 40
1.5
100
AcDbArc
 50
360
 51
90
  0
ARC
  5
406
100
AcDbEntity
  8
0
  6
CONTINUOUS
 62
    7
370
   25
100
AcDbCircle
 10
337.4
 20
34.075
 40
1.500000000000057
100
AcDbArc
 50
90
 51
180
  0
ARC
  5
407
100
AcDbEntity
  8
0
  6
CONTINUOUS
 62
    7
370
   25
100
AcDbCircle
 10
337.4
 20
23.075
 40
1.499999999999943
100
AcDbArc
 50
180
 51
270
  0
ARC
  5
408
100
AcDbEntity
  8
0
  6
CONTINUOUS
 62
    7
370
   25
100
AcDbCircle
 10
341.4
 20
23.075
 40
1.500000000000028
100
AcDbArc
 50
270
 51
0
  0
ARC
  5
409
100
AcDbEntity
  8
0
  6
CONTINUOUS
 62
    7
370
   25
100
AcDbCircle
 10
299.3
 20
48.3625
 40
1.5
100
AcDbArc
 50
90
 51
180
  0
ARC
  5
40A
100
AcDbEntity
  8
0
  6
CONTINUOUS
 62
    7
370
   25
100
AcDbCircle
 10
299.3
 20
46.8875
 40
1.5
100
AcDbArc
 50
180
 51
270
  0
ARC
  5
40B
100
AcDbEntity
  8
0
  6
CONTINUOUS
 62
    7
370
   25
100
AcDbCircle
 10
348.4
 20
46.8875
 40
1.499999999999886
100
AcDbArc
 50
270
 51
0
  0
ARC
  5
40C
100
AcDbEntity
  8
0
  6
CONTINUOUS
 62
    7
370
   25
100
AcDbCircle
 10
348.4
 20
48.3625
 40
1.500000000000057
100
AcDbArc
 50
0
 51
90
  0
LINE
  5
40D
100
AcDbEntity
  8
0
  6
CONTINUOUS
 62
    7
370
   25
100
AcDbLine
 10
239.8645777725082
 20
54.62472891870299
 11
226.8645777725082
 21
54.62472891870299
  0
LINE
  5
40E
100
AcDbEntity
  8
0
  6
CONTINUOUS
 62
    7
370
   25
100
AcDbLine
 10
226.3645777725082
 20
54.12472891870299
 11
226.3645777725082
 21
41.12472891870299
  0
LINE
  5
40F
100
AcDbEntity
  8
0
  6
CONTINUOUS
 62
    7
370
   25
100
AcDbLine
 10
226.8645777725082
 20
40.62472891870299
 11
239.8645777725082
 21
40.62472891870299
  0
LINE
  5
410
100
AcDbEntity
  8
0
  6
CONTINUOUS
 62
    7
370
   25
100
AcDbLine
 10
240.3645777725082
 20
41.12472891870299
 11
240.3645777725082
 21
54.12472891870299
  0
LINE
  5
411
100
AcDbEntity
  8
0
  6
CONTINUOUS
 62
    7
370
   25
100
AcDbLine
 10
258.9145777725082
 20
54.62472891870299
 11
245.9145777725082
 21
54.62472891870299
  0
LINE
  5
412
100
AcDbEntity
  8
0
  6
CONTINUOUS
 62
    7
370
   25
100
AcDbLine
 10
245.4145777725082
 20
54.12472891870299
 11
245.4145777725082
 21
41.12472891870299
  0
LINE
  5
413
100
AcDbEntity
  8
0
  6
CONTINUOUS
 62
    7
370
   25
100
AcDbLine
 10
245.9145777725082
 20
40.62472891870299
 11
258.9145777725082
 21
40.62472891870299
  0
LINE
  5
414
100
AcDbEntity
  8
0
  6
CONTINUOUS
 62
    7
370
   25
100
AcDbLine
 10
259.4145777725082
 20
41.12472891870299
 11
259.4145777725082
 21
54.12472891870299
  0
ARC
  5
415
100
AcDbEntity
  8
0
  6
CONTINUOUS
 62
    7
370
   25
100
AcDbCircle
 10
239.8645777725082
 20
54.12472891870299
 40
0.5000000000000284
100
AcDbArc
 50
0
 51
90
  0
ARC
  5
416
100
AcDbEntity
  8
0
  6
CONTINUOUS
 62
    7
370
   25
100
AcDbCircle
 10
226.8645777725082
 20
54.12472891870299
 40
0.5000000000000284
100
AcDbArc
 50
90
 51
180
  0
ARC
  5
417
100
AcDbEntity
  8
0
  6
CONTINUOUS
 62
    7
370
   25
100
AcDbCircle
 10
226.8645777725082
 20
41.12472891870299
 40
0.5000000000000284
100
AcDbArc
 50
180
 51
270
  0
ARC
  5
418
100
AcDbEntity
  8
0
  6
CONTINUOUS
 62
    7
370
   25
100
AcDbCircle
 10
239.8645777725082
 20
41.12472891870299
 40
0.5000000000000284
100
AcDbArc
 50
270
 51
360
  0
ARC
  5
419
100
AcDbEntity
  8
0
  6
CONTINUOUS
 62
    7
370
   25
100
AcDbCircle
 10
258.9145777725082
 20
54.12472891870299
 40
0.5000000000000284
100
AcDbArc
 50
0
 51
90
  0
ARC
  5
41A
100
AcDbEntity
  8
0
  6
CONTINUOUS
 62
    7
370
   25
100
AcDbCircle
 10
245.9145777725082
 20
54.12472891870299
 40
0.5000000000000284
100
AcDbArc
 50
90
 51
180
  0
ARC
  5
41B
100
AcDbEntity
  8
0
  6
CONTINUOUS
 62
    7
370
   25
100
AcDbCircle
 10
245.9145777725082
 20
41.12472891870299
 40
0.5000000000000284
100
AcDbArc
 50
180
 51
270
  0
ARC
  5
41C
100
AcDbEntity
  8
0
  6
CONTINUOUS
 62
    7
370
   25
100
AcDbCircle
 10
258.9145777725082
 20
41.12472891870299
 40
0.5000000000000284
100
AcDbArc
 50
270
 51
360
  0
LINE
  5
41D
100
AcDbEntity
  8
0
  6
CONTINUOUS
 62
    7
370
   25
100
AcDbLine
 10
39.83758875678768
 20
35.57312214265437
 11
26.83758875678768
 21
35.57312214265437
  0
LINE
  5
41E
100
AcDbEntity
  8
0
  6
CONTINUOUS
 62
    7
370
   25
100
AcDbLine
 10
26.33758875678768
 20
35.07312214265437
 11
26.33758875678768
 21
22.07312214265437
  0
LINE
  5
41F
100
AcDbEntity
  8
0
  6
CONTINUOUS
 62
    7
370
   25
100
AcDbLine
 10
26.83758875678768
 20
21.57312214265437
 11
39.83758875678768
 21
21.57312214265437
  0
LINE
  5
420
100
AcDbEntity
  8
0
  6
CONTINUOUS
 62
    7
370
   25
100
AcDbLine
 10
40.33758875678768
 20
22.07312214265437
 11
40.33758875678768
 21
35.07312214265437
  0
LINE
  5
421
100
AcDbEntity
  8
0
  6
CONTINUOUS
 62
    7
370
   25
100
AcDbLine
 10
58.88758875678768
 20
35.57312214265437
 11
45.88758875678768
 21
35.57312214265437
  0
LINE
  5
422
100
AcDbEntity
  8
0
  6
CONTINUOUS
 62
    7
370
   25
100
AcDbLine
 10
45.38758875678768
 20
35.07312214265437
 11
45.38758875678768
 21
22.07312214265437
  0
LINE
  5
423
100
AcDbEntity
  8
0
  6
CONTINUOUS
 62
    7
370
   25
100
AcDbLine
 10
45.88758875678768
 20
21.57312214265437
 11
58.88758875678768
 21
21.57312214265437
  0
LINE
  5
424
100
AcDbEntity
  8
0
  6
CONTINUOUS
 62
    7
370
   25
100
AcDbLine
 10
59.38758875678768
 20
22.07312214265437
 11
59.38758875678768
 21
35.07312214265437
  0
ARC
  5
425
100
AcDbEntity
  8
0
  6
CONTINUOUS
 62
    7
370
   25
100
AcDbCircle
 10
39.83758875678768
 20
35.07312214265437
 40
0.5
100
AcDbArc
 50
0
 51
90
  0
ARC
  5
426
100
AcDbEntity
  8
0
  6
CONTINUOUS
 62
    7
370
   25
100
AcDbCircle
 10
26.83758875678768
 20
35.07312214265437
 40
0.5000000000000284
100
AcDbArc
 50
90
 51
180
  0
ARC
  5
427
100
AcDbEntity
  8
0
  6
CONTINUOUS
 62
    7
370
   25
100
AcDbCircle
 10
26.83758875678768
 20
22.07312214265437
 40
0.5000000000000213
100
AcDbArc
 50
180
 51
270
  0
ARC
  5
428
100
AcDbEntity
  8
0
  6
CONTINUOUS
 62
    7
370
   25
100
AcDbCircle
 10
39.83758875678768
 20
22.07312214265437
 40
0.5
100
AcDbArc
 50
270
 51
0
  0
ARC
  5
429
100
AcDbEntity
  8
0
  6
CONTINUOUS
 62
    7
370
   25
100
AcDbCircle
 10
58.88758875678768
 20
35.07312214265437
 40
0.5000000000000284
100
AcDbArc
 50
0
 51
90
  0
ARC
  5
42A
100
AcDbEntity
  8
0
  6
CONTINUOUS
 62
    7
370
   25
100
AcDbCircle
 10
45.88758875678768
 20
35.07312214265437
 40
0.4999999999999716
100
AcDbArc
 50
90
 51
180
  0
ARC
  5
42B
100
AcDbEntity
  8
0
  6
CONTINUOUS
 62
    7
370
   25
100
AcDbCircle
 10
45.88758875678768
 20
22.07312214265437
 40
0.5000000000000142
100
AcDbArc
 50
180
 51
270
  0
ARC
  5
42C
100
AcDbEntity
  8
0
  6
CONTINUOUS
 62
    7
370
   25
100
AcDbCircle
 10
58.88758875678768
 20
22.07312214265437
 40
0.5000000000000355
100
AcDbArc
 50
270
 51
360
  0
LINE
  5
42D
100
AcDbEntity
  8
0
  6
CONTINUOUS
 62
    7
370
   25
100
AcDbLine
 10
39.83501278994699
 20
35.57422994323705
 11
26.83501278994699
 21
35.57422994323705
  0
LINE
  5
42E
100
AcDbEntity
  8
0
  6
CONTINUOUS
 62
    7
370
   25
100
AcDbLine
 10
26.33501278994699
 20
35.07422994323705
 11
26.33501278994699
 21
22.07422994323705
  0
LINE
  5
42F
100
AcDbEntity
  8
0
  6
CONTINUOUS
 62
    7
370
   25
100
AcDbLine
 10
26.83501278994699
 20
21.57422994323705
 11
39.83501278994699
 21
21.57422994323705
  0
LINE
  5
430
100
AcDbEntity
  8
0
  6
CONTINUOUS
 62
    7
370
   25
100
AcDbLine
 10
40.33501278994699
 20
22.07422994323705
 11
40.33501278994699
 21
35.07422994323705
  0
ARC
  5
431
100
AcDbEntity
  8
0
  6
CONTINUOUS
 62
    7
370
   25
100
AcDbCircle
 10
39.83501278994699
 20
35.07422994323705
 40
0.5000000000000284
100
AcDbArc
 50
0
 51
90
  0
ARC
  5
432
100
AcDbEntity
  8
0
  6
CONTINUOUS
 62
    7
370
   25
100
AcDbCircle
 10
26.83501278994699
 20
35.07422994323705
 40
0.4999999999999716
100
AcDbArc
 50
90
 51
180
  0
ARC
  5
433
100
AcDbEntity
  8
0
  6
CONTINUOUS
 62
    7
370
   25
100
AcDbCircle
 10
26.83501278994699
 20
22.07422994323705
 40
0.5000000000000142
100
AcDbArc
 50
180
 51
270
  0
ARC
  5
434
100
AcDbEntity
  8
0
  6
CONTINUOUS
 62
    7
370
   25
100
AcDbCircle
 10
39.83501278994699
 20
22.07422994323705
 40
0.5000000000000355
100
AcDbArc
 50
270
 51
360
  0
LINE
  5
435
100
AcDbEntity
  8
0
  6
CONTINUOUS
 62
    7
370
   25
100
AcDbLine
 10
18.4034475637438
 20
35.569441874323
 11
5.403447563743799
 21
35.569441874323
  0
LINE
  5
436
100
AcDbEntity
  8
0
  6
CONTINUOUS
 62
    7
370
   25
100
AcDbLine
 10
4.903447563743799
 20
35.069441874323
 11
4.903447563743799
 21
22.069441874323
  0
LINE
  5
437
100
AcDbEntity
  8
0
  6
CONTINUOUS
 62
    7
370
   25
100
AcDbLine
 10
5.403447563743799
 20
21.569441874323
 11
18.4034475637438
 21
21.569441874323
  0
LINE
  5
438
100
AcDbEntity
  8
0
  6
CONTINUOUS
 62
    7
370
   25
100
AcDbLine
 10
18.9034475637438
 20
22.069441874323
 11
18.9034475637438
 21
35.069441874323
  0
ARC
  5
439
100
AcDbEntity
  8
0
  6
CONTINUOUS
 62
    7
370
   25
100
AcDbCircle
 10
18.4034475637438
 20
35.069441874323
 40
0.5
100
AcDbArc
 50
0
 51
90
  0
ARC
  5
43A
100
AcDbEntity
  8
0
  6
CONTINUOUS
 62
    7
370
   25
100
AcDbCircle
 10
5.403447563743799
 20
35.069441874323
 40
0.5000000000000284
100
AcDbArc
 50
90
 51
180
  0
ARC
  5
43B
100
AcDbEntity
  8
0
  6
CONTINUOUS
 62
    7
370
   25
100
AcDbCircle
 10
5.403447563743799
 20
22.069441874323
 40
0.5000000000000213
100
AcDbArc
 50
180
 51
270
  0
ARC
  5
43C
100
AcDbEntity
  8
0
  6
CONTINUOUS
 62
    7
370
   25
100
AcDbCircle
 10
18.4034475637438
 20
22.069441874323
 40
0.5
100
AcDbArc
 50
270
 51
0
  0
LINE
  5
43D
100
AcDbEntity
  8
0
  6
CONTINUOUS
 62
    7
370
   25
100
AcDbLine
 10
280.8507802875172
 20
50.6543043096102
 11
280.8507802875172
 21
63.6543043096102
  0
LINE
  5
43E
100
AcDbEntity
  8
0
  6
CONTINUOUS
 62
    7
370
   25
100
AcDbLine
 10
280.3507802875172
 20
64.15430430961021
 11
267.3507802875172
 21
64.15430430961021
  0
LINE
  5
43F
100
AcDbEntity
  8
0
  6
CONTINUOUS
 62
    7
370
   25
100
AcDbLine
 10
266.8507802875172
 20
63.6543043096102
 11
266.8507802875172
 21
50.6543043096102
  0
LINE
  5
440
100
AcDbEntity
  8
0
  6
CONTINUOUS
 62
    7
370
   25
100
AcDbLine
 10
267.3507802875172
 20
50.1543043096102
 11
280.3507802875172
 21
50.1543043096102
  0
LINE
  5
441
100
AcDbEntity
  8
0
  6
CONTINUOUS
 62
    7
370
   25
100
AcDbLine
 10
280.8507802875172
 20
66.55430430961017
 11
280.8507802875172
 21
71.55430430961017
  0
LINE
  5
442
100
AcDbEntity
  8
0
  6
CONTINUOUS
 62
    7
370
   25
100
AcDbLine
 10
279.8507802875172
 20
72.55430430961017
 11
265.8507802875172
 21
72.55430430961017
  0
LINE
  5
443
100
AcDbEntity
  8
0
  6
CONTINUOUS
 62
    7
370
   25
100
AcDbLine
 10
264.8507802875172
 20
71.55430430961017
 11
264.8507802875172
 21
66.55430430961017
  0
LINE
  5
444
100
AcDbEntity
  8
0
  6
CONTINUOUS
 62
    7
370
   25
100
AcDbLine
 10
265.8507802875172
 20
65.55430430961017
 11
279.8507802875172
 21
65.55430430961017
  0
LINE
  5
445
100
AcDbEntity
  8
0
  6
CONTINUOUS
 62
    7
370
   25
100
AcDbLine
 10
280.8507802875172
 20
42.75430430961023
 11
280.8507802875172
 21
47.75430430961023
  0
LINE
  5
446
100
AcDbEntity
  8
0
  6
CONTINUOUS
 62
    7
370
   25
100
AcDbLine
 10
279.8507802875172
 20
48.75430430961023
 11
265.8507802875172
 21
48.75430430961023
  0
LINE
  5
447
100
AcDbEntity
  8
0
  6
CONTINUOUS
 62
    7
370
   25
100
AcDbLine
 10
264.8507802875172
 20
47.75430430961023
 11
264.8507802875172
 21
42.75430430961023
  0
LINE
  5
448
100
AcDbEntity
  8
0
  6
CONTINUOUS
 62
    7
370
   25
100
AcDbLine
 10
265.8507802875172
 20
41.75430430961023
 11
279.8507802875172
 21
41.75430430961023
  0
ARC
  5
449
100
AcDbEntity
  8
0
  6
CONTINUOUS
 62
    7
370
   25
100
AcDbCircle
 10
280.3507802875172
 20
50.6543043096102
 40
0.5000000000000284
100
AcDbArc
 50
270
 51
360
  0
ARC
  5
44A
100
AcDbEntity
  8
0
  6
CONTINUOUS
 62
    7
370
   25
100
AcDbCircle
 10
280.3507802875172
 20
63.6543043096102
 40
0.5000000000000284
100
AcDbArc
 50
360
 51
90
  0
ARC
  5
44B
100
AcDbEntity
  8
0
  6
CONTINUOUS
 62
    7
370
   25
100
AcDbCircle
 10
267.3507802875172
 20
63.6543043096102
 40
0.5000000000000568
100
AcDbArc
 50
90
 51
180
  0
ARC
  5
44C
100
AcDbEntity
  8
0
  6
CONTINUOUS
 62
    7
370
   25
100
AcDbCircle
 10
267.3507802875172
 20
50.6543043096102
 40
0.5000000000000568
100
AcDbArc
 50
180
 51
270
  0
ARC
  5
44D
100
AcDbEntity
  8
0
  6
CONTINUOUS
 62
    7
370
   25
100
AcDbCircle
 10
279.8507802875172
 20
66.55430430961017
 40
1
100
AcDbArc
 50
270
 51
360
  0
ARC
  5
44E
100
AcDbEntity
  8
0
  6
CONTINUOUS
 62
    7
370
   25
100
AcDbCircle
 10
279.8507802875172
 20
71.55430430961017
 40
0.9999999999999716
100
AcDbArc
 50
360
 51
90
  0
ARC
  5
44F
100
AcDbEntity
  8
0
  6
CONTINUOUS
 62
    7
370
   25
100
AcDbCircle
 10
265.8507802875172
 20
71.55430430961017
 40
1.000000000000028
100
AcDbArc
 50
90
 51
180
  0
ARC
  5
450
100
AcDbEntity
  8
0
  6
CONTINUOUS
 62
    7
370
   25
100
AcDbCircle
 10
265.8507802875172
 20
66.55430430961017
 40
1
100
AcDbArc
 50
180
 51
270
  0
ARC
  5
451
100
AcDbEntity
  8
0
  6
CONTINUOUS
 62
    7
370
   25
100
AcDbCircle
 10
279.8507802875172
 20
42.75430430961023
 40
1
100
AcDbArc
 50
270
 51
360
  0
ARC
  5
452
100
AcDbEntity
  8
0
  6
CONTINUOUS
 62
    7
370
   25
100
AcDbCircle
 10
279.8507802875172
 20
47.75430430961023
 40
1.000000000000057
100
AcDbArc
 50
360
 51
90
  0
ARC
  5
453
100
AcDbEntity
  8
0
  6
CONTINUOUS
 62
    7
370
   25
100
AcDbCircle
 10
265.8507802875172
 20
47.75430430961023
 40
1.000000000000057
100
AcDbArc
 50
90
 51
180
  0
ARC
  5
454
100
AcDbEntity
  8
0
  6
CONTINUOUS
 62
    7
370
   25
100
AcDbCircle
 10
265.8507802875172
 20
42.75430430961023
 40
1
100
AcDbArc
 50
180
 51
270
  0
ENDSEC
  0
SECTION
  2
OBJECTS
  0
DICTIONARY
  5
C
330
0
100
AcDbDictionary
281
    1
  3
ACAD_GROUP
350
D
  0
DICTIONARY
  5
D
330
C
100
AcDbDictionary
281
    1
  0
ENDSEC
  0
EOF
